{"glyphs":{"0":{"ha":1007,"x_min":0,"x_max":0,"o":"m 499 -17 b 961 483 782 -17 961 168 l 961 522 b 503 1007 961 844 764 1007 b 46 517 242 1007 46 831 l 46 475 b 499 -17 46 163 219 -17 z m 507 204 b 329 476 383 204 329 292 l 329 518 b 504 792 329 701 383 792 b 678 518 625 792 678 700 l 678 478 b 507 204 678 294 628 204 z "},"1":{"ha":692,"x_min":0,"x_max":0,"o":"m 660 0 l 660 200 l 508 200 l 508 993 l 263 993 l 46 842 l 46 603 l 224 713 l 224 200 l 60 200 l 60 0 z "},"2":{"ha":869,"x_min":0,"x_max":0,"o":"m 613 192 l 386 192 l 606 375 b 811 713 726 475 811 571 b 440 1007 811 890 682 1007 b 40 632 200 1007 50 881 l 297 632 b 426 793 311 750 356 793 b 528 692 493 793 528 751 b 364 454 528 622 494 568 l 35 160 l 35 0 l 824 0 l 824 297 l 613 297 z "},"3":{"ha":901,"x_min":0,"x_max":0,"o":"m 453 -17 b 856 296 715 -17 856 107 b 663 521 856 417 776 497 b 831 735 767 551 831 624 b 457 1007 831 900 690 1007 b 67 676 210 1007 79 872 l 318 676 b 450 803 329 757 374 803 b 564 704 525 803 564 764 b 432 594 564 635 521 594 l 358 594 l 358 418 l 438 418 b 568 301 526 418 568 379 b 438 189 568 231 525 189 b 292 326 339 189 300 244 l 39 326 b 453 -17 47 111 176 -17 z "},"4":{"ha":910,"x_min":0,"x_max":0,"o":"m 258 463 l 482 801 l 482 463 z m 844 0 l 844 200 l 749 200 l 749 278 l 876 278 l 876 463 l 749 463 l 749 993 l 410 993 l 21 426 l 21 278 l 475 278 l 475 200 l 375 200 l 375 0 z "},"5":{"ha":869,"x_min":0,"x_max":0,"o":"m 426 -17 b 826 340 675 -17 826 122 b 525 665 826 543 707 665 b 293 564 401 665 332 617 l 303 800 l 546 800 l 546 729 l 764 729 l 764 993 l 93 993 l 72 406 l 242 406 b 407 476 275 446 326 476 b 540 338 493 476 540 425 b 421 197 540 258 504 197 b 293 313 329 197 303 243 l 33 313 b 426 -17 40 126 160 -17 z "},"6":{"ha":928,"x_min":0,"x_max":0,"o":"m 889 332 b 560 650 889 540 740 650 b 328 535 436 650 372 603 b 501 797 333 704 393 797 b 606 714 572 797 596 763 l 868 714 b 492 1007 847 908 714 1007 b 46 496 239 1007 46 819 l 46 469 b 483 -17 46 186 167 -17 b 889 332 735 -17 889 122 z m 479 185 b 344 332 397 185 344 244 b 481 472 344 411 399 472 b 613 329 561 472 613 413 b 479 185 613 244 560 185 z "},"7":{"ha":819,"x_min":0,"x_max":0,"o":"m 249 792 l 490 792 l 190 0 l 479 0 l 792 839 l 792 993 l 33 993 l 33 657 l 249 657 z "},"8":{"ha":903,"x_min":0,"x_max":0,"o":"m 451 -17 b 867 288 703 -17 867 96 b 688 525 867 400 806 485 b 829 731 774 564 829 629 b 454 1007 829 907 665 1007 b 78 729 249 1007 78 907 b 218 524 78 629 131 563 b 38 281 100 482 38 394 b 451 -17 38 88 201 -17 z m 454 597 b 338 707 390 597 338 639 b 454 815 338 774 390 815 b 572 707 519 815 572 774 b 454 597 572 639 521 597 z m 453 183 b 317 310 375 183 317 231 b 453 436 317 390 375 436 b 588 310 533 436 588 389 b 453 183 588 231 532 183 z "},"9":{"ha":928,"x_min":0,"x_max":0,"o":"m 443 521 b 311 663 361 521 311 581 b 443 808 311 747 363 808 b 579 660 526 808 579 747 b 443 521 579 581 525 521 z m 442 -15 b 882 489 725 -15 882 167 l 882 522 b 447 1008 882 810 743 1008 b 39 658 194 1008 39 867 b 374 338 39 447 183 338 b 600 454 496 338 557 386 b 428 196 596 285 546 196 b 313 281 353 196 322 231 l 51 281 b 442 -15 71 90 208 -15 z "}," ":{"ha":254,"x_min":0,"x_max":0,"o":""},"!":{"ha":426,"x_min":0,"x_max":0,"o":"m 111 326 l 317 326 l 354 993 l 74 993 z m 213 -15 b 361 122 294 -15 361 46 b 213 261 361 199 294 261 b 65 122 132 261 65 199 b 213 -15 65 46 132 -15 z "},"\"":{"ha":642,"x_min":0,"x_max":0,"o":"m 381 611 l 557 611 l 586 993 l 351 993 z m 85 611 l 261 611 l 290 993 l 57 993 z "},"#":{"ha":772,"x_min":0,"x_max":0,"o":"m 418 439 l 331 439 l 346 561 l 433 561 z m 363 0 l 529 0 l 563 256 l 699 256 l 699 439 l 586 439 l 601 561 l 732 561 l 732 744 l 625 744 l 657 993 l 489 993 l 457 744 l 369 744 l 401 993 l 235 993 l 203 744 l 74 744 l 74 561 l 179 561 l 164 439 l 40 439 l 40 256 l 140 256 l 107 0 l 275 0 l 307 256 l 394 256 z "},"$":{"ha":896,"x_min":0,"x_max":0,"o":"m 297 725 b 392 818 297 771 331 806 l 392 626 b 297 725 324 644 297 674 z m 614 279 b 517 174 614 226 581 188 l 517 376 b 614 279 588 357 614 329 z m 517 -187 l 517 -15 b 854 301 743 -1 854 131 b 517 606 854 506 721 574 l 517 814 b 615 699 574 797 601 760 l 836 699 l 836 993 l 656 993 l 656 894 b 517 996 633 939 592 978 l 517 1129 l 392 1129 l 392 1007 b 61 708 189 1000 61 883 b 392 399 61 533 165 435 l 392 176 b 268 318 315 196 278 251 l 42 318 l 42 0 l 225 0 l 225 110 b 392 -8 249 57 304 10 l 392 -187 z "},"%":{"ha":1149,"x_min":0,"x_max":0,"o":"m 297 506 b 561 761 458 506 561 617 b 299 1004 561 903 447 1004 b 35 757 147 1004 35 897 b 297 506 35 614 133 506 z m 164 0 l 300 0 l 989 993 l 853 993 z m 299 650 b 217 758 247 650 217 689 b 299 863 217 824 247 863 b 378 757 350 863 378 822 b 299 650 378 692 350 650 z m 850 -17 b 1114 239 1011 -17 1114 94 b 851 482 1114 382 1001 482 b 588 235 701 482 588 376 b 850 -17 588 92 686 -17 z m 851 129 b 771 236 801 129 771 167 b 851 340 771 301 801 340 b 932 236 904 340 932 300 b 851 129 932 169 904 129 z "},"&":{"ha":1038,"x_min":0,"x_max":0,"o":"m 446 747 b 525 831 446 800 479 831 b 596 757 569 831 596 800 b 501 638 596 707 567 668 b 446 747 468 678 446 711 z m 438 175 b 301 304 351 175 301 229 b 371 419 301 365 332 397 l 538 217 b 438 175 511 189 478 175 z m 657 78 l 719 0 l 997 0 l 997 182 l 910 182 l 868 239 l 935 351 l 1003 351 l 1003 533 l 822 533 l 738 376 l 613 531 b 818 774 749 588 818 665 b 524 1006 818 926 683 1006 b 201 746 347 1006 201 915 b 263 572 201 699 219 633 b 44 283 122 506 44 411 b 393 -17 44 94 182 -17 b 657 78 522 -17 596 25 z "},"'":{"ha":356,"x_min":0,"x_max":0,"o":"m 85 611 l 271 611 l 300 993 l 57 993 z "},"(":{"ha":494,"x_min":0,"x_max":0,"o":"m 283 -206 l 478 -206 b 290 435 386 -64 290 144 b 478 1076 290 726 386 935 l 283 1076 b 53 435 176 947 53 746 b 283 -206 53 126 176 -76 z "},")":{"ha":494,"x_min":0,"x_max":0,"o":"m 15 -204 l 210 -204 b 442 438 318 -75 442 128 b 210 1078 442 747 318 949 l 15 1078 b 203 438 108 936 203 728 b 15 -204 203 146 108 -62 z "},"*":{"ha":611,"x_min":0,"x_max":0,"o":"m 229 514 l 306 674 l 383 514 l 532 621 l 408 746 l 572 764 l 524 935 l 372 861 l 406 1032 l 207 1032 l 240 861 l 88 935 l 40 764 l 203 746 l 79 621 z "},"+":{"ha":801,"x_min":0,"x_max":0,"o":"m 301 115 l 500 115 l 500 382 l 744 382 l 744 563 l 500 563 l 500 829 l 301 829 l 301 563 l 57 563 l 57 382 l 301 382 z "},",":{"ha":415,"x_min":0,"x_max":0,"o":"m 76 -150 b 351 88 250 -147 351 -69 l 351 108 b 203 265 351 206 289 265 b 64 140 128 265 64 217 b 189 19 64 69 107 25 b 76 -50 186 -19 149 -43 z "},"-":{"ha":493,"x_min":0,"x_max":0,"o":"m 53 303 l 442 303 l 442 490 l 53 490 z "},".":{"ha":415,"x_min":0,"x_max":0,"o":"m 206 -15 b 351 125 289 -15 351 47 b 206 265 351 203 289 265 b 64 125 125 265 64 203 b 206 -15 64 47 125 -15 z "},"/":{"ha":611,"x_min":0,"x_max":0,"o":"m -33 -206 l 164 -206 l 606 1078 l 407 1078 z "},":":{"ha":424,"x_min":0,"x_max":0,"o":"m 210 382 b 356 522 293 382 356 443 b 210 663 356 600 293 663 b 68 522 129 663 68 600 b 210 382 68 443 129 382 z m 210 -15 b 356 125 293 -15 356 47 b 210 265 356 203 293 265 b 68 125 129 265 68 203 b 210 -15 68 47 129 -15 z "},";":{"ha":424,"x_min":0,"x_max":0,"o":"m 210 382 b 356 522 293 382 356 443 b 210 663 356 600 293 663 b 68 522 129 663 68 600 b 210 382 68 443 129 382 z m 81 -150 b 356 88 254 -147 356 -69 l 356 108 b 207 265 356 206 293 265 b 68 140 132 265 68 217 b 193 19 68 69 111 22 b 81 -50 190 -19 153 -43 z "},"<":{"ha":700,"x_min":0,"x_max":0,"o":"m 638 82 l 638 301 l 374 449 l 638 588 l 638 813 l 51 471 l 51 424 z "},"=":{"ha":782,"x_min":0,"x_max":0,"o":"m 58 504 l 724 504 l 724 675 l 58 675 z m 58 232 l 724 232 l 724 401 l 58 401 z "},">":{"ha":700,"x_min":0,"x_max":0,"o":"m 63 83 l 647 425 l 647 472 l 63 814 l 63 594 l 326 447 l 63 310 z "},"?":{"ha":772,"x_min":0,"x_max":0,"o":"m 235 326 l 469 326 l 469 347 b 629 538 482 415 561 469 b 731 746 685 592 731 654 b 396 1007 731 911 610 1007 b 25 683 182 1007 32 893 l 267 683 b 376 806 276 760 317 806 b 461 722 435 806 461 776 b 371 586 461 674 418 632 b 235 353 307 525 235 458 z m 353 -15 b 500 122 433 -15 500 46 b 353 261 500 199 433 261 b 203 122 269 261 203 199 b 353 -15 203 46 269 -15 z "},"@":{"ha":1286,"x_min":0,"x_max":0,"o":"m 643 -219 b 1131 0 856 -219 1040 -133 l 1004 0 b 647 -124 935 -67 810 -124 b 161 347 325 -124 161 83 b 671 863 161 663 386 863 b 1132 457 951 863 1132 699 b 979 172 1132 253 1056 172 b 919 264 929 172 911 206 l 965 643 l 761 643 l 751 571 b 600 654 732 617 688 654 b 326 328 449 654 326 524 b 553 69 326 168 415 69 b 738 186 642 69 703 113 b 943 72 758 113 822 72 b 1242 454 1092 72 1242 178 b 668 960 1242 758 999 960 b 43 349 342 960 43 717 b 643 -219 43 35 268 -219 z m 618 233 b 535 336 564 233 535 278 b 640 493 535 429 579 493 b 731 394 700 493 731 456 b 618 233 731 299 679 233 z "},"A":{"ha":1064,"x_min":0,"x_max":0,"o":"m 594 467 l 408 467 l 501 789 z m 419 0 l 419 200 l 332 200 l 357 288 l 646 288 l 672 200 l 585 200 l 585 0 l 1038 0 l 1038 200 l 965 200 l 713 993 l 350 993 l 97 200 l 26 200 l 26 0 z "},"B":{"ha":961,"x_min":0,"x_max":0,"o":"m 397 599 l 397 793 l 506 793 b 629 701 589 793 629 765 l 629 696 b 506 599 629 628 592 599 z m 397 200 l 397 425 l 507 425 b 649 315 607 425 649 386 l 649 311 b 515 200 649 240 606 200 z m 33 0 l 567 0 b 928 276 814 0 928 99 l 928 282 b 729 514 928 419 851 493 b 899 728 840 543 899 617 l 899 733 b 563 993 899 888 799 993 l 33 993 l 33 793 l 119 793 l 119 200 l 33 200 z "},"C":{"ha":1050,"x_min":0,"x_max":0,"o":"m 1018 374 l 736 374 b 551 211 722 264 651 211 b 339 492 415 211 339 313 l 339 496 b 547 783 339 685 419 783 b 732 626 658 783 711 722 l 999 626 l 999 993 l 788 993 l 788 872 b 501 1008 749 944 667 1008 b 39 501 226 1008 39 803 l 39 490 b 557 -17 39 186 210 -17 b 1018 374 814 -17 1000 117 z "},"D":{"ha":1051,"x_min":0,"x_max":0,"o":"m 406 219 l 406 774 l 468 774 b 715 504 640 774 715 693 l 715 493 b 471 219 715 308 640 219 z m 33 0 l 481 0 b 1013 497 831 0 1013 188 l 1013 508 b 481 993 1013 817 833 993 l 33 993 l 33 793 l 119 793 l 119 200 l 33 200 z "},"E":{"ha":890,"x_min":0,"x_max":0,"o":"m 33 0 l 850 0 l 850 307 l 625 307 l 625 200 l 396 200 l 396 400 l 694 400 l 694 603 l 396 603 l 396 793 l 611 793 l 611 696 l 826 696 l 826 993 l 33 993 l 33 793 l 113 793 l 113 200 l 33 200 z "},"F":{"ha":868,"x_min":0,"x_max":0,"o":"m 501 0 l 501 200 l 399 200 l 399 382 l 692 382 l 692 583 l 399 583 l 399 793 l 613 793 l 613 690 l 828 690 l 828 993 l 33 993 l 33 793 l 113 793 l 113 200 l 33 200 l 33 0 z "},"G":{"ha":1113,"x_min":0,"x_max":0,"o":"m 810 0 l 1043 0 l 1043 551 l 579 551 l 579 349 l 771 349 b 568 200 764 281 710 200 b 335 486 396 200 335 324 l 335 497 b 561 785 335 676 421 785 b 751 643 671 785 729 733 l 1018 643 l 1018 993 l 806 993 l 806 874 b 515 1008 763 950 676 1008 b 39 501 232 1008 39 796 l 39 490 b 515 -17 39 193 208 -17 b 810 128 678 -17 774 57 z "},"H":{"ha":1132,"x_min":0,"x_max":0,"o":"m 506 0 l 506 200 l 406 200 l 406 399 l 728 399 l 728 200 l 626 200 l 626 0 l 1099 0 l 1099 200 l 1013 200 l 1013 793 l 1099 793 l 1099 993 l 626 993 l 626 793 l 728 793 l 728 603 l 406 603 l 406 793 l 506 793 l 506 993 l 33 993 l 33 793 l 119 793 l 119 200 l 33 200 l 33 0 z "},"I":{"ha":526,"x_min":0,"x_max":0,"o":"m 493 0 l 493 200 l 407 200 l 407 793 l 493 793 l 493 993 l 33 993 l 33 793 l 119 793 l 119 200 l 33 200 l 33 0 z "},"J":{"ha":699,"x_min":0,"x_max":0,"o":"m 218 -12 b 579 349 457 -12 579 110 l 579 793 l 665 793 l 665 993 l 193 993 l 193 793 l 293 793 l 293 351 b 158 214 293 249 240 214 b 33 235 99 214 67 224 l 33 24 b 218 -12 74 3 121 -12 z "},"K":{"ha":1019,"x_min":0,"x_max":0,"o":"m 483 200 l 406 200 l 406 421 l 711 0 l 990 0 l 990 200 l 915 200 l 654 542 l 889 793 l 981 793 l 981 993 l 563 993 l 563 793 l 651 793 l 406 532 l 406 793 l 479 793 l 479 993 l 33 993 l 33 793 l 119 793 l 119 200 l 33 200 l 33 0 l 483 0 z "},"L":{"ha":878,"x_min":0,"x_max":0,"o":"m 33 0 l 844 0 l 844 357 l 619 357 l 619 201 l 406 201 l 406 793 l 504 793 l 504 993 l 33 993 l 33 793 l 119 793 l 119 200 l 33 200 z "},"M":{"ha":1333,"x_min":0,"x_max":0,"o":"m 440 200 l 351 200 l 351 678 l 603 0 l 697 0 l 949 678 l 949 200 l 860 200 l 860 0 l 1301 0 l 1301 200 l 1214 200 l 1214 793 l 1301 793 l 1301 993 l 851 993 l 674 476 l 496 993 l 33 993 l 33 793 l 119 793 l 119 200 l 33 200 l 33 0 l 440 0 z "},"N":{"ha":1115,"x_min":0,"x_max":0,"o":"m 453 200 l 364 200 l 364 632 l 724 0 l 999 0 l 999 793 l 1085 793 l 1085 993 l 668 993 l 668 793 l 754 793 l 754 411 l 425 993 l 33 993 l 33 793 l 119 793 l 119 200 l 33 200 l 33 0 l 453 0 z "},"O":{"ha":1128,"x_min":0,"x_max":0,"o":"m 558 -17 b 1089 497 879 -17 1089 192 l 1089 508 b 564 1007 1089 817 867 1007 b 39 501 267 1007 39 804 l 39 490 b 558 -17 39 192 239 -17 z m 565 207 b 336 492 428 207 336 311 l 336 503 b 564 785 336 683 424 785 b 792 504 704 785 792 681 l 792 493 b 565 207 792 315 704 207 z "},"P":{"ha":926,"x_min":0,"x_max":0,"o":"m 404 542 l 404 781 l 494 781 b 625 667 576 781 625 746 l 625 661 b 494 542 625 585 578 542 z m 503 0 l 503 200 l 404 200 l 404 349 l 518 349 b 896 661 757 349 896 463 l 896 667 b 507 993 896 874 771 993 l 33 993 l 33 793 l 119 793 l 119 200 l 33 200 l 33 0 z "},"Q":{"ha":1146,"x_min":0,"x_max":0,"o":"m 565 207 b 336 492 428 207 336 311 l 336 503 b 564 785 336 683 424 785 b 794 504 707 785 794 681 l 794 493 b 779 365 794 444 789 401 l 683 465 l 525 321 l 635 214 b 565 207 614 210 590 207 z m 854 0 l 1122 0 l 1122 200 l 982 200 b 1089 497 1051 281 1089 378 l 1089 508 b 564 1007 1089 817 867 1007 b 39 501 267 1007 39 804 l 39 490 b 558 -17 39 192 239 -17 b 807 46 654 -17 735 4 z "},"R":{"ha":989,"x_min":0,"x_max":0,"o":"m 404 553 l 404 793 l 496 793 b 638 682 588 793 638 760 l 638 675 b 494 553 638 593 590 553 z m 481 0 l 481 200 l 404 200 l 404 368 l 472 368 l 694 0 l 963 0 l 963 200 l 885 200 l 736 426 b 913 679 838 464 913 546 l 913 685 b 511 993 913 894 771 993 l 33 993 l 33 793 l 119 793 l 119 200 l 33 200 l 33 0 z "},"S":{"ha":882,"x_min":0,"x_max":0,"o":"m 490 -17 b 847 299 728 -17 847 119 b 475 625 847 519 708 596 b 322 725 357 642 322 674 b 433 811 322 779 363 811 b 578 694 515 811 563 765 l 807 694 l 807 993 l 599 993 l 599 913 b 372 1007 561 965 492 1007 b 54 713 181 1007 54 886 b 426 388 54 533 163 419 b 574 279 536 372 574 340 b 454 182 574 224 529 182 b 274 318 350 182 289 243 l 43 318 l 43 0 l 254 0 l 254 83 b 490 -17 297 26 382 -17 z "},"T":{"ha":1028,"x_min":0,"x_max":0,"o":"m 751 0 l 751 200 l 657 200 l 657 792 l 783 792 l 783 650 l 990 650 l 990 993 l 38 993 l 38 650 l 243 650 l 243 792 l 371 792 l 371 200 l 275 200 l 275 0 z "},"U":{"ha":1106,"x_min":0,"x_max":0,"o":"m 993 407 l 993 793 l 1074 793 l 1074 993 l 622 993 l 622 793 l 708 793 l 708 419 b 553 207 708 271 671 207 b 397 415 432 207 397 275 l 397 793 l 483 793 l 483 993 l 31 993 l 31 793 l 113 793 l 113 403 b 551 -17 113 125 272 -17 b 993 407 824 -17 993 118 z "},"V":{"ha":1043,"x_min":0,"x_max":0,"o":"m 1017 793 l 1017 993 l 606 993 l 606 793 l 694 793 l 546 286 l 399 793 l 479 793 l 479 993 l 26 993 l 26 793 l 99 793 l 364 0 l 685 0 l 946 793 z "},"W":{"ha":1438,"x_min":0,"x_max":0,"o":"m 728 617 l 881 0 l 1150 0 l 1344 793 l 1411 793 l 1411 993 l 1021 993 l 1021 793 l 1106 793 l 1010 338 l 853 993 l 618 993 l 476 338 l 383 793 l 460 793 l 460 993 l 26 993 l 26 793 l 96 793 l 289 0 l 574 0 z "},"X":{"ha":1043,"x_min":0,"x_max":0,"o":"m 464 183 l 376 183 l 507 372 l 640 183 l 554 183 l 554 0 l 1013 0 l 1013 200 l 943 200 l 721 517 l 925 793 l 1007 793 l 1007 993 l 597 993 l 597 810 l 682 810 l 556 635 l 428 810 l 514 810 l 514 993 l 35 993 l 35 793 l 118 793 l 332 507 l 103 200 l 31 200 l 31 0 l 464 0 z "},"Y":{"ha":978,"x_min":0,"x_max":0,"o":"m 728 0 l 728 200 l 638 200 l 638 414 l 881 793 l 953 793 l 953 993 l 567 993 l 567 807 l 654 807 l 521 589 l 388 807 l 472 807 l 472 993 l 26 993 l 26 793 l 97 793 l 350 408 l 350 200 l 260 200 l 260 0 z "},"Z":{"ha":904,"x_min":0,"x_max":0,"o":"m 281 807 l 496 807 l 31 97 l 31 0 l 861 0 l 861 331 l 638 331 l 638 193 l 403 193 l 868 896 l 868 993 l 64 993 l 64 685 l 281 685 z "},"[":{"ha":568,"x_min":0,"x_max":0,"o":"m 92 -206 l 515 -206 l 515 -24 l 342 -24 l 342 896 l 515 896 l 515 1078 l 92 1078 z "},"\\":{"ha":613,"x_min":0,"x_max":0,"o":"m 447 -206 l 646 -206 l 206 1078 l 7 1078 z "},"]":{"ha":568,"x_min":0,"x_max":0,"o":"m 54 -206 l 476 -206 l 476 1078 l 54 1078 l 54 896 l 226 896 l 226 -24 l 54 -24 z "},"^":{"ha":738,"x_min":0,"x_max":0,"o":"m 32 546 l 240 546 l 367 790 l 493 546 l 706 546 l 478 993 l 260 993 z "},"_":{"ha":603,"x_min":0,"x_max":0,"o":"m -1 -224 l 604 -224 l 604 -104 l -1 -104 z "},"`":{"ha":556,"x_min":0,"x_max":0,"o":"m 199 810 l 376 810 l 303 1040 l 53 1040 z "},"a":{"ha":815,"x_min":0,"x_max":0,"o":"m 363 153 b 279 219 304 153 279 181 b 421 297 279 274 322 297 l 486 297 l 486 256 b 363 153 486 190 433 153 z m 492 92 l 492 0 l 796 0 l 796 174 l 732 174 l 732 471 b 406 746 732 667 604 746 b 60 485 208 746 71 661 l 293 485 b 390 571 299 532 324 571 b 486 456 467 571 486 528 l 486 440 l 417 440 b 33 201 176 440 33 378 b 276 -17 33 47 146 -17 b 492 92 393 -17 456 32 z "},"b":{"ha":908,"x_min":0,"x_max":0,"o":"m 478 174 b 333 360 388 174 333 236 l 333 371 b 478 558 333 493 388 558 b 621 369 565 558 621 497 l 621 358 b 478 174 621 239 571 174 z m 565 -17 b 874 358 736 -17 874 108 l 874 369 b 567 746 874 618 736 746 b 340 611 457 746 382 686 l 340 1046 l 26 1046 l 26 867 l 92 867 l 92 174 l 26 174 l 26 0 l 340 0 l 340 118 b 565 -17 376 38 457 -17 z "},"c":{"ha":815,"x_min":0,"x_max":0,"o":"m 582 624 b 367 746 556 688 492 746 b 32 371 167 746 32 593 l 32 358 b 414 -17 32 108 197 -17 b 779 286 647 -17 771 103 l 554 286 b 429 165 547 207 497 165 b 286 357 333 165 286 231 l 286 369 b 425 556 286 492 338 556 b 556 446 504 556 542 511 l 774 446 l 774 726 l 582 726 z "},"d":{"ha":903,"x_min":0,"x_max":0,"o":"m 428 172 b 288 358 340 172 288 235 l 288 369 b 431 560 288 497 338 560 b 572 371 522 560 572 494 l 572 360 b 428 172 572 236 518 172 z m 565 118 l 565 0 l 879 0 l 879 174 l 815 174 l 815 1046 l 496 1046 l 496 867 l 565 867 l 565 624 b 342 746 525 697 457 746 b 33 367 171 746 33 614 l 33 356 b 340 -17 33 104 172 -17 b 565 118 450 -17 529 43 z "},"e":{"ha":826,"x_min":0,"x_max":0,"o":"m 426 -17 b 793 240 646 -17 771 76 l 561 240 b 433 154 551 192 517 154 b 283 301 344 154 290 201 l 793 301 l 793 371 b 424 746 793 632 622 746 b 32 365 206 746 32 599 l 32 354 b 426 -17 32 117 199 -17 z m 286 450 b 424 582 297 532 349 582 b 553 450 506 582 549 532 z "},"f":{"ha":526,"x_min":0,"x_max":0,"o":"m 435 0 l 435 174 l 350 174 l 350 551 l 497 551 l 497 726 l 350 726 l 350 790 b 432 869 350 838 375 869 b 500 860 461 869 482 865 l 500 1042 b 386 1057 467 1051 432 1057 b 101 790 215 1057 101 971 l 101 726 l 26 726 l 26 551 l 101 551 l 101 174 l 28 174 l 28 0 z "},"g":{"ha":897,"x_min":0,"x_max":0,"o":"m 429 219 b 288 383 340 219 288 283 l 288 394 b 431 560 288 494 338 560 b 572 396 522 560 572 496 l 572 386 b 429 219 572 283 518 219 z m 413 -269 b 815 61 671 -269 814 -156 l 815 547 l 879 547 l 879 726 l 565 726 l 565 624 b 342 746 525 697 457 746 b 33 396 171 746 33 610 l 33 385 b 342 44 33 167 172 44 b 565 169 450 44 529 100 l 565 58 b 413 -94 565 -32 522 -94 b 279 -3 322 -94 290 -53 l 39 -3 b 413 -269 57 -168 172 -269 z "},"h":{"ha":893,"x_min":0,"x_max":0,"o":"m 407 0 l 407 174 l 342 174 l 342 410 b 460 544 342 501 390 544 b 558 426 526 544 558 506 l 558 174 l 493 174 l 493 0 l 872 0 l 872 174 l 808 174 l 808 475 b 575 746 808 660 710 746 b 342 606 454 746 379 678 l 342 1046 l 26 1046 l 26 867 l 93 867 l 93 174 l 28 174 l 28 0 z "},"i":{"ha":428,"x_min":0,"x_max":0,"o":"m 215 794 b 353 925 293 794 353 850 b 215 1054 353 999 293 1054 b 76 925 136 1054 76 999 b 215 794 76 850 136 794 z m 407 0 l 407 174 l 340 174 l 340 726 l 26 726 l 26 547 l 93 547 l 93 174 l 28 174 l 28 0 z "},"j":{"ha":417,"x_min":0,"x_max":0,"o":"m 215 794 b 353 925 293 794 353 850 b 215 1054 353 999 293 1054 b 78 925 136 1054 78 999 b 215 794 78 850 136 794 z m 340 6 l 340 726 l 26 726 l 26 547 l 93 547 l 93 11 b 4 -75 93 -46 65 -71 l 4 -256 b 340 6 267 -256 340 -151 z "},"k":{"ha":842,"x_min":0,"x_max":0,"o":"m 399 174 l 342 174 l 342 313 l 582 0 l 819 0 l 819 174 l 743 174 l 572 388 l 731 553 l 806 553 l 806 726 l 429 726 l 429 567 l 529 567 l 342 390 l 342 1046 l 26 1046 l 26 867 l 93 867 l 93 174 l 28 174 l 28 0 l 399 0 z "},"l":{"ha":428,"x_min":0,"x_max":0,"o":"m 407 0 l 407 174 l 340 174 l 340 1046 l 26 1046 l 26 867 l 93 867 l 93 174 l 28 174 l 28 0 z "},"m":{"ha":1308,"x_min":0,"x_max":0,"o":"m 403 0 l 403 174 l 342 174 l 342 429 b 447 553 342 508 385 553 b 535 443 501 553 535 517 l 535 174 l 474 174 l 474 0 l 843 0 l 843 174 l 782 174 l 782 429 b 888 553 782 508 825 553 b 975 443 942 553 975 517 l 975 174 l 914 174 l 914 0 l 1289 0 l 1289 174 l 1224 174 l 1224 475 b 992 746 1224 657 1125 746 b 757 614 903 746 818 706 b 564 746 722 704 657 746 b 342 606 454 746 381 681 l 342 726 l 26 726 l 26 547 l 93 547 l 93 174 l 28 174 l 28 0 z "},"n":{"ha":893,"x_min":0,"x_max":0,"o":"m 410 0 l 410 174 l 342 174 l 342 410 b 460 544 342 501 390 544 b 558 426 526 544 558 506 l 558 174 l 492 174 l 492 0 l 872 0 l 872 174 l 808 174 l 808 475 b 575 746 808 660 710 746 b 342 606 454 746 379 678 l 342 726 l 26 726 l 26 547 l 93 547 l 93 174 l 28 174 l 28 0 z "},"o":{"ha":858,"x_min":0,"x_max":0,"o":"m 429 -17 b 826 361 651 -17 826 125 l 826 372 b 431 746 826 603 654 746 b 32 365 206 746 32 599 l 32 354 b 429 -17 32 119 206 -17 z m 431 154 b 285 361 333 154 285 226 l 285 372 b 431 572 285 504 338 572 b 574 369 524 572 574 501 l 574 358 b 431 154 574 226 524 154 z "},"p":{"ha":908,"x_min":0,"x_max":0,"o":"m 479 174 b 335 360 389 174 335 238 l 335 371 b 479 558 335 492 389 558 b 622 369 567 558 622 497 l 622 358 b 479 174 622 239 572 174 z m 417 -253 l 417 -79 l 342 -79 l 342 107 b 565 -17 378 35 457 -17 b 875 358 738 -17 875 108 l 875 369 b 568 746 875 618 736 746 b 342 617 458 746 382 688 l 342 726 l 26 726 l 26 547 l 93 547 l 93 -79 l 28 -79 l 28 -253 z "},"q":{"ha":904,"x_min":0,"x_max":0,"o":"m 428 174 b 288 358 340 174 288 236 l 288 369 b 431 558 288 496 338 558 b 572 371 522 558 572 493 l 572 360 b 428 174 572 236 518 174 z m 879 -253 l 879 -79 l 815 -79 l 815 547 l 881 547 l 881 726 l 565 726 l 565 624 b 342 746 525 697 457 746 b 33 367 171 746 33 614 l 33 356 b 340 -17 33 104 172 -17 b 565 113 450 -17 529 43 l 565 -79 l 492 -79 l 492 -253 z "},"r":{"ha":618,"x_min":0,"x_max":0,"o":"m 415 0 l 415 174 l 342 174 l 342 344 b 583 503 342 460 428 510 l 583 736 b 342 575 464 738 388 688 l 342 726 l 26 726 l 26 547 l 93 547 l 93 174 l 28 174 l 28 0 z "},"s":{"ha":711,"x_min":0,"x_max":0,"o":"m 406 -17 b 681 229 576 -17 681 71 b 385 469 681 388 582 446 b 267 538 296 483 267 497 b 349 600 267 579 299 600 b 479 507 415 600 465 565 l 651 507 l 651 726 l 483 726 l 483 664 b 292 744 460 704 417 744 b 36 513 135 744 36 657 b 307 276 36 378 111 301 b 440 204 403 264 440 253 b 343 133 440 160 410 133 b 213 242 265 133 219 183 l 35 242 l 35 0 l 211 0 l 211 67 b 406 -17 231 35 275 -17 z "},"t":{"ha":547,"x_min":0,"x_max":0,"o":"m 369 -17 b 508 6 426 -17 474 -4 l 508 185 b 436 172 483 175 461 172 b 358 249 385 172 358 196 l 358 551 l 507 551 l 507 726 l 358 726 l 358 878 l 108 878 l 108 726 l 25 726 l 25 551 l 108 551 l 108 233 b 369 -17 108 63 200 -17 z "},"u":{"ha":886,"x_min":0,"x_max":0,"o":"m 549 121 l 549 0 l 865 0 l 865 174 l 799 174 l 799 726 l 482 726 l 482 547 l 549 547 l 549 318 b 433 182 549 225 500 182 b 335 301 367 182 335 221 l 335 726 l 21 726 l 21 547 l 85 547 l 85 253 b 317 -19 85 67 183 -19 b 549 121 436 -19 511 47 z "},"v":{"ha":853,"x_min":0,"x_max":0,"o":"m 832 547 l 832 726 l 483 726 l 483 547 l 556 547 l 451 218 l 344 547 l 415 547 l 415 726 l 21 726 l 21 547 l 86 547 l 290 0 l 568 0 l 768 547 z "},"w":{"ha":1199,"x_min":0,"x_max":0,"o":"m 608 407 l 707 0 l 951 0 l 1119 547 l 1178 547 l 1178 726 l 842 726 l 842 547 l 918 547 l 838 246 l 728 726 l 526 726 l 407 244 l 336 547 l 404 547 l 404 726 l 21 726 l 21 547 l 82 547 l 249 0 l 499 0 z "},"x":{"ha":836,"x_min":0,"x_max":0,"o":"m 365 160 l 306 160 l 393 281 l 479 160 l 421 160 l 421 0 l 810 0 l 810 174 l 749 174 l 589 375 l 732 547 l 808 547 l 808 726 l 474 726 l 474 565 l 529 565 l 447 451 l 367 565 l 424 565 l 424 726 l 26 726 l 26 547 l 96 547 l 244 361 l 94 174 l 26 174 l 26 0 l 365 0 z "},"y":{"ha":849,"x_min":0,"x_max":0,"o":"m 829 547 l 829 726 l 485 726 l 485 547 l 547 547 l 447 297 l 349 547 l 417 547 l 417 726 l 21 726 l 21 547 l 88 547 l 319 47 l 267 -79 l 168 -79 l 168 -253 l 421 -253 l 760 547 z "},"z":{"ha":735,"x_min":0,"x_max":0,"o":"m 514 168 l 346 168 l 699 643 l 699 726 l 35 726 l 35 467 l 221 467 l 221 564 l 376 564 l 25 85 l 25 0 l 706 0 l 706 268 l 514 268 z "},"{":{"ha":581,"x_min":0,"x_max":0,"o":"m 528 -206 l 528 -24 b 403 114 421 -19 390 14 l 421 254 b 278 440 433 349 379 417 b 421 625 379 464 433 531 l 403 765 b 528 899 390 864 421 893 l 528 1079 b 157 758 247 1079 119 990 l 178 642 b 43 525 189 576 150 525 l 43 351 b 178 233 150 351 189 299 l 157 115 b 528 -206 119 -107 247 -206 z "},"|":{"ha":372,"x_min":0,"x_max":0,"o":"m 99 -206 l 272 -206 l 272 1078 l 99 1078 z "},"}":{"ha":581,"x_min":0,"x_max":0,"o":"m 53 -206 b 424 115 333 -206 461 -107 l 403 233 b 538 351 392 299 431 351 l 538 525 b 403 642 431 525 392 576 l 424 758 b 53 1079 461 990 333 1079 l 53 899 b 178 765 160 893 190 864 l 160 625 b 303 440 147 531 201 464 b 160 254 201 417 147 349 l 178 114 b 53 -24 190 14 160 -19 z "},"~":{"ha":719,"x_min":0,"x_max":0,"o":"m 39 297 l 200 297 b 264 361 207 336 226 361 b 478 300 313 361 375 300 b 681 575 578 300 674 390 l 519 575 b 457 511 514 535 493 511 b 244 572 408 511 344 572 b 39 297 143 572 50 496 z "}," ":{"ha":254,"x_min":0,"x_max":0,"o":""},"¡":{"ha":426,"x_min":0,"x_max":0,"o":"m 213 461 b 361 600 294 461 361 524 b 213 738 361 676 294 738 b 65 600 132 738 65 676 b 213 461 65 524 132 461 z m 72 -271 l 353 -271 l 315 396 l 110 396 z "},"¢":{"ha":826,"x_min":0,"x_max":0,"o":"m 801 286 l 586 286 b 493 161 579 215 544 175 l 493 556 b 578 446 544 539 567 499 l 796 446 l 796 726 l 610 726 l 610 631 b 493 732 592 672 558 713 l 493 874 l 375 874 l 375 746 b 35 365 174 739 35 585 l 35 354 b 375 -14 35 132 179 7 l 375 -187 l 493 -187 l 493 -14 b 801 286 682 6 794 119 z m 281 357 l 281 368 b 375 554 281 472 315 532 l 375 165 b 281 357 315 189 281 249 z "},"£":{"ha":901,"x_min":0,"x_max":0,"o":"m 872 290 l 615 290 b 533 208 613 233 582 208 b 404 242 499 208 456 226 b 417 321 413 265 417 292 b 413 407 417 350 415 379 l 629 407 l 629 557 l 392 557 b 383 674 388 596 383 635 b 489 793 383 750 426 793 b 607 667 558 793 593 751 l 849 667 l 849 993 l 650 993 l 650 892 b 435 1007 625 947 561 1007 b 101 689 243 1007 101 893 b 118 557 101 640 108 597 l 47 557 l 47 407 l 163 407 b 174 321 169 379 174 350 b 161 240 174 289 169 263 b 25 0 75 197 32 103 l 235 0 b 303 60 239 33 260 60 b 589 -12 369 60 454 -12 b 872 290 767 -12 865 117 z "},"¥":{"ha":942,"x_min":0,"x_max":0,"o":"m 710 0 l 710 200 l 619 200 l 619 278 l 836 278 l 836 376 l 619 376 l 619 440 l 836 440 l 836 539 l 671 539 l 838 793 l 915 793 l 915 993 l 538 993 l 538 793 l 603 793 l 497 611 l 394 793 l 456 793 l 456 993 l 26 993 l 26 793 l 107 793 l 278 539 l 117 539 l 117 440 l 333 440 l 333 376 l 117 376 l 117 278 l 333 278 l 333 200 l 243 200 l 243 0 z "},"¦":{"ha":375,"x_min":0,"x_max":0,"o":"m 99 517 l 272 517 l 272 1078 l 99 1078 z m 99 -206 l 272 -206 l 272 418 l 99 418 z "},"§":{"ha":842,"x_min":0,"x_max":0,"o":"m 511 310 l 410 344 b 271 435 315 374 271 392 b 332 501 271 471 292 494 l 435 468 b 572 376 532 438 572 424 b 511 310 572 343 556 319 z m 406 -190 b 724 63 594 -190 724 -89 b 663 222 724 129 703 182 b 813 414 753 258 813 322 b 496 682 813 585 682 638 b 351 772 381 710 351 726 b 431 836 351 810 376 836 b 517 753 489 836 511 806 l 742 753 b 436 1007 735 910 628 1007 b 118 751 251 1007 118 910 b 181 590 118 686 139 632 b 31 400 90 557 31 494 b 343 131 31 236 154 176 b 492 42 456 104 492 85 b 411 -22 492 3 465 -22 b 324 64 353 -22 328 11 l 97 64 b 406 -190 104 -93 213 -190 z "},"¨":{"ha":556,"x_min":0,"x_max":0,"o":"m 425 806 b 544 921 492 806 544 857 b 425 1038 544 985 492 1038 b 307 921 358 1038 307 985 b 425 806 307 857 358 806 z m 129 806 b 249 921 196 806 249 857 b 129 1038 249 985 196 1038 b 11 921 64 1038 11 985 b 129 806 11 857 64 806 z "},"©":{"ha":1160,"x_min":0,"x_max":0,"o":"m 578 -28 b 1113 499 878 -28 1113 200 b 581 1021 1113 790 883 1021 b 46 496 282 1021 46 789 b 578 -28 46 199 283 -28 z m 578 43 b 133 496 336 43 133 224 b 581 950 133 765 329 950 b 1026 499 829 950 1026 767 b 578 43 1026 226 824 43 z m 851 432 l 681 432 b 586 347 675 374 636 347 b 478 493 515 347 478 399 l 478 503 b 583 647 478 599 517 647 b 678 564 642 647 667 613 l 840 564 l 840 774 l 710 774 l 710 710 b 560 783 694 739 651 783 b 294 503 407 783 294 674 l 294 492 b 589 210 294 321 390 210 b 851 432 736 210 843 286 z "},"ª":{"ha":700,"x_min":0,"x_max":0,"o":"m 314 546 b 253 593 274 546 253 563 b 349 647 253 631 283 647 l 399 647 l 399 615 b 314 546 399 572 363 546 z m 403 479 l 403 414 l 668 414 l 668 564 l 615 564 l 615 785 b 343 1004 615 936 514 1004 b 58 792 176 1004 68 931 l 264 792 b 332 853 268 822 286 853 b 399 778 385 853 399 824 l 399 757 l 343 757 b 38 574 144 757 38 708 b 233 399 38 450 131 399 b 403 479 328 399 378 440 z "},"«":{"ha":667,"x_min":0,"x_max":0,"o":"m 465 97 l 625 97 l 460 363 l 625 628 l 465 628 l 293 363 z m 215 97 l 375 97 l 210 363 l 375 628 l 215 628 l 43 363 z "},"®":{"ha":718,"x_min":0,"x_max":0,"o":"m 358 390 b 678 699 536 390 678 524 b 358 1007 678 871 539 1007 b 40 697 181 1007 40 869 b 358 390 40 522 182 390 z m 358 443 b 101 697 214 443 101 546 b 358 954 101 847 208 954 b 617 699 508 954 617 849 b 358 443 617 549 504 443 z m 346 722 l 346 785 l 368 785 b 407 756 393 785 407 776 l 407 754 b 368 722 407 732 394 722 z m 369 614 l 346 614 l 346 660 l 363 660 l 424 550 l 515 550 l 515 621 l 489 621 l 453 682 b 500 758 481 696 500 717 l 500 760 b 374 854 500 824 457 854 l 222 854 l 222 785 l 249 785 l 249 621 l 222 621 l 222 550 l 369 550 z "},"¯":{"ha":556,"x_min":0,"x_max":0,"o":"m 64 850 l 490 850 l 490 989 l 64 989 z "},"°":{"ha":629,"x_min":0,"x_max":0,"o":"m 315 529 b 560 765 450 529 560 638 b 315 1006 560 897 450 1006 b 69 765 179 1006 69 897 b 315 529 69 638 179 529 z m 315 626 b 186 765 240 626 186 688 b 315 908 186 847 240 908 b 442 765 389 908 442 847 b 315 626 442 688 389 626 z "},"±":{"ha":801,"x_min":0,"x_max":0,"o":"m 301 244 l 500 244 l 500 474 l 744 474 l 744 656 l 500 656 l 500 883 l 301 883 l 301 656 l 57 656 l 57 474 l 301 474 z m 57 0 l 749 0 l 749 164 l 57 164 z "},"²":{"ha":501,"x_min":0,"x_max":0,"o":"m 353 601 l 271 601 l 356 669 b 471 846 435 733 471 775 b 256 1000 471 942 396 1000 b 28 797 119 1000 33 925 l 190 797 b 246 867 193 840 213 867 b 289 826 276 867 289 849 b 210 721 289 793 264 769 l 29 568 l 29 471 l 471 471 l 471 631 l 353 631 z "},"³":{"ha":519,"x_min":0,"x_max":0,"o":"m 258 461 b 488 629 411 461 488 529 b 382 743 488 692 444 733 b 476 856 442 760 476 797 b 260 1000 476 947 396 1000 b 36 821 117 1000 44 925 l 197 821 b 256 874 203 856 225 874 b 303 833 288 874 303 857 b 240 786 303 803 285 786 l 199 786 l 199 683 l 240 683 b 303 636 283 683 303 667 b 249 589 303 607 283 589 b 186 647 208 589 190 614 l 25 647 b 258 461 31 539 94 461 z "},"´":{"ha":556,"x_min":0,"x_max":0,"o":"m 179 810 l 357 810 l 503 1040 l 253 1040 z "},"¶":{"ha":765,"x_min":0,"x_max":0,"o":"m 356 -139 l 460 -139 l 460 904 l 563 904 l 563 -139 l 668 -139 l 668 993 l 344 993 b 39 719 165 993 39 904 b 344 457 39 543 160 457 l 356 457 z "},"·":{"ha":415,"x_min":0,"x_max":0,"o":"m 206 313 b 351 453 289 313 351 375 b 206 593 351 531 289 593 b 64 453 125 593 64 531 b 206 313 64 375 125 313 z "},"¸":{"ha":556,"x_min":0,"x_max":0,"o":"m 283 -314 b 451 -182 385 -314 451 -265 b 297 -62 451 -92 378 -54 l 340 0 l 240 0 l 174 -101 l 228 -154 b 272 -139 236 -147 250 -139 b 318 -182 301 -139 318 -157 b 274 -224 318 -206 301 -224 b 224 -185 243 -224 229 -206 l 107 -185 b 283 -314 119 -268 183 -314 z "},"¹":{"ha":421,"x_min":0,"x_max":0,"o":"m 413 471 l 413 604 l 325 604 l 325 993 l 167 993 l 26 900 l 26 751 l 140 815 l 140 604 l 38 604 l 38 471 z "},"º":{"ha":725,"x_min":0,"x_max":0,"o":"m 363 399 b 683 700 542 399 683 510 l 683 708 b 364 1004 683 894 543 1004 b 42 701 182 1004 42 890 l 42 693 b 363 399 42 504 182 399 z m 364 561 b 264 701 296 561 264 608 l 264 710 b 364 843 264 799 300 843 b 461 707 429 843 461 796 l 461 699 b 364 561 461 608 431 561 z "},"»":{"ha":667,"x_min":0,"x_max":0,"o":"m 292 97 l 451 97 l 625 363 l 451 628 l 292 628 l 458 363 z m 42 97 l 201 97 l 375 363 l 201 628 l 42 628 l 208 363 z "},"¼":{"ha":1121,"x_min":0,"x_max":0,"o":"m 108 0 l 239 0 l 1017 993 l 886 993 z m 414 471 l 414 604 l 326 604 l 326 993 l 168 993 l 28 900 l 28 751 l 142 815 l 142 604 l 39 604 l 39 471 z m 742 260 l 850 418 l 850 260 z m 1072 0 l 1072 122 l 1022 122 l 1022 161 l 1090 161 l 1090 260 l 1022 260 l 1022 522 l 807 522 l 599 236 l 599 161 l 844 161 l 844 122 l 793 122 l 793 0 z "},"½":{"ha":1135,"x_min":0,"x_max":0,"o":"m 414 471 l 414 604 l 326 604 l 326 993 l 168 993 l 28 900 l 28 751 l 142 815 l 142 604 l 39 604 l 39 471 z m 103 0 l 233 0 l 1011 993 l 881 993 z m 978 131 l 896 131 l 981 199 b 1096 375 1060 263 1096 304 b 881 529 1096 471 1021 529 b 653 326 744 529 658 454 l 815 326 b 871 396 818 369 838 396 b 914 356 901 396 914 378 b 835 250 914 322 889 299 l 654 97 l 654 0 l 1096 0 l 1096 160 l 978 160 z "},"¾":{"ha":1147,"x_min":0,"x_max":0,"o":"m 263 461 b 492 629 415 461 492 529 b 386 743 492 692 449 733 b 481 856 446 760 481 797 b 264 1000 481 947 400 1000 b 40 821 121 1000 49 925 l 201 821 b 260 874 207 856 229 874 b 307 833 292 874 307 857 b 244 786 307 803 289 786 l 203 786 l 203 683 l 244 683 b 307 636 288 683 307 667 b 253 589 307 607 288 589 b 190 647 213 589 194 614 l 29 647 b 263 461 35 539 99 461 z m 158 0 l 289 0 l 1067 993 l 936 993 z m 765 260 l 874 418 l 874 260 z m 1096 0 l 1096 122 l 1046 122 l 1046 161 l 1114 161 l 1114 260 l 1046 260 l 1046 522 l 831 522 l 622 236 l 622 161 l 868 161 l 868 122 l 817 122 l 817 0 z "},"¿":{"ha":772,"x_min":0,"x_max":0,"o":"m 421 738 b 272 600 339 738 272 676 b 421 461 272 524 339 461 b 569 600 504 461 569 524 b 421 738 569 676 504 738 z m 538 396 l 303 396 l 303 375 b 143 185 290 307 213 253 b 42 -24 88 131 42 68 b 378 -285 42 -189 163 -285 b 747 39 590 -285 740 -171 l 506 39 b 396 -83 496 -37 457 -83 b 311 0 339 -83 311 -54 b 403 136 311 49 354 90 b 538 369 467 197 538 264 z "},"À":{"ha":1064,"x_min":0,"x_max":0,"o":"m 594 467 l 408 467 l 501 789 z m 419 0 l 419 200 l 332 200 l 357 288 l 646 288 l 672 200 l 585 200 l 585 0 l 1038 0 l 1038 200 l 965 200 l 713 993 l 350 993 l 97 200 l 26 200 l 26 0 z m 447 1054 l 635 1054 l 567 1257 l 308 1257 z "},"Á":{"ha":1064,"x_min":0,"x_max":0,"o":"m 594 467 l 408 467 l 501 789 z m 419 0 l 419 200 l 332 200 l 357 288 l 646 288 l 672 200 l 585 200 l 585 0 l 1038 0 l 1038 200 l 965 200 l 713 993 l 350 993 l 97 200 l 26 200 l 26 0 z m 436 1054 l 624 1054 l 767 1257 l 507 1257 z "},"Â":{"ha":1064,"x_min":0,"x_max":0,"o":"m 594 467 l 408 467 l 501 789 z m 419 0 l 419 200 l 332 200 l 357 288 l 646 288 l 672 200 l 585 200 l 585 0 l 1038 0 l 1038 200 l 965 200 l 713 993 l 350 993 l 97 200 l 26 200 l 26 0 z m 274 1054 l 450 1054 l 531 1122 l 613 1054 l 793 1054 l 640 1257 l 432 1257 z "},"Ã":{"ha":1064,"x_min":0,"x_max":0,"o":"m 594 467 l 408 467 l 501 789 z m 419 0 l 419 200 l 332 200 l 357 288 l 646 288 l 672 200 l 585 200 l 585 0 l 1038 0 l 1038 200 l 965 200 l 713 993 l 350 993 l 97 200 l 26 200 l 26 0 z m 622 1053 b 793 1265 706 1053 783 1119 l 653 1265 b 608 1221 647 1239 633 1221 b 440 1267 563 1221 515 1267 b 271 1054 354 1267 281 1200 l 413 1054 b 456 1100 417 1081 433 1100 b 622 1053 499 1100 543 1053 z "},"Ä":{"ha":1064,"x_min":0,"x_max":0,"o":"m 594 467 l 408 467 l 501 789 z m 419 0 l 419 200 l 332 200 l 357 288 l 646 288 l 672 200 l 585 200 l 585 0 l 1038 0 l 1038 200 l 965 200 l 713 993 l 350 993 l 97 200 l 26 200 l 26 0 z m 685 1053 b 804 1168 751 1053 804 1104 b 685 1285 804 1233 751 1285 b 567 1168 618 1285 567 1233 b 685 1053 567 1104 618 1053 z m 375 1053 b 494 1168 442 1053 494 1104 b 375 1285 494 1233 442 1285 b 257 1168 310 1285 257 1233 b 375 1053 257 1104 310 1053 z "},"Å":{"ha":1064,"x_min":0,"x_max":0,"o":"m 594 467 l 408 467 l 501 789 z m 419 0 l 419 200 l 332 200 l 357 288 l 646 288 l 672 200 l 585 200 l 585 0 l 1038 0 l 1038 200 l 965 200 l 713 993 l 350 993 l 97 200 l 26 200 l 26 0 z m 531 1033 b 697 1194 622 1033 697 1107 b 531 1356 697 1283 622 1356 b 364 1194 439 1356 364 1283 b 531 1033 364 1107 439 1033 z m 531 1125 b 467 1194 492 1125 467 1154 b 531 1265 467 1236 492 1265 b 594 1194 568 1265 594 1236 b 531 1125 594 1154 568 1125 z "},"Æ":{"ha":1389,"x_min":0,"x_max":0,"o":"m 603 793 l 629 793 l 629 479 l 471 479 z m 418 0 l 418 200 l 353 200 l 396 303 l 629 303 l 629 200 l 550 200 l 550 0 l 1349 0 l 1349 307 l 1124 307 l 1124 200 l 914 200 l 914 400 l 1193 400 l 1193 603 l 914 603 l 914 793 l 1110 793 l 1110 696 l 1325 696 l 1325 993 l 289 993 l 289 793 l 367 793 l 97 200 l 25 200 l 25 0 z "},"Ç":{"ha":1050,"x_min":0,"x_max":0,"o":"m 518 -314 b 686 -182 619 -314 686 -265 b 532 -62 686 -92 613 -54 l 563 -17 b 1018 374 817 -14 1000 118 l 736 374 b 551 211 722 264 651 211 b 339 492 415 211 339 313 l 339 496 b 547 783 339 685 419 783 b 732 626 658 783 711 722 l 999 626 l 999 993 l 788 993 l 788 872 b 501 1008 749 944 667 1008 b 39 501 226 1008 39 803 l 39 490 b 467 -11 39 214 181 21 l 408 -101 l 463 -154 b 507 -139 471 -147 485 -139 b 553 -182 536 -139 553 -157 b 508 -224 553 -206 536 -224 b 458 -185 478 -224 464 -206 l 342 -185 b 518 -314 354 -268 418 -314 z "},"È":{"ha":890,"x_min":0,"x_max":0,"o":"m 33 0 l 850 0 l 850 307 l 625 307 l 625 200 l 396 200 l 396 400 l 694 400 l 694 603 l 396 603 l 396 793 l 611 793 l 611 696 l 826 696 l 826 993 l 33 993 l 33 793 l 113 793 l 113 200 l 33 200 z m 381 1054 l 568 1054 l 500 1257 l 242 1257 z "},"É":{"ha":890,"x_min":0,"x_max":0,"o":"m 33 0 l 850 0 l 850 307 l 625 307 l 625 200 l 396 200 l 396 400 l 694 400 l 694 603 l 396 603 l 396 793 l 611 793 l 611 696 l 826 696 l 826 993 l 33 993 l 33 793 l 113 793 l 113 200 l 33 200 z m 354 1054 l 542 1054 l 685 1257 l 425 1257 z "},"Ê":{"ha":890,"x_min":0,"x_max":0,"o":"m 33 0 l 850 0 l 850 307 l 625 307 l 625 200 l 396 200 l 396 400 l 694 400 l 694 603 l 396 603 l 396 793 l 611 793 l 611 696 l 826 696 l 826 993 l 33 993 l 33 793 l 113 793 l 113 200 l 33 200 z m 192 1054 l 368 1054 l 449 1122 l 531 1054 l 711 1054 l 558 1257 l 350 1257 z "},"Ë":{"ha":890,"x_min":0,"x_max":0,"o":"m 33 0 l 850 0 l 850 307 l 625 307 l 625 200 l 396 200 l 396 400 l 694 400 l 694 603 l 396 603 l 396 793 l 611 793 l 611 696 l 826 696 l 826 993 l 33 993 l 33 793 l 113 793 l 113 200 l 33 200 z m 603 1053 b 722 1168 669 1053 722 1104 b 603 1285 722 1233 669 1285 b 485 1168 536 1285 485 1233 b 603 1053 485 1104 536 1053 z m 293 1053 b 413 1168 360 1053 413 1104 b 293 1285 413 1233 360 1285 b 175 1168 228 1285 175 1233 b 293 1053 175 1104 228 1053 z "},"Ì":{"ha":526,"x_min":0,"x_max":0,"o":"m 493 0 l 493 200 l 407 200 l 407 793 l 493 793 l 493 993 l 33 993 l 33 793 l 119 793 l 119 200 l 33 200 l 33 0 z m 181 1054 l 368 1054 l 300 1257 l 42 1257 z "},"Í":{"ha":526,"x_min":0,"x_max":0,"o":"m 493 0 l 493 200 l 407 200 l 407 793 l 493 793 l 493 993 l 33 993 l 33 793 l 119 793 l 119 200 l 33 200 l 33 0 z m 168 1054 l 356 1054 l 499 1257 l 239 1257 z "},"Î":{"ha":526,"x_min":0,"x_max":0,"o":"m 493 0 l 493 200 l 407 200 l 407 793 l 493 793 l 493 993 l 33 993 l 33 793 l 119 793 l 119 200 l 33 200 l 33 0 z m 6 1054 l 182 1054 l 263 1122 l 344 1054 l 525 1054 l 372 1257 l 164 1257 z "},"Ï":{"ha":526,"x_min":0,"x_max":0,"o":"m 493 0 l 493 200 l 407 200 l 407 793 l 493 793 l 493 993 l 33 993 l 33 793 l 119 793 l 119 200 l 33 200 l 33 0 z m 418 1053 b 538 1168 485 1053 538 1104 b 418 1285 538 1233 485 1285 b 300 1168 351 1285 300 1233 b 418 1053 300 1104 351 1053 z m 108 1053 b 228 1168 175 1053 228 1104 b 108 1285 228 1233 175 1285 b -10 1168 43 1285 -10 1233 b 108 1053 -10 1104 43 1053 z "},"Ð":{"ha":1051,"x_min":0,"x_max":0,"o":"m 394 219 l 394 403 l 567 403 l 567 594 l 394 594 l 394 774 l 468 774 b 715 504 640 774 715 693 l 715 493 b 471 219 715 308 640 219 z m 33 0 l 481 0 b 1013 497 831 0 1013 188 l 1013 508 b 481 993 1013 817 833 993 l 33 993 l 33 793 l 119 793 l 119 594 l 33 594 l 33 403 l 119 403 l 119 200 l 33 200 z "},"Ñ":{"ha":1115,"x_min":0,"x_max":0,"o":"m 453 200 l 364 200 l 364 632 l 724 0 l 999 0 l 999 793 l 1085 793 l 1085 993 l 668 993 l 668 793 l 754 793 l 754 411 l 425 993 l 33 993 l 33 793 l 119 793 l 119 200 l 33 200 l 33 0 l 453 0 z m 658 1053 b 829 1265 742 1053 819 1119 l 689 1265 b 644 1221 683 1239 669 1221 b 476 1267 599 1221 551 1267 b 307 1054 390 1267 317 1200 l 449 1054 b 492 1100 453 1081 469 1100 b 658 1053 535 1100 579 1053 z "},"Ò":{"ha":1128,"x_min":0,"x_max":0,"o":"m 558 -17 b 1089 497 879 -17 1089 192 l 1089 508 b 564 1007 1089 817 867 1007 b 39 501 267 1007 39 804 l 39 490 b 558 -17 39 192 239 -17 z m 565 207 b 336 492 428 207 336 311 l 336 503 b 564 785 336 683 424 785 b 792 504 704 785 792 681 l 792 493 b 565 207 792 315 704 207 z m 479 1054 l 667 1054 l 599 1257 l 340 1257 z "},"Ó":{"ha":1128,"x_min":0,"x_max":0,"o":"m 558 -17 b 1089 497 879 -17 1089 192 l 1089 508 b 564 1007 1089 817 867 1007 b 39 501 267 1007 39 804 l 39 490 b 558 -17 39 192 239 -17 z m 565 207 b 336 492 428 207 336 311 l 336 503 b 564 785 336 683 424 785 b 792 504 704 785 792 681 l 792 493 b 565 207 792 315 704 207 z m 469 1054 l 657 1054 l 800 1257 l 540 1257 z "},"Ô":{"ha":1128,"x_min":0,"x_max":0,"o":"m 558 -17 b 1089 497 879 -17 1089 192 l 1089 508 b 564 1007 1089 817 867 1007 b 39 501 267 1007 39 804 l 39 490 b 558 -17 39 192 239 -17 z m 565 207 b 336 492 428 207 336 311 l 336 503 b 564 785 336 683 424 785 b 792 504 704 785 792 681 l 792 493 b 565 207 792 315 704 207 z m 307 1054 l 483 1054 l 564 1122 l 646 1054 l 826 1054 l 674 1257 l 465 1257 z "},"Õ":{"ha":1128,"x_min":0,"x_max":0,"o":"m 558 -17 b 1089 497 879 -17 1089 192 l 1089 508 b 564 1007 1089 817 867 1007 b 39 501 267 1007 39 804 l 39 490 b 558 -17 39 192 239 -17 z m 565 207 b 336 492 428 207 336 311 l 336 503 b 564 785 336 683 424 785 b 792 504 704 785 792 681 l 792 493 b 565 207 792 315 704 207 z m 656 1053 b 826 1265 739 1053 817 1119 l 686 1265 b 642 1221 681 1239 667 1221 b 474 1267 596 1221 549 1267 b 304 1054 388 1267 314 1200 l 446 1054 b 489 1100 450 1081 467 1100 b 656 1053 532 1100 576 1053 z "},"Ö":{"ha":1128,"x_min":0,"x_max":0,"o":"m 558 -17 b 1089 497 879 -17 1089 192 l 1089 508 b 564 1007 1089 817 867 1007 b 39 501 267 1007 39 804 l 39 490 b 558 -17 39 192 239 -17 z m 565 207 b 336 492 428 207 336 311 l 336 503 b 564 785 336 683 424 785 b 792 504 704 785 792 681 l 792 493 b 565 207 792 315 704 207 z m 718 1053 b 838 1168 785 1053 838 1104 b 718 1285 838 1233 785 1285 b 600 1168 651 1285 600 1233 b 718 1053 600 1104 651 1053 z m 408 1053 b 528 1168 475 1053 528 1104 b 408 1285 528 1233 475 1285 b 290 1168 343 1285 290 1233 b 408 1053 290 1104 343 1053 z "},"×":{"ha":801,"x_min":0,"x_max":0,"o":"m 189 125 l 400 336 l 614 121 l 747 253 l 531 467 l 743 678 l 613 810 l 400 597 l 186 814 l 56 681 l 269 467 l 58 256 z "},"Ø":{"ha":1128,"x_min":0,"x_max":0,"o":"m 332 492 l 332 503 b 564 785 332 683 422 785 b 696 746 615 785 660 771 l 349 372 b 332 492 338 407 332 447 z m 565 207 b 424 254 510 207 461 222 l 776 632 b 794 504 788 596 794 553 l 794 493 b 565 207 794 315 707 207 z m 558 -17 b 1089 497 879 -17 1089 192 l 1089 508 b 971 842 1089 644 1046 758 l 1046 922 l 947 1015 l 867 929 b 564 1007 782 979 679 1007 b 39 501 267 1007 39 804 l 39 490 b 149 158 39 358 78 244 l 60 63 l 158 -31 l 250 68 b 558 -17 332 14 436 -17 z "},"Ù":{"ha":1106,"x_min":0,"x_max":0,"o":"m 993 407 l 993 793 l 1074 793 l 1074 993 l 622 993 l 622 793 l 708 793 l 708 419 b 553 207 708 271 671 207 b 397 415 432 207 397 275 l 397 793 l 483 793 l 483 993 l 31 993 l 31 793 l 113 793 l 113 403 b 551 -17 113 125 272 -17 b 993 407 824 -17 993 118 z m 468 1054 l 656 1054 l 588 1257 l 329 1257 z "},"Ú":{"ha":1106,"x_min":0,"x_max":0,"o":"m 993 407 l 993 793 l 1074 793 l 1074 993 l 622 993 l 622 793 l 708 793 l 708 419 b 553 207 708 271 671 207 b 397 415 432 207 397 275 l 397 793 l 483 793 l 483 993 l 31 993 l 31 793 l 113 793 l 113 403 b 551 -17 113 125 272 -17 b 993 407 824 -17 993 118 z m 458 1054 l 646 1054 l 789 1257 l 529 1257 z "},"Û":{"ha":1106,"x_min":0,"x_max":0,"o":"m 993 407 l 993 793 l 1074 793 l 1074 993 l 622 993 l 622 793 l 708 793 l 708 419 b 553 207 708 271 671 207 b 397 415 432 207 397 275 l 397 793 l 483 793 l 483 993 l 31 993 l 31 793 l 113 793 l 113 403 b 551 -17 113 125 272 -17 b 993 407 824 -17 993 118 z m 296 1054 l 472 1054 l 553 1122 l 635 1054 l 815 1054 l 663 1257 l 454 1257 z "},"Ü":{"ha":1106,"x_min":0,"x_max":0,"o":"m 993 407 l 993 793 l 1074 793 l 1074 993 l 622 993 l 622 793 l 708 793 l 708 419 b 553 207 708 271 671 207 b 397 415 432 207 397 275 l 397 793 l 483 793 l 483 993 l 31 993 l 31 793 l 113 793 l 113 403 b 551 -17 113 125 272 -17 b 993 407 824 -17 993 118 z m 707 1053 b 826 1168 774 1053 826 1104 b 707 1285 826 1233 774 1285 b 589 1168 640 1285 589 1233 b 707 1053 589 1104 640 1053 z m 397 1053 b 517 1168 464 1053 517 1104 b 397 1285 517 1233 464 1285 b 279 1168 332 1285 279 1233 b 397 1053 279 1104 332 1053 z "},"Ý":{"ha":978,"x_min":0,"x_max":0,"o":"m 728 0 l 728 200 l 638 200 l 638 414 l 881 793 l 953 793 l 953 993 l 567 993 l 567 807 l 654 807 l 521 589 l 388 807 l 472 807 l 472 993 l 26 993 l 26 793 l 97 793 l 350 408 l 350 200 l 260 200 l 260 0 z m 422 1054 l 610 1054 l 753 1257 l 493 1257 z "},"Þ":{"ha":940,"x_min":0,"x_max":0,"o":"m 404 414 l 404 590 l 519 590 b 635 507 592 590 635 568 l 635 499 b 519 414 635 443 593 414 z m 493 0 l 493 182 l 404 182 l 404 258 l 599 258 b 913 499 806 258 913 340 l 913 510 b 600 743 913 669 808 743 l 404 743 l 404 811 l 493 811 l 493 993 l 33 993 l 33 793 l 119 793 l 119 200 l 33 200 l 33 0 z "},"ß":{"ha":899,"x_min":0,"x_max":0,"o":"m 547 -11 b 869 319 732 -11 869 99 l 869 331 b 625 622 869 508 756 594 b 792 818 711 646 792 711 l 792 821 b 456 1061 792 979 665 1061 b 92 742 263 1061 92 965 l 92 174 l 28 174 l 28 0 l 342 0 l 342 761 b 451 890 342 844 383 890 b 556 799 521 890 556 856 l 556 794 b 422 693 556 742 515 693 l 422 519 b 615 347 535 524 615 481 l 615 339 b 483 176 615 217 554 176 b 413 189 454 176 431 183 l 413 6 b 547 -11 439 -1 486 -11 z "},"à":{"ha":815,"x_min":0,"x_max":0,"o":"m 363 153 b 279 219 304 153 279 181 b 421 297 279 274 322 297 l 486 297 l 486 256 b 363 153 486 190 433 153 z m 492 92 l 492 0 l 796 0 l 796 174 l 732 174 l 732 471 b 406 746 732 667 604 746 b 60 485 208 746 71 661 l 293 485 b 390 571 299 532 324 571 b 486 456 467 571 486 528 l 486 440 l 417 440 b 33 201 176 440 33 378 b 276 -17 33 47 146 -17 b 492 92 393 -17 456 32 z m 333 810 l 511 810 l 438 1040 l 188 1040 z "},"á":{"ha":815,"x_min":0,"x_max":0,"o":"m 363 153 b 279 219 304 153 279 181 b 421 297 279 274 322 297 l 486 297 l 486 256 b 363 153 486 190 433 153 z m 492 92 l 492 0 l 796 0 l 796 174 l 732 174 l 732 471 b 406 746 732 667 604 746 b 60 485 208 746 71 661 l 293 485 b 390 571 299 532 324 571 b 486 456 467 571 486 528 l 486 440 l 417 440 b 33 201 176 440 33 378 b 276 -17 33 47 146 -17 b 492 92 393 -17 456 32 z m 310 810 l 488 810 l 633 1040 l 383 1040 z "},"â":{"ha":815,"x_min":0,"x_max":0,"o":"m 363 153 b 279 219 304 153 279 181 b 421 297 279 274 322 297 l 486 297 l 486 256 b 363 153 486 190 433 153 z m 492 92 l 492 0 l 796 0 l 796 174 l 732 174 l 732 471 b 406 746 732 667 604 746 b 60 485 208 746 71 661 l 293 485 b 390 571 299 532 324 571 b 486 456 467 571 486 528 l 486 440 l 417 440 b 33 201 176 440 33 378 b 276 -17 33 47 146 -17 b 492 92 393 -17 456 32 z m 150 813 l 321 813 l 404 890 l 489 813 l 663 813 l 499 1039 l 321 1039 z "},"ã":{"ha":815,"x_min":0,"x_max":0,"o":"m 363 153 b 279 219 304 153 279 181 b 421 297 279 274 322 297 l 486 297 l 486 256 b 363 153 486 190 433 153 z m 492 92 l 492 0 l 796 0 l 796 174 l 732 174 l 732 471 b 406 746 732 667 604 746 b 60 485 208 746 71 661 l 293 485 b 390 571 299 532 324 571 b 486 456 467 571 486 528 l 486 440 l 417 440 b 33 201 176 440 33 378 b 276 -17 33 47 146 -17 b 492 92 393 -17 456 32 z m 496 815 b 660 1031 579 815 649 886 l 525 1031 b 481 986 519 1004 506 986 b 315 1033 435 986 390 1033 b 156 817 229 1033 165 963 l 290 817 b 333 861 294 843 311 861 b 496 815 376 861 418 815 z "},"ä":{"ha":815,"x_min":0,"x_max":0,"o":"m 363 153 b 279 219 304 153 279 181 b 421 297 279 274 322 297 l 486 297 l 486 256 b 363 153 486 190 433 153 z m 492 92 l 492 0 l 796 0 l 796 174 l 732 174 l 732 471 b 406 746 732 667 604 746 b 60 485 208 746 71 661 l 293 485 b 390 571 299 532 324 571 b 486 456 467 571 486 528 l 486 440 l 417 440 b 33 201 176 440 33 378 b 276 -17 33 47 146 -17 b 492 92 393 -17 456 32 z m 551 806 b 671 921 618 806 671 857 b 551 1038 671 985 618 1038 b 433 921 485 1038 433 985 b 551 806 433 857 485 806 z m 256 806 b 375 921 322 806 375 857 b 256 1038 375 985 322 1038 b 138 921 190 1038 138 985 b 256 806 138 857 190 806 z "},"å":{"ha":815,"x_min":0,"x_max":0,"o":"m 363 153 b 279 219 304 153 279 181 b 421 297 279 274 322 297 l 486 297 l 486 256 b 363 153 486 190 433 153 z m 492 92 l 492 0 l 796 0 l 796 174 l 732 174 l 732 471 b 406 746 732 667 604 746 b 60 485 208 746 71 661 l 293 485 b 390 571 299 532 324 571 b 486 456 467 571 486 528 l 486 440 l 417 440 b 33 201 176 440 33 378 b 276 -17 33 47 146 -17 b 492 92 393 -17 456 32 z m 404 796 b 568 954 494 796 568 867 b 404 1114 568 1042 494 1114 b 240 954 314 1114 240 1042 b 404 796 240 867 314 796 z m 404 885 b 340 954 367 885 340 914 b 404 1024 340 994 367 1024 b 468 954 442 1024 468 994 b 404 885 468 914 442 885 z "},"æ":{"ha":1257,"x_min":0,"x_max":0,"o":"m 861 -17 b 1225 240 1079 -17 1203 76 l 992 240 b 869 154 982 192 950 154 b 724 306 782 154 732 210 l 1225 306 l 1225 371 b 860 746 1225 633 1056 746 b 628 664 768 746 689 717 b 404 746 583 721 510 746 b 57 485 207 746 68 660 l 290 485 b 390 571 296 535 322 571 b 488 456 467 571 488 526 l 488 443 l 414 443 b 29 201 172 443 29 378 b 299 -17 29 47 151 -17 b 578 110 440 -17 521 31 b 861 -17 638 28 735 -17 z m 726 444 b 860 582 736 531 788 582 b 983 444 939 582 979 532 z m 363 151 b 275 225 304 151 275 176 b 417 303 275 278 324 303 l 488 303 l 488 254 b 363 151 488 190 439 151 z "},"ç":{"ha":815,"x_min":0,"x_max":0,"o":"m 400 -314 b 568 -182 501 -314 568 -265 b 414 -62 568 -92 494 -54 l 446 -15 b 779 286 658 -6 771 111 l 554 286 b 429 165 547 207 497 165 b 286 357 333 165 286 231 l 286 369 b 425 556 286 492 338 556 b 556 446 504 556 542 511 l 774 446 l 774 726 l 582 726 l 582 624 b 367 746 556 688 492 746 b 32 371 167 746 32 593 l 32 358 b 349 -12 32 133 165 10 l 290 -101 l 344 -154 b 389 -139 353 -147 367 -139 b 435 -182 418 -139 435 -157 b 390 -224 435 -206 418 -224 b 340 -185 360 -224 346 -206 l 224 -185 b 400 -314 236 -268 300 -314 z "},"è":{"ha":826,"x_min":0,"x_max":0,"o":"m 426 -17 b 793 240 646 -17 771 76 l 561 240 b 433 154 551 192 517 154 b 283 301 344 154 290 201 l 793 301 l 793 371 b 424 746 793 632 622 746 b 32 365 206 746 32 599 l 32 354 b 426 -17 32 117 199 -17 z m 286 450 b 424 582 297 532 349 582 b 553 450 506 582 549 532 z m 354 810 l 532 810 l 458 1040 l 208 1040 z "},"é":{"ha":826,"x_min":0,"x_max":0,"o":"m 426 -17 b 793 240 646 -17 771 76 l 561 240 b 433 154 551 192 517 154 b 283 301 344 154 290 201 l 793 301 l 793 371 b 424 746 793 632 622 746 b 32 365 206 746 32 599 l 32 354 b 426 -17 32 117 199 -17 z m 286 450 b 424 582 297 532 349 582 b 553 450 506 582 549 532 z m 331 810 l 508 810 l 654 1040 l 404 1040 z "},"ê":{"ha":826,"x_min":0,"x_max":0,"o":"m 426 -17 b 793 240 646 -17 771 76 l 561 240 b 433 154 551 192 517 154 b 283 301 344 154 290 201 l 793 301 l 793 371 b 424 746 793 632 622 746 b 32 365 206 746 32 599 l 32 354 b 426 -17 32 117 199 -17 z m 286 450 b 424 582 297 532 349 582 b 553 450 506 582 549 532 z m 172 813 l 343 813 l 426 890 l 511 813 l 685 813 l 521 1039 l 343 1039 z "},"ë":{"ha":826,"x_min":0,"x_max":0,"o":"m 426 -17 b 793 240 646 -17 771 76 l 561 240 b 433 154 551 192 517 154 b 283 301 344 154 290 201 l 793 301 l 793 371 b 424 746 793 632 622 746 b 32 365 206 746 32 599 l 32 354 b 426 -17 32 117 199 -17 z m 286 450 b 424 582 297 532 349 582 b 553 450 506 582 549 532 z m 574 806 b 693 921 640 806 693 857 b 574 1038 693 985 640 1038 b 456 921 507 1038 456 985 b 574 806 456 857 507 806 z m 278 806 b 397 921 344 806 397 857 b 278 1038 397 985 344 1038 b 160 921 213 1038 160 985 b 278 806 160 857 213 806 z "},"ì":{"ha":428,"x_min":0,"x_max":0,"o":"m 407 0 l 407 174 l 340 174 l 340 726 l 26 726 l 26 547 l 93 547 l 93 174 l 28 174 l 28 0 z m 133 810 l 311 810 l 238 1040 l -12 1040 z "},"í":{"ha":428,"x_min":0,"x_max":0,"o":"m 407 0 l 407 174 l 340 174 l 340 726 l 26 726 l 26 547 l 93 547 l 93 174 l 28 174 l 28 0 z m 110 810 l 288 810 l 433 1040 l 183 1040 z "},"î":{"ha":428,"x_min":0,"x_max":0,"o":"m -22 813 l 136 813 l 206 893 l 275 813 l 438 813 l 299 1039 l 122 1039 z m 407 0 l 407 174 l 340 174 l 340 726 l 26 726 l 26 547 l 93 547 l 93 174 l 28 174 l 28 0 z "},"ï":{"ha":428,"x_min":0,"x_max":0,"o":"m 344 806 b 464 921 411 806 464 857 b 344 1038 464 985 411 1038 b 226 921 279 1038 226 985 b 344 806 226 857 279 806 z m 60 806 b 179 921 126 806 179 857 b 60 1038 179 985 126 1038 b -58 921 -6 1038 -58 985 b 60 806 -58 857 -6 806 z m 407 0 l 407 174 l 340 174 l 340 726 l 26 726 l 26 547 l 93 547 l 93 174 l 28 174 l 28 0 z "},"ð":{"ha":863,"x_min":0,"x_max":0,"o":"m 424 -17 b 826 382 665 -17 826 139 l 826 413 b 594 910 826 629 718 796 l 690 943 l 653 1043 l 499 989 b 408 1046 467 1011 436 1031 l 114 1046 b 289 915 168 1010 229 965 l 136 863 l 174 765 l 378 835 b 514 664 432 781 481 722 b 350 735 474 706 429 735 b 32 381 197 735 32 613 l 32 365 b 424 -17 32 124 200 -17 z m 431 168 b 285 361 333 168 285 236 l 285 372 b 431 560 285 494 338 560 b 574 369 525 560 574 492 l 574 358 b 431 168 574 238 524 168 z "},"ñ":{"ha":893,"x_min":0,"x_max":0,"o":"m 410 0 l 410 174 l 342 174 l 342 410 b 460 544 342 501 390 544 b 558 426 526 544 558 506 l 558 174 l 492 174 l 492 0 l 872 0 l 872 174 l 808 174 l 808 475 b 575 746 808 660 710 746 b 342 606 454 746 379 678 l 342 726 l 26 726 l 26 547 l 93 547 l 93 174 l 28 174 l 28 0 z m 540 815 b 704 1031 624 815 693 886 l 569 1031 b 525 986 564 1004 550 986 b 360 1033 479 986 435 1033 b 200 817 274 1033 210 963 l 335 817 b 378 861 339 843 356 861 b 540 815 421 861 463 815 z "},"ò":{"ha":858,"x_min":0,"x_max":0,"o":"m 429 -17 b 826 361 651 -17 826 125 l 826 372 b 431 746 826 603 654 746 b 32 365 206 746 32 599 l 32 354 b 429 -17 32 119 206 -17 z m 431 154 b 285 361 333 154 285 226 l 285 372 b 431 572 285 504 338 572 b 574 369 524 572 574 501 l 574 358 b 431 154 574 226 524 154 z m 357 810 l 535 810 l 461 1040 l 211 1040 z "},"ó":{"ha":858,"x_min":0,"x_max":0,"o":"m 429 -17 b 826 361 651 -17 826 125 l 826 372 b 431 746 826 603 654 746 b 32 365 206 746 32 599 l 32 354 b 429 -17 32 119 206 -17 z m 431 154 b 285 361 333 154 285 226 l 285 372 b 431 572 285 504 338 572 b 574 369 524 572 574 501 l 574 358 b 431 154 574 226 524 154 z m 333 810 l 511 810 l 657 1040 l 407 1040 z "},"ô":{"ha":858,"x_min":0,"x_max":0,"o":"m 429 -17 b 826 361 651 -17 826 125 l 826 372 b 431 746 826 603 654 746 b 32 365 206 746 32 599 l 32 354 b 429 -17 32 119 206 -17 z m 431 154 b 285 361 333 154 285 226 l 285 372 b 431 572 285 504 338 572 b 574 369 524 572 574 501 l 574 358 b 431 154 574 226 524 154 z m 175 813 l 346 813 l 429 890 l 514 813 l 688 813 l 524 1039 l 346 1039 z "},"õ":{"ha":858,"x_min":0,"x_max":0,"o":"m 429 -17 b 826 361 651 -17 826 125 l 826 372 b 431 746 826 603 654 746 b 32 365 206 746 32 599 l 32 354 b 429 -17 32 119 206 -17 z m 431 154 b 285 361 333 154 285 226 l 285 372 b 431 572 285 504 338 572 b 574 369 524 572 574 501 l 574 358 b 431 154 574 226 524 154 z m 519 815 b 683 1031 603 815 672 886 l 549 1031 b 504 986 543 1004 529 986 b 339 1033 458 986 414 1033 b 179 817 253 1033 189 963 l 314 817 b 357 861 318 843 335 861 b 519 815 400 861 442 815 z "},"ö":{"ha":858,"x_min":0,"x_max":0,"o":"m 429 -17 b 826 361 651 -17 826 125 l 826 372 b 431 746 826 603 654 746 b 32 365 206 746 32 599 l 32 354 b 429 -17 32 119 206 -17 z m 431 154 b 285 361 333 154 285 226 l 285 372 b 431 572 285 504 338 572 b 574 369 524 572 574 501 l 574 358 b 431 154 574 226 524 154 z m 576 806 b 696 921 643 806 696 857 b 576 1038 696 985 643 1038 b 458 921 510 1038 458 985 b 576 806 458 857 510 806 z m 281 806 b 400 921 347 806 400 857 b 281 1038 400 985 347 1038 b 163 921 215 1038 163 985 b 281 806 163 857 215 806 z "},"÷":{"ha":804,"x_min":0,"x_max":0,"o":"m 401 628 b 533 757 475 628 533 686 b 401 885 533 829 475 885 b 271 757 329 885 271 829 b 401 628 271 686 329 628 z m 57 386 l 749 386 l 749 558 l 57 558 z m 401 60 b 533 188 475 60 533 115 b 401 317 533 258 475 317 b 271 188 329 317 271 258 b 401 60 271 115 329 60 z "},"ø":{"ha":858,"x_min":0,"x_max":0,"o":"m 279 361 l 279 372 b 431 579 279 510 333 579 b 518 551 467 579 496 569 l 283 300 b 279 361 281 318 279 339 z m 431 149 b 336 182 392 149 360 160 l 574 438 b 579 369 578 417 579 394 l 579 358 b 431 149 579 222 528 149 z m 429 -17 b 826 361 651 -17 826 125 l 826 372 b 742 615 826 471 794 554 l 806 685 l 719 767 l 649 692 b 431 746 588 726 513 746 b 32 365 206 746 32 599 l 32 354 b 113 117 32 257 61 178 l 43 43 l 129 -39 l 203 40 b 429 -17 267 3 344 -17 z "},"ù":{"ha":886,"x_min":0,"x_max":0,"o":"m 549 121 l 549 0 l 865 0 l 865 174 l 799 174 l 799 726 l 482 726 l 482 547 l 549 547 l 549 318 b 433 182 549 225 500 182 b 335 301 367 182 335 221 l 335 726 l 21 726 l 21 547 l 85 547 l 85 253 b 317 -19 85 67 183 -19 b 549 121 436 -19 511 47 z m 367 810 l 544 810 l 471 1040 l 221 1040 z "},"ú":{"ha":886,"x_min":0,"x_max":0,"o":"m 549 121 l 549 0 l 865 0 l 865 174 l 799 174 l 799 726 l 482 726 l 482 547 l 549 547 l 549 318 b 433 182 549 225 500 182 b 335 301 367 182 335 221 l 335 726 l 21 726 l 21 547 l 85 547 l 85 253 b 317 -19 85 67 183 -19 b 549 121 436 -19 511 47 z m 342 810 l 519 810 l 665 1040 l 415 1040 z "},"û":{"ha":886,"x_min":0,"x_max":0,"o":"m 549 121 l 549 0 l 865 0 l 865 174 l 799 174 l 799 726 l 482 726 l 482 547 l 549 547 l 549 318 b 433 182 549 225 500 182 b 335 301 367 182 335 221 l 335 726 l 21 726 l 21 547 l 85 547 l 85 253 b 317 -19 85 67 183 -19 b 549 121 436 -19 511 47 z m 183 813 l 354 813 l 438 890 l 522 813 l 696 813 l 532 1039 l 354 1039 z "},"ü":{"ha":886,"x_min":0,"x_max":0,"o":"m 549 121 l 549 0 l 865 0 l 865 174 l 799 174 l 799 726 l 482 726 l 482 547 l 549 547 l 549 318 b 433 182 549 225 500 182 b 335 301 367 182 335 221 l 335 726 l 21 726 l 21 547 l 85 547 l 85 253 b 317 -19 85 67 183 -19 b 549 121 436 -19 511 47 z m 585 806 b 704 921 651 806 704 857 b 585 1038 704 985 651 1038 b 467 921 518 1038 467 985 b 585 806 467 857 518 806 z m 289 806 b 408 921 356 806 408 857 b 289 1038 408 985 356 1038 b 171 921 224 1038 171 985 b 289 806 171 857 224 806 z "},"ý":{"ha":849,"x_min":0,"x_max":0,"o":"m 829 547 l 829 726 l 485 726 l 485 547 l 547 547 l 447 297 l 349 547 l 417 547 l 417 726 l 21 726 l 21 547 l 88 547 l 319 47 l 267 -79 l 168 -79 l 168 -253 l 421 -253 l 760 547 z m 350 810 l 528 810 l 674 1040 l 424 1040 z "},"þ":{"ha":899,"x_min":0,"x_max":0,"o":"m 469 174 b 325 360 378 174 325 236 l 325 371 b 469 558 325 493 379 558 b 613 369 557 558 613 497 l 613 358 b 469 174 613 239 561 174 z m 407 -253 l 407 -79 l 332 -79 l 332 107 b 556 -17 368 35 447 -17 b 865 358 728 -17 865 108 l 865 369 b 557 746 865 618 726 746 b 332 618 449 746 372 688 l 332 1046 l 17 1046 l 17 867 l 83 867 l 83 -79 l 18 -79 l 18 -253 z "},"ÿ":{"ha":849,"x_min":0,"x_max":0,"o":"m 829 547 l 829 726 l 485 726 l 485 547 l 547 547 l 447 297 l 349 547 l 417 547 l 417 726 l 21 726 l 21 547 l 88 547 l 319 47 l 267 -79 l 168 -79 l 168 -253 l 421 -253 l 760 547 z m 593 806 b 713 921 660 806 713 857 b 593 1038 713 985 660 1038 b 475 921 526 1038 475 985 b 593 806 475 857 526 806 z m 297 806 b 417 921 364 806 417 857 b 297 1038 417 985 364 1038 b 179 921 232 1038 179 985 b 297 806 179 857 232 806 z "},"ı":{"ha":428,"x_min":0,"x_max":0,"o":"m 407 0 l 407 174 l 340 174 l 340 726 l 26 726 l 26 547 l 93 547 l 93 174 l 28 174 l 28 0 z "},"Ł":{"ha":878,"x_min":0,"x_max":0,"o":"m 33 0 l 844 0 l 844 357 l 619 357 l 619 201 l 406 201 l 406 446 l 656 533 l 656 685 l 406 596 l 406 793 l 504 793 l 504 993 l 33 993 l 33 793 l 119 793 l 119 494 l 36 465 l 36 315 l 119 344 l 119 200 l 33 200 z "},"ł":{"ha":428,"x_min":0,"x_max":0,"o":"m 407 0 l 407 174 l 340 174 l 340 526 l 413 564 l 413 724 l 340 688 l 340 1046 l 26 1046 l 26 858 l 93 858 l 93 561 l 19 524 l 19 363 l 93 400 l 93 174 l 28 174 l 28 0 z "},"Œ":{"ha":1378,"x_min":0,"x_max":0,"o":"m 1338 307 l 1113 307 l 1113 200 l 901 200 l 901 400 l 1182 400 l 1182 603 l 901 603 l 901 793 l 1099 793 l 1099 696 l 1314 696 l 1314 993 l 565 993 b 39 496 224 993 39 806 l 39 485 b 565 0 39 176 219 0 l 1338 0 z m 619 793 l 619 200 l 576 200 b 336 485 411 200 336 286 l 336 506 b 575 793 336 700 411 793 z "},"œ":{"ha":1364,"x_min":0,"x_max":0,"o":"m 964 -17 b 1332 240 1185 -17 1310 76 l 1099 240 b 972 154 1089 192 1054 154 b 821 301 883 154 829 208 l 1332 301 l 1332 371 b 963 746 1332 632 1161 746 b 699 636 854 746 763 707 b 431 746 635 707 542 746 b 32 365 206 746 32 599 l 32 354 b 429 -17 32 119 206 -17 b 693 88 539 -17 631 21 b 964 -17 757 19 850 -17 z m 824 450 b 963 582 836 532 888 582 b 1090 450 1043 582 1086 532 z m 431 168 b 285 361 333 168 285 236 l 285 372 b 431 560 285 494 338 560 b 574 369 524 560 574 492 l 574 358 b 431 168 574 238 524 168 z "},"Š":{"ha":882,"x_min":0,"x_max":0,"o":"m 490 -17 b 847 299 728 -17 847 119 b 475 625 847 519 708 596 b 322 725 357 642 322 674 b 433 811 322 779 363 811 b 578 694 515 811 563 765 l 807 694 l 807 993 l 599 993 l 599 913 b 372 1007 561 965 492 1007 b 54 713 181 1007 54 886 b 426 388 54 533 163 419 b 574 279 536 372 574 340 b 454 182 574 224 529 182 b 274 318 350 182 289 243 l 43 318 l 43 0 l 254 0 l 254 83 b 490 -17 297 26 382 -17 z m 335 1054 l 543 1054 l 701 1257 l 525 1257 l 443 1189 l 363 1257 l 182 1257 z "},"š":{"ha":711,"x_min":0,"x_max":0,"o":"m 406 -17 b 681 229 576 -17 681 71 b 385 469 681 388 582 446 b 267 538 296 483 267 497 b 349 600 267 579 299 600 b 479 507 415 600 465 565 l 651 507 l 651 726 l 483 726 l 483 664 b 292 744 460 704 417 744 b 36 513 135 744 36 657 b 307 276 36 378 111 301 b 440 204 403 264 440 253 b 343 133 440 160 410 133 b 213 242 265 133 219 183 l 35 242 l 35 0 l 211 0 l 211 67 b 406 -17 231 35 275 -17 z m 258 813 l 435 813 l 606 1039 l 436 1039 l 351 961 l 267 1039 l 93 1039 z "},"Ÿ":{"ha":978,"x_min":0,"x_max":0,"o":"m 728 0 l 728 200 l 638 200 l 638 414 l 881 793 l 953 793 l 953 993 l 567 993 l 567 807 l 654 807 l 521 589 l 388 807 l 472 807 l 472 993 l 26 993 l 26 793 l 97 793 l 350 408 l 350 200 l 260 200 l 260 0 z m 672 1053 b 792 1168 739 1053 792 1104 b 672 1285 792 1233 739 1285 b 554 1168 606 1285 554 1233 b 672 1053 554 1104 606 1053 z m 363 1053 b 482 1168 429 1053 482 1104 b 363 1285 482 1233 429 1285 b 244 1168 297 1285 244 1233 b 363 1053 244 1104 297 1053 z "},"Ž":{"ha":904,"x_min":0,"x_max":0,"o":"m 281 807 l 496 807 l 31 97 l 31 0 l 861 0 l 861 331 l 638 331 l 638 193 l 403 193 l 868 896 l 868 993 l 64 993 l 64 685 l 281 685 z m 365 1054 l 574 1054 l 732 1257 l 556 1257 l 474 1189 l 393 1257 l 213 1257 z "},"ž":{"ha":735,"x_min":0,"x_max":0,"o":"m 514 168 l 346 168 l 699 643 l 699 726 l 35 726 l 35 467 l 221 467 l 221 564 l 376 564 l 25 85 l 25 0 l 706 0 l 706 268 l 514 268 z m 289 813 l 465 813 l 636 1039 l 467 1039 l 382 961 l 297 1039 l 124 1039 z "},"ˆ":{"ha":556,"x_min":0,"x_max":0,"o":"m 21 813 l 192 813 l 275 890 l 360 813 l 533 813 l 369 1039 l 192 1039 z "},"ˇ":{"ha":556,"x_min":0,"x_max":0,"o":"m 186 813 l 363 813 l 533 1039 l 364 1039 l 279 961 l 194 1039 l 21 1039 z "},"˘":{"ha":556,"x_min":0,"x_max":0,"o":"m 276 815 b 506 1035 406 815 497 894 l 353 1035 b 276 968 347 994 321 968 b 204 1035 232 968 208 993 l 50 1035 b 276 815 57 894 144 815 z "},"˙":{"ha":556,"x_min":0,"x_max":0,"o":"m 278 804 b 410 929 353 804 410 857 b 278 1053 410 1000 353 1053 b 144 929 201 1053 144 1000 b 278 804 144 857 201 804 z "},"˚":{"ha":556,"x_min":0,"x_max":0,"o":"m 278 796 b 442 954 368 796 442 867 b 278 1114 442 1042 368 1114 b 114 954 188 1114 114 1042 b 278 796 114 867 188 796 z m 278 885 b 214 954 240 885 214 914 b 278 1024 214 994 240 1024 b 342 954 315 1024 342 994 b 278 885 342 914 315 885 z "},"˛":{"ha":556,"x_min":0,"x_max":0,"o":"m 276 -253 b 400 -231 331 -253 375 -242 l 400 -119 b 358 -126 389 -124 375 -126 b 317 -87 333 -126 317 -114 b 375 0 317 -57 336 -31 l 233 0 b 114 -143 174 -28 114 -74 b 276 -253 114 -214 186 -253 z "},"˜":{"ha":556,"x_min":0,"x_max":0,"o":"m 367 815 b 531 1031 450 815 519 886 l 396 1031 b 351 986 390 1004 376 986 b 186 1033 306 986 261 1033 b 26 817 100 1033 36 963 l 161 817 b 204 861 165 843 182 861 b 367 815 247 861 289 815 z "},"˝":{"ha":556,"x_min":0,"x_max":0,"o":"m 322 810 l 469 810 l 576 1040 l 382 1040 z m 75 810 l 224 810 l 331 1040 l 136 1040 z "},"–":{"ha":714,"x_min":0,"x_max":0,"o":"m 44 319 l 669 319 l 669 493 l 44 493 z "},"—":{"ha":1278,"x_min":0,"x_max":0,"o":"m 44 319 l 1233 319 l 1233 493 l 44 493 z "},"‘":{"ha":363,"x_min":0,"x_max":0,"o":"m 186 610 b 315 725 257 610 315 654 b 199 839 315 792 274 835 b 303 906 201 876 236 900 l 303 999 b 49 775 139 996 49 914 l 49 757 b 186 610 49 667 107 610 z "},"’":{"ha":363,"x_min":0,"x_max":0,"o":"m 60 615 b 315 838 224 618 315 699 l 315 856 b 176 1003 315 946 257 1003 b 49 888 107 1003 49 958 b 164 774 49 821 89 778 b 60 708 161 736 128 714 z "},"‚":{"ha":363,"x_min":0,"x_max":0,"o":"m 60 -122 b 315 100 224 -119 315 -39 l 315 118 b 176 265 315 210 257 265 b 49 150 107 265 49 221 b 164 36 49 85 89 42 b 60 -29 161 0 128 -24 z "},"“":{"ha":674,"x_min":0,"x_max":0,"o":"m 497 610 b 625 725 568 610 625 654 b 510 839 625 792 585 835 b 614 906 513 876 546 900 l 614 999 b 360 775 450 996 360 914 l 360 757 b 497 610 360 667 418 610 z m 186 610 b 315 725 257 610 315 654 b 199 839 315 792 274 835 b 303 906 201 876 236 900 l 303 999 b 49 775 139 996 49 914 l 49 757 b 186 610 49 667 107 610 z "},"”":{"ha":674,"x_min":0,"x_max":0,"o":"m 371 615 b 625 838 535 618 625 699 l 625 856 b 488 1003 625 946 568 1003 b 360 888 418 1003 360 958 b 475 774 360 821 400 778 b 371 708 472 736 439 714 z m 60 615 b 315 838 224 618 315 699 l 315 856 b 176 1003 315 946 257 1003 b 49 888 107 1003 49 958 b 164 774 49 821 89 778 b 60 708 161 736 128 714 z "},"„":{"ha":674,"x_min":0,"x_max":0,"o":"m 60 -122 b 315 100 224 -119 315 -39 l 315 118 b 176 265 315 210 257 265 b 49 150 107 265 49 221 b 164 36 49 85 89 42 b 60 -29 161 0 128 -24 z m 371 -122 b 625 100 535 -119 625 -39 l 625 118 b 488 265 625 210 568 265 b 360 150 418 265 360 221 b 475 36 360 85 400 42 b 371 -29 472 0 439 -24 z "},"†":{"ha":563,"x_min":0,"x_max":0,"o":"m 181 296 l 382 296 l 382 656 l 531 656 l 531 831 l 382 831 l 382 993 l 181 993 l 181 831 l 32 831 l 32 656 l 181 656 z "},"‡":{"ha":563,"x_min":0,"x_max":0,"o":"m 181 593 l 32 593 l 32 435 l 181 435 l 181 296 l 382 296 l 382 435 l 531 435 l 531 593 l 382 593 l 382 696 l 531 696 l 531 854 l 382 854 l 382 993 l 181 993 l 181 854 l 32 854 l 32 696 l 181 696 z "},"•":{"ha":517,"x_min":0,"x_max":0,"o":"m 258 217 b 461 421 376 217 461 308 b 258 624 461 533 376 624 b 54 421 143 624 54 533 b 258 217 54 308 143 217 z "},"…":{"ha":1240,"x_min":0,"x_max":0,"o":"m 1031 -15 b 1176 125 1114 -15 1176 47 b 1031 265 1176 203 1114 265 b 889 125 949 265 889 203 b 1031 -15 889 47 949 -15 z m 618 -15 b 764 125 701 -15 764 47 b 618 265 764 203 701 265 b 476 125 536 265 476 203 b 618 -15 476 47 536 -15 z m 206 -15 b 351 125 289 -15 351 47 b 206 265 351 203 289 265 b 64 125 125 265 64 203 b 206 -15 64 47 125 -15 z "},"‰":{"ha":1697,"x_min":0,"x_max":0,"o":"m 294 511 b 556 764 454 511 556 621 b 296 1004 556 904 443 1004 b 35 760 147 1004 35 899 b 294 511 35 618 132 511 z m 296 0 l 985 993 l 849 993 l 160 0 z m 296 656 b 217 761 246 656 217 694 b 296 863 217 824 246 863 b 374 760 346 863 374 824 b 296 656 374 696 346 656 z m 1403 -17 b 1664 236 1561 -17 1664 93 b 1403 476 1664 376 1551 476 b 1142 232 1254 476 1142 371 b 1403 -17 1142 90 1240 -17 z m 840 -17 b 1101 236 1000 -17 1101 93 b 842 476 1101 376 989 476 b 581 232 693 476 581 371 b 840 -17 581 90 678 -17 z m 1403 128 b 1324 233 1354 128 1324 167 b 1403 335 1324 296 1354 335 b 1482 233 1454 335 1482 296 b 1403 128 1482 168 1454 128 z m 842 128 b 763 233 792 128 763 167 b 842 335 763 296 792 335 b 919 233 892 335 919 296 b 842 128 919 168 892 128 z "},"‹":{"ha":426,"x_min":0,"x_max":0,"o":"m 215 97 l 385 97 l 218 363 l 385 628 l 215 628 l 43 363 z "},"›":{"ha":426,"x_min":0,"x_max":0,"o":"m 42 97 l 210 97 l 383 363 l 210 628 l 42 628 l 208 363 z "},"⁄":{"ha":233,"x_min":0,"x_max":0,"o":"m -337 0 l -207 0 l 571 993 l 440 993 z "},"€":{"ha":1006,"x_min":0,"x_max":0,"o":"m 961 364 l 700 364 b 550 203 688 257 643 203 b 394 363 457 203 410 261 l 564 363 l 581 461 l 389 461 l 389 526 l 593 526 l 610 624 l 394 624 b 549 793 410 728 457 793 b 704 640 649 793 685 732 l 949 640 l 949 993 l 750 993 l 750 879 b 511 1007 722 939 657 1007 b 118 624 283 1007 146 849 l 32 624 l 32 526 l 113 526 l 113 461 l 32 461 l 32 363 l 118 363 b 543 -17 147 140 290 -17 b 961 364 800 -17 933 124 z "},"™":{"ha":1183,"x_min":0,"x_max":0,"o":"m 744 650 l 711 650 l 711 817 l 814 547 l 861 547 l 965 817 l 965 650 l 933 650 l 933 547 l 1153 547 l 1153 650 l 1111 650 l 1111 889 l 1153 889 l 1153 993 l 929 993 l 847 767 l 768 993 l 546 993 l 546 889 l 588 889 l 588 650 l 546 650 l 546 547 l 744 547 z m 390 547 l 390 650 l 346 650 l 346 888 l 403 888 l 403 825 l 508 825 l 508 993 l 33 993 l 33 825 l 139 825 l 139 888 l 196 888 l 196 650 l 151 650 l 151 547 z "},"−":{"ha":804,"x_min":0,"x_max":0,"o":"m 57 376 l 749 376 l 749 568 l 57 568 z "},"≈":{"ha":813,"x_min":0,"x_max":0,"o":"m 57 475 l 200 475 b 263 536 206 513 228 536 b 564 481 332 536 450 481 b 757 726 661 481 750 560 l 613 726 b 550 665 608 688 585 665 b 251 721 482 665 364 721 b 57 475 154 721 67 650 z m 57 168 l 200 168 b 263 229 206 207 228 229 b 564 174 332 229 450 174 b 757 421 661 174 750 254 l 613 421 b 550 360 608 381 585 360 b 251 415 482 360 364 415 b 57 168 154 415 67 343 z "},"≠":{"ha":782,"x_min":0,"x_max":0,"o":"m 724 232 l 724 401 l 453 401 l 493 504 l 724 504 l 724 675 l 558 675 l 610 808 l 449 808 l 397 675 l 58 675 l 58 504 l 332 504 l 292 401 l 58 401 l 58 232 l 226 232 l 175 99 l 336 99 l 388 232 z "},"≤":{"ha":713,"x_min":0,"x_max":0,"o":"m 643 199 l 643 422 l 413 536 l 643 650 l 643 872 l 58 558 l 58 511 z m 58 0 l 643 0 l 643 164 l 58 164 z "},"≥":{"ha":713,"x_min":0,"x_max":0,"o":"m 68 199 l 654 511 l 654 558 l 68 872 l 68 650 l 299 536 l 68 422 z m 68 0 l 654 0 l 654 164 l 68 164 z "},"Đ":{"ha":1051,"x_min":0,"x_max":0,"o":"m 396 219 l 396 403 l 567 403 l 567 594 l 396 594 l 396 774 l 469 774 b 715 504 642 774 715 693 l 715 493 b 472 219 715 308 642 219 z m 33 0 l 481 0 b 1013 497 831 0 1013 188 l 1013 508 b 481 993 1013 817 835 993 l 33 993 l 33 793 l 121 793 l 121 594 l 33 594 l 33 403 l 121 403 l 121 200 l 33 200 z "},"Ŋ":{"ha":1093,"x_min":0,"x_max":0,"o":"m 656 -267 b 990 32 876 -267 990 -149 l 990 793 l 1076 793 l 1076 993 l 657 993 l 657 793 l 738 793 l 738 415 l 429 993 l 17 993 l 17 793 l 103 793 l 103 200 l 17 200 l 17 0 l 440 0 l 440 200 l 357 200 l 357 649 l 707 21 b 593 -53 694 -29 653 -53 b 504 -39 556 -53 528 -47 l 504 -240 b 656 -267 533 -254 581 -267 z "},"Ĳ":{"ha":1185,"x_min":0,"x_max":0,"o":"m 718 -12 b 1065 349 949 -12 1065 110 l 1065 793 l 1151 793 l 1151 993 l 681 993 l 681 793 l 779 793 l 779 351 b 653 214 779 249 728 214 b 547 226 608 214 579 218 l 547 14 b 718 -12 583 -1 640 -12 z m 489 0 l 489 200 l 408 200 l 408 793 l 494 793 l 494 993 l 33 993 l 33 793 l 119 793 l 119 200 l 33 200 l 33 0 z "},"đ":{"ha":903,"x_min":0,"x_max":0,"o":"m 428 172 b 288 358 340 172 288 235 l 288 369 b 431 560 288 497 338 560 b 572 371 522 560 572 494 l 572 360 b 428 172 572 236 518 172 z m 565 118 l 565 0 l 879 0 l 879 174 l 815 174 l 815 800 l 893 800 l 893 932 l 815 932 l 815 1046 l 565 1046 l 565 932 l 351 932 l 351 800 l 565 800 l 565 624 b 342 746 525 697 457 746 b 33 367 171 746 33 614 l 33 356 b 340 -17 33 104 172 -17 b 565 118 450 -17 529 43 z "},"ŋ":{"ha":879,"x_min":0,"x_max":0,"o":"m 475 -256 b 811 6 739 -256 811 -151 l 811 472 b 576 746 811 658 714 746 b 342 607 454 746 379 681 l 342 726 l 26 726 l 26 547 l 93 547 l 93 174 l 28 174 l 28 0 l 407 0 l 407 174 l 342 174 l 342 410 b 461 544 342 501 390 544 b 561 424 529 544 561 506 l 561 11 b 475 -75 561 -46 538 -71 z "},"ĳ":{"ha":844,"x_min":0,"x_max":0,"o":"m 215 794 b 353 925 293 794 353 850 b 215 1054 353 999 293 1054 b 76 925 136 1054 76 999 b 215 794 76 850 136 794 z m 407 0 l 407 174 l 340 174 l 340 726 l 26 726 l 26 547 l 93 547 l 93 174 l 28 174 l 28 0 z m 639 794 b 776 925 717 794 776 850 b 639 1054 776 999 717 1054 b 501 925 560 1054 501 999 b 639 794 501 850 560 794 z m 764 6 l 764 726 l 450 726 l 450 547 l 517 547 l 517 11 b 428 -75 517 -46 489 -71 l 428 -256 b 764 6 690 -256 764 -151 z "},"Ă":{"ha":1064,"x_min":0,"x_max":0,"o":"m 594 467 l 408 467 l 501 789 z m 419 0 l 419 200 l 332 200 l 357 288 l 646 288 l 672 200 l 585 200 l 585 0 l 1038 0 l 1038 200 l 965 200 l 713 993 l 350 993 l 97 200 l 26 200 l 26 0 z m 529 1044 b 761 1257 661 1044 750 1125 l 601 1257 b 529 1193 596 1218 569 1193 b 461 1257 489 1193 465 1218 l 300 1257 b 529 1044 308 1125 393 1044 z "},"Ā":{"ha":1064,"x_min":0,"x_max":0,"o":"m 594 467 l 408 467 l 501 789 z m 419 0 l 419 200 l 332 200 l 357 288 l 646 288 l 672 200 l 585 200 l 585 0 l 1038 0 l 1038 200 l 965 200 l 713 993 l 350 993 l 97 200 l 26 200 l 26 0 z m 308 1071 l 756 1071 l 756 1219 l 308 1219 z "},"Ą":{"ha":1064,"x_min":0,"x_max":0,"o":"m 594 467 l 408 467 l 501 789 z m 856 -231 l 856 -119 b 814 -126 843 -124 831 -126 b 771 -87 788 -126 771 -114 b 831 0 771 -57 790 -26 l 1038 0 l 1038 200 l 965 200 l 713 993 l 350 993 l 97 200 l 26 200 l 26 0 l 419 0 l 419 200 l 332 200 l 357 288 l 646 288 l 710 69 b 569 -122 626 21 569 -43 b 738 -253 569 -215 644 -253 b 856 -231 793 -253 831 -242 z "},"Ǻ":{"ha":1064,"x_min":0,"x_max":0,"o":"m 419 0 l 419 200 l 332 200 l 357 288 l 646 288 l 672 200 l 585 200 l 585 0 l 1038 0 l 1038 200 l 965 200 l 713 993 l 658 993 b 697 1096 682 1021 697 1057 b 531 1257 697 1185 622 1257 b 364 1096 439 1257 364 1185 b 403 993 364 1057 378 1021 l 350 993 l 97 200 l 26 200 l 26 0 z m 436 1290 l 624 1290 l 767 1493 l 507 1493 z m 594 467 l 408 467 l 501 789 z m 531 1026 b 467 1096 492 1026 467 1056 b 531 1167 467 1138 492 1167 b 594 1096 568 1167 594 1138 b 531 1026 594 1056 568 1026 z "},"Ǽ":{"ha":1389,"x_min":0,"x_max":0,"o":"m 603 793 l 629 793 l 629 479 l 471 479 z m 418 0 l 418 200 l 353 200 l 396 303 l 629 303 l 629 200 l 550 200 l 550 0 l 1349 0 l 1349 307 l 1124 307 l 1124 200 l 914 200 l 914 400 l 1193 400 l 1193 603 l 914 603 l 914 793 l 1110 793 l 1110 696 l 1325 696 l 1325 993 l 289 993 l 289 793 l 367 793 l 97 200 l 25 200 l 25 0 z m 710 1054 l 897 1054 l 1040 1257 l 781 1257 z "},"Ć":{"ha":1050,"x_min":0,"x_max":0,"o":"m 1018 374 l 736 374 b 551 211 722 264 651 211 b 339 492 415 211 339 313 l 339 496 b 547 783 339 685 419 783 b 732 626 658 783 711 722 l 999 626 l 999 993 l 788 993 l 788 872 b 501 1008 749 944 667 1008 b 39 501 226 1008 39 803 l 39 490 b 557 -17 39 186 210 -17 b 1018 374 814 -17 1000 117 z m 457 1054 l 644 1054 l 788 1257 l 528 1257 z "},"Č":{"ha":1050,"x_min":0,"x_max":0,"o":"m 1018 374 l 736 374 b 551 211 722 264 651 211 b 339 492 415 211 339 313 l 339 496 b 547 783 339 685 419 783 b 732 626 658 783 711 722 l 999 626 l 999 993 l 788 993 l 788 872 b 501 1008 749 944 667 1008 b 39 501 226 1008 39 803 l 39 490 b 557 -17 39 186 210 -17 b 1018 374 814 -17 1000 117 z m 444 1054 l 653 1054 l 811 1257 l 635 1257 l 553 1189 l 472 1257 l 292 1257 z "},"Ĉ":{"ha":1050,"x_min":0,"x_max":0,"o":"m 1018 374 l 736 374 b 551 211 722 264 651 211 b 339 492 415 211 339 313 l 339 496 b 547 783 339 685 419 783 b 732 626 658 783 711 722 l 999 626 l 999 993 l 788 993 l 788 872 b 501 1008 749 944 667 1008 b 39 501 226 1008 39 803 l 39 490 b 557 -17 39 186 210 -17 b 1018 374 814 -17 1000 117 z m 294 1054 l 471 1054 l 551 1122 l 633 1054 l 814 1054 l 661 1257 l 453 1257 z "},"Ċ":{"ha":1050,"x_min":0,"x_max":0,"o":"m 1018 374 l 736 374 b 551 211 722 264 651 211 b 339 492 415 211 339 313 l 339 496 b 547 783 339 685 419 783 b 732 626 658 783 711 722 l 999 626 l 999 993 l 788 993 l 788 872 b 501 1008 749 944 667 1008 b 39 501 226 1008 39 803 l 39 490 b 557 -17 39 186 210 -17 b 1018 374 814 -17 1000 117 z m 553 1051 b 685 1176 628 1051 685 1106 b 553 1300 685 1247 628 1300 b 421 1176 478 1300 421 1247 b 553 1051 421 1106 478 1051 z "},"Ď":{"ha":1051,"x_min":0,"x_max":0,"o":"m 406 219 l 406 774 l 468 774 b 715 504 640 774 715 693 l 715 493 b 471 219 715 308 640 219 z m 33 0 l 481 0 b 1013 497 831 0 1013 188 l 1013 508 b 481 993 1013 817 833 993 l 33 993 l 33 793 l 119 793 l 119 200 l 33 200 z m 393 1054 l 601 1054 l 760 1257 l 583 1257 l 501 1189 l 421 1257 l 240 1257 z "},"Ĕ":{"ha":890,"x_min":0,"x_max":0,"o":"m 33 0 l 850 0 l 850 307 l 625 307 l 625 200 l 396 200 l 396 400 l 694 400 l 694 603 l 396 603 l 396 793 l 611 793 l 611 696 l 826 696 l 826 993 l 33 993 l 33 793 l 113 793 l 113 200 l 33 200 z m 447 1044 b 679 1257 579 1044 668 1125 l 519 1257 b 447 1193 514 1218 488 1193 b 379 1257 407 1193 383 1218 l 218 1257 b 447 1044 226 1125 311 1044 z "},"Ě":{"ha":890,"x_min":0,"x_max":0,"o":"m 33 0 l 850 0 l 850 307 l 625 307 l 625 200 l 396 200 l 396 400 l 694 400 l 694 603 l 396 603 l 396 793 l 611 793 l 611 696 l 826 696 l 826 993 l 33 993 l 33 793 l 113 793 l 113 200 l 33 200 z m 342 1054 l 550 1054 l 708 1257 l 532 1257 l 450 1189 l 369 1257 l 189 1257 z "},"Ė":{"ha":890,"x_min":0,"x_max":0,"o":"m 33 0 l 850 0 l 850 307 l 625 307 l 625 200 l 396 200 l 396 400 l 694 400 l 694 603 l 396 603 l 396 793 l 611 793 l 611 696 l 826 696 l 826 993 l 33 993 l 33 793 l 113 793 l 113 200 l 33 200 z m 449 1051 b 581 1176 524 1051 581 1106 b 449 1300 581 1247 524 1300 b 317 1176 374 1300 317 1247 b 449 1051 317 1106 374 1051 z "},"Ē":{"ha":890,"x_min":0,"x_max":0,"o":"m 33 0 l 850 0 l 850 307 l 625 307 l 625 200 l 396 200 l 396 400 l 694 400 l 694 603 l 396 603 l 396 793 l 611 793 l 611 696 l 826 696 l 826 993 l 33 993 l 33 793 l 113 793 l 113 200 l 33 200 z m 225 1071 l 672 1071 l 672 1219 l 225 1219 z "},"Ę":{"ha":890,"x_min":0,"x_max":0,"o":"m 33 0 l 590 0 b 471 -143 531 -28 471 -74 b 633 -253 471 -214 543 -253 b 757 -231 688 -253 732 -242 l 757 -119 b 715 -126 746 -124 732 -126 b 674 -87 690 -126 674 -114 b 732 0 674 -57 693 -31 l 850 0 l 850 307 l 625 307 l 625 200 l 396 200 l 396 400 l 694 400 l 694 603 l 396 603 l 396 793 l 611 793 l 611 696 l 826 696 l 826 993 l 33 993 l 33 793 l 113 793 l 113 200 l 33 200 z "},"Ğ":{"ha":1113,"x_min":0,"x_max":0,"o":"m 810 0 l 1043 0 l 1043 551 l 579 551 l 579 349 l 771 349 b 568 200 764 281 710 200 b 335 486 396 200 335 324 l 335 497 b 561 785 335 676 421 785 b 751 643 671 785 729 733 l 1018 643 l 1018 993 l 806 993 l 806 874 b 515 1008 763 950 676 1008 b 39 501 232 1008 39 796 l 39 490 b 515 -17 39 193 208 -17 b 810 128 678 -17 774 57 z m 558 1044 b 790 1257 690 1044 779 1125 l 631 1257 b 558 1193 625 1218 599 1193 b 490 1257 518 1193 494 1218 l 329 1257 b 558 1044 338 1125 422 1044 z "},"Ĝ":{"ha":1113,"x_min":0,"x_max":0,"o":"m 810 0 l 1043 0 l 1043 551 l 579 551 l 579 349 l 771 349 b 568 200 764 281 710 200 b 335 486 396 200 335 324 l 335 497 b 561 785 335 676 421 785 b 751 643 671 785 729 733 l 1018 643 l 1018 993 l 806 993 l 806 874 b 515 1008 763 950 676 1008 b 39 501 232 1008 39 796 l 39 490 b 515 -17 39 193 208 -17 b 810 128 678 -17 774 57 z m 301 1054 l 478 1054 l 558 1122 l 640 1054 l 821 1054 l 668 1257 l 460 1257 z "},"Ģ":{"ha":1113,"x_min":0,"x_max":0,"o":"m 810 0 l 1043 0 l 1043 551 l 579 551 l 579 349 l 771 349 b 568 200 764 281 710 200 b 335 486 396 200 335 324 l 335 497 b 561 785 335 676 421 785 b 751 643 671 785 729 733 l 1018 643 l 1018 993 l 806 993 l 806 874 b 515 1008 763 950 676 1008 b 39 501 232 1008 39 796 l 39 490 b 515 -17 39 193 208 -17 b 810 128 678 -17 774 57 z m 425 -317 b 629 -161 567 -314 629 -254 l 629 -151 b 517 -46 629 -82 585 -46 b 418 -125 458 -46 418 -76 b 518 -197 418 -178 456 -201 b 425 -243 515 -226 485 -240 z "},"Ġ":{"ha":1113,"x_min":0,"x_max":0,"o":"m 810 0 l 1043 0 l 1043 551 l 579 551 l 579 349 l 771 349 b 568 200 764 281 710 200 b 335 486 396 200 335 324 l 335 497 b 561 785 335 676 421 785 b 751 643 671 785 729 733 l 1018 643 l 1018 993 l 806 993 l 806 874 b 515 1008 763 950 676 1008 b 39 501 232 1008 39 796 l 39 490 b 515 -17 39 193 208 -17 b 810 128 678 -17 774 57 z m 560 1051 b 692 1176 635 1051 692 1106 b 560 1300 692 1247 635 1300 b 428 1176 485 1300 428 1247 b 560 1051 428 1106 485 1051 z "},"Ħ":{"ha":1136,"x_min":0,"x_max":0,"o":"m 406 576 l 406 644 l 732 644 l 732 576 z m 504 0 l 504 200 l 406 200 l 406 403 l 732 403 l 732 200 l 633 200 l 633 0 l 1104 0 l 1104 200 l 1017 200 l 1017 644 l 1106 644 l 1106 739 l 1017 739 l 1017 803 l 1104 803 l 1104 993 l 633 993 l 633 803 l 732 803 l 732 739 l 406 739 l 406 803 l 504 803 l 504 993 l 33 993 l 33 803 l 119 803 l 119 739 l 32 739 l 32 644 l 119 644 l 119 200 l 33 200 l 33 0 z "},"Ĥ":{"ha":1132,"x_min":0,"x_max":0,"o":"m 506 0 l 506 200 l 406 200 l 406 399 l 728 399 l 728 200 l 626 200 l 626 0 l 1099 0 l 1099 200 l 1013 200 l 1013 793 l 1099 793 l 1099 993 l 626 993 l 626 793 l 728 793 l 728 603 l 406 603 l 406 793 l 506 793 l 506 993 l 33 993 l 33 793 l 119 793 l 119 200 l 33 200 l 33 0 z m 310 1054 l 486 1054 l 567 1122 l 649 1054 l 829 1054 l 676 1257 l 468 1257 z "},"Ĭ":{"ha":526,"x_min":0,"x_max":0,"o":"m 493 0 l 493 200 l 407 200 l 407 793 l 493 793 l 493 993 l 33 993 l 33 793 l 119 793 l 119 200 l 33 200 l 33 0 z m 261 1044 b 493 1257 393 1044 482 1125 l 333 1257 b 261 1193 328 1218 301 1193 b 193 1257 221 1193 197 1218 l 32 1257 b 261 1044 40 1125 125 1044 z "},"İ":{"ha":526,"x_min":0,"x_max":0,"o":"m 493 0 l 493 200 l 407 200 l 407 793 l 493 793 l 493 993 l 33 993 l 33 793 l 119 793 l 119 200 l 33 200 l 33 0 z m 264 1051 b 396 1176 339 1051 396 1106 b 264 1300 396 1247 339 1300 b 132 1176 189 1300 132 1247 b 264 1051 132 1106 189 1051 z "},"Ī":{"ha":526,"x_min":0,"x_max":0,"o":"m 493 0 l 493 200 l 407 200 l 407 793 l 493 793 l 493 993 l 33 993 l 33 793 l 119 793 l 119 200 l 33 200 l 33 0 z m 40 1071 l 488 1071 l 488 1219 l 40 1219 z "},"Į":{"ha":526,"x_min":0,"x_max":0,"o":"m 493 0 l 493 200 l 407 200 l 407 793 l 493 793 l 493 993 l 33 993 l 33 793 l 119 793 l 119 200 l 33 200 l 33 0 l 285 0 b 165 -143 225 -28 165 -74 b 326 -253 165 -214 238 -253 b 451 -231 382 -253 426 -242 l 451 -119 b 410 -126 439 -124 426 -126 b 367 -87 383 -126 367 -114 b 426 0 367 -57 388 -31 z "},"Ĩ":{"ha":526,"x_min":0,"x_max":0,"o":"m 493 0 l 493 200 l 407 200 l 407 793 l 493 793 l 493 993 l 33 993 l 33 793 l 119 793 l 119 200 l 33 200 l 33 0 z m 356 1053 b 526 1265 439 1053 517 1119 l 386 1265 b 342 1221 381 1239 367 1221 b 174 1267 296 1221 249 1267 b 4 1054 88 1267 14 1200 l 146 1054 b 189 1100 150 1081 167 1100 b 356 1053 232 1100 276 1053 z "},"Ĵ":{"ha":699,"x_min":0,"x_max":0,"o":"m 218 -12 b 579 349 457 -12 579 110 l 579 793 l 665 793 l 665 993 l 193 993 l 193 793 l 293 793 l 293 351 b 158 214 293 249 240 214 b 33 235 99 214 67 224 l 33 24 b 218 -12 74 3 121 -12 z m 174 1054 l 350 1054 l 431 1122 l 513 1054 l 693 1054 l 540 1257 l 332 1257 z "},"Ķ":{"ha":1019,"x_min":0,"x_max":0,"o":"m 483 200 l 406 200 l 406 421 l 711 0 l 990 0 l 990 200 l 915 200 l 654 542 l 889 793 l 981 793 l 981 993 l 563 993 l 563 793 l 651 793 l 406 532 l 406 793 l 479 793 l 479 993 l 33 993 l 33 793 l 119 793 l 119 200 l 33 200 l 33 0 l 483 0 z m 438 -317 b 642 -161 579 -314 642 -254 l 642 -151 b 529 -46 642 -82 597 -46 b 431 -125 471 -46 431 -76 b 531 -197 431 -178 468 -201 b 438 -243 528 -226 497 -240 z "},"Ĺ":{"ha":878,"x_min":0,"x_max":0,"o":"m 33 0 l 844 0 l 844 357 l 619 357 l 619 201 l 406 201 l 406 793 l 504 793 l 504 993 l 33 993 l 33 793 l 119 793 l 119 200 l 33 200 z m 164 1054 l 351 1054 l 494 1257 l 235 1257 z "},"Ľ":{"ha":878,"x_min":0,"x_max":0,"o":"m 554 746 l 682 746 l 749 993 l 564 993 z m 33 0 l 844 0 l 844 357 l 619 357 l 619 201 l 406 201 l 406 793 l 504 793 l 504 993 l 33 993 l 33 793 l 119 793 l 119 200 l 33 200 z "},"Ļ":{"ha":878,"x_min":0,"x_max":0,"o":"m 33 0 l 844 0 l 844 357 l 619 357 l 619 201 l 406 201 l 406 793 l 504 793 l 504 993 l 33 993 l 33 793 l 119 793 l 119 200 l 33 200 z m 328 -317 b 532 -161 469 -314 532 -254 l 532 -151 b 419 -46 532 -82 488 -46 b 321 -125 361 -46 321 -76 b 421 -197 321 -178 358 -201 b 328 -243 418 -226 388 -240 z "},"Ŀ":{"ha":878,"x_min":0,"x_max":0,"o":"m 742 426 b 869 550 815 426 869 482 b 742 674 869 618 815 674 b 617 550 669 674 617 618 b 742 426 617 482 669 426 z m 33 0 l 844 0 l 844 333 l 619 333 l 619 201 l 406 201 l 406 793 l 504 793 l 504 993 l 33 993 l 33 793 l 119 793 l 119 200 l 33 200 z "},"Ń":{"ha":1115,"x_min":0,"x_max":0,"o":"m 453 200 l 364 200 l 364 632 l 724 0 l 999 0 l 999 793 l 1085 793 l 1085 993 l 668 993 l 668 793 l 754 793 l 754 411 l 425 993 l 33 993 l 33 793 l 119 793 l 119 200 l 33 200 l 33 0 l 453 0 z m 472 1054 l 660 1054 l 803 1257 l 543 1257 z "},"Ň":{"ha":1115,"x_min":0,"x_max":0,"o":"m 453 200 l 364 200 l 364 632 l 724 0 l 999 0 l 999 793 l 1085 793 l 1085 993 l 668 993 l 668 793 l 754 793 l 754 411 l 425 993 l 33 993 l 33 793 l 119 793 l 119 200 l 33 200 l 33 0 l 453 0 z m 460 1054 l 668 1054 l 826 1257 l 650 1257 l 568 1189 l 488 1257 l 307 1257 z "},"Ņ":{"ha":1115,"x_min":0,"x_max":0,"o":"m 453 200 l 364 200 l 364 632 l 724 0 l 999 0 l 999 793 l 1085 793 l 1085 993 l 668 993 l 668 793 l 754 793 l 754 411 l 425 993 l 33 993 l 33 793 l 119 793 l 119 200 l 33 200 l 33 0 l 453 0 z m 458 -317 b 663 -161 600 -314 663 -254 l 663 -151 b 550 -46 663 -82 618 -46 b 451 -125 492 -46 451 -76 b 551 -197 451 -178 489 -201 b 458 -243 549 -226 518 -240 z "},"Ŏ":{"ha":1128,"x_min":0,"x_max":0,"o":"m 558 -17 b 1089 497 879 -17 1089 192 l 1089 508 b 564 1007 1089 817 867 1007 b 39 501 267 1007 39 804 l 39 490 b 558 -17 39 192 239 -17 z m 565 207 b 336 492 428 207 336 311 l 336 503 b 564 785 336 683 424 785 b 792 504 704 785 792 681 l 792 493 b 565 207 792 315 704 207 z m 563 1044 b 794 1257 694 1044 783 1125 l 635 1257 b 563 1193 629 1218 603 1193 b 494 1257 522 1193 499 1218 l 333 1257 b 563 1044 342 1125 426 1044 z "},"Ő":{"ha":1128,"x_min":0,"x_max":0,"o":"m 558 -17 b 1089 497 879 -17 1089 192 l 1089 508 b 564 1007 1089 817 867 1007 b 39 501 267 1007 39 804 l 39 490 b 558 -17 39 192 239 -17 z m 565 207 b 336 492 428 207 336 311 l 336 503 b 564 785 336 683 424 785 b 792 504 704 785 792 681 l 792 493 b 565 207 792 315 704 207 z m 629 1054 l 794 1054 l 899 1257 l 685 1257 z m 358 1054 l 525 1054 l 628 1257 l 415 1257 z "},"Ō":{"ha":1128,"x_min":0,"x_max":0,"o":"m 558 -17 b 1089 497 879 -17 1089 192 l 1089 508 b 564 1007 1089 817 867 1007 b 39 501 267 1007 39 804 l 39 490 b 558 -17 39 192 239 -17 z m 565 207 b 336 492 428 207 336 311 l 336 503 b 564 785 336 683 424 785 b 792 504 704 785 792 681 l 792 493 b 565 207 792 315 704 207 z m 340 1071 l 788 1071 l 788 1219 l 340 1219 z "},"Ǿ":{"ha":1128,"x_min":0,"x_max":0,"o":"m 332 492 l 332 503 b 564 785 332 683 422 785 b 696 746 615 785 660 771 l 349 372 b 332 492 338 407 332 447 z m 565 207 b 424 254 510 207 461 222 l 776 632 b 794 504 788 596 794 553 l 794 493 b 565 207 794 315 707 207 z m 558 -17 b 1089 497 879 -17 1089 192 l 1089 508 b 971 842 1089 644 1046 758 l 1046 922 l 947 1015 l 867 929 b 564 1007 782 979 679 1007 b 39 501 267 1007 39 804 l 39 490 b 149 158 39 358 78 244 l 60 63 l 158 -31 l 250 68 b 558 -17 332 14 436 -17 z m 469 1054 l 657 1054 l 800 1257 l 540 1257 z "},"Ŕ":{"ha":989,"x_min":0,"x_max":0,"o":"m 404 553 l 404 793 l 496 793 b 638 682 588 793 638 760 l 638 675 b 494 553 638 593 590 553 z m 481 0 l 481 200 l 404 200 l 404 368 l 472 368 l 694 0 l 963 0 l 963 200 l 885 200 l 736 426 b 913 679 838 464 913 546 l 913 685 b 511 993 913 894 771 993 l 33 993 l 33 793 l 119 793 l 119 200 l 33 200 l 33 0 z m 385 1054 l 572 1054 l 715 1257 l 456 1257 z "},"Ř":{"ha":989,"x_min":0,"x_max":0,"o":"m 404 553 l 404 793 l 496 793 b 638 682 588 793 638 760 l 638 675 b 494 553 638 593 590 553 z m 481 0 l 481 200 l 404 200 l 404 368 l 472 368 l 694 0 l 963 0 l 963 200 l 885 200 l 736 426 b 913 679 838 464 913 546 l 913 685 b 511 993 913 894 771 993 l 33 993 l 33 793 l 119 793 l 119 200 l 33 200 l 33 0 z m 374 1054 l 582 1054 l 740 1257 l 564 1257 l 482 1189 l 401 1257 l 221 1257 z "},"Ŗ":{"ha":1000,"x_min":0,"x_max":0,"o":"m 404 553 l 404 793 l 496 793 b 638 682 588 793 638 760 l 638 675 b 494 553 638 593 590 553 z m 481 0 l 481 200 l 404 200 l 404 368 l 472 368 l 694 0 l 963 0 l 963 200 l 885 200 l 736 426 b 913 679 838 464 913 546 l 913 685 b 511 993 913 894 771 993 l 33 993 l 33 793 l 119 793 l 119 200 l 33 200 l 33 0 z m 411 -317 b 615 -161 553 -314 615 -254 l 615 -151 b 503 -46 615 -82 571 -46 b 404 -125 444 -46 404 -76 b 504 -197 404 -178 442 -201 b 411 -243 501 -226 471 -240 z "},"Ś":{"ha":882,"x_min":0,"x_max":0,"o":"m 490 -17 b 847 299 728 -17 847 119 b 475 625 847 519 708 596 b 322 725 357 642 322 674 b 433 811 322 779 363 811 b 578 694 515 811 563 765 l 807 694 l 807 993 l 599 993 l 599 913 b 372 1007 561 965 492 1007 b 54 713 181 1007 54 886 b 426 388 54 533 163 419 b 574 279 536 372 574 340 b 454 182 574 224 529 182 b 274 318 350 182 289 243 l 43 318 l 43 0 l 254 0 l 254 83 b 490 -17 297 26 382 -17 z m 347 1054 l 535 1054 l 678 1257 l 418 1257 z "},"Ş":{"ha":882,"x_min":0,"x_max":0,"o":"m 490 -17 b 847 299 728 -17 847 119 b 475 625 847 519 708 596 b 322 725 357 642 322 674 b 433 811 322 779 363 811 b 578 694 515 811 563 765 l 807 694 l 807 993 l 599 993 l 599 913 b 372 1007 561 965 492 1007 b 54 713 181 1007 54 886 b 426 388 54 533 163 419 b 574 279 536 372 574 340 b 454 182 574 224 529 182 b 274 318 350 182 289 243 l 43 318 l 43 0 l 254 0 l 254 83 b 385 -1 282 46 326 15 l 319 -101 l 374 -154 b 418 -139 382 -147 396 -139 b 464 -182 449 -139 464 -157 b 419 -224 464 -206 449 -224 b 369 -185 389 -224 375 -206 l 253 -185 b 429 -314 265 -268 329 -314 b 597 -182 531 -314 597 -265 b 443 -62 597 -92 524 -54 l 475 -17 z "},"Ŝ":{"ha":882,"x_min":0,"x_max":0,"o":"m 490 -17 b 847 299 728 -17 847 119 b 475 625 847 519 708 596 b 322 725 357 642 322 674 b 433 811 322 779 363 811 b 578 694 515 811 563 765 l 807 694 l 807 993 l 599 993 l 599 913 b 372 1007 561 965 492 1007 b 54 713 181 1007 54 886 b 426 388 54 533 163 419 b 574 279 536 372 574 340 b 454 182 574 224 529 182 b 274 318 350 182 289 243 l 43 318 l 43 0 l 254 0 l 254 83 b 490 -17 297 26 382 -17 z m 185 1054 l 361 1054 l 442 1122 l 524 1054 l 704 1054 l 551 1257 l 343 1257 z "},"Ș":{"ha":882,"x_min":0,"x_max":0,"o":"m 490 -17 b 847 299 728 -17 847 119 b 475 625 847 519 708 596 b 322 725 357 642 322 674 b 433 811 322 779 363 811 b 578 694 515 811 563 765 l 807 694 l 807 993 l 599 993 l 599 913 b 372 1007 561 965 492 1007 b 54 713 181 1007 54 886 b 426 388 54 533 163 419 b 574 279 536 372 574 340 b 454 182 574 224 529 182 b 274 318 350 182 289 243 l 43 318 l 43 0 l 254 0 l 254 83 b 490 -17 297 26 382 -17 z m 343 -317 b 547 -161 485 -314 547 -254 l 547 -151 b 435 -46 547 -82 503 -46 b 336 -125 376 -46 336 -76 b 436 -197 336 -178 374 -201 b 343 -243 433 -226 403 -240 z "},"Ť":{"ha":1028,"x_min":0,"x_max":0,"o":"m 751 0 l 751 200 l 657 200 l 657 792 l 783 792 l 783 650 l 990 650 l 990 993 l 38 993 l 38 650 l 243 650 l 243 792 l 371 792 l 371 200 l 275 200 l 275 0 z m 407 1054 l 615 1054 l 774 1257 l 597 1257 l 515 1189 l 435 1257 l 254 1257 z "},"Ţ":{"ha":1028,"x_min":0,"x_max":0,"o":"m 751 0 l 751 200 l 657 200 l 657 792 l 783 792 l 783 650 l 990 650 l 990 993 l 38 993 l 38 650 l 243 650 l 243 792 l 371 792 l 371 200 l 275 200 l 275 0 z m 415 -317 b 619 -161 557 -314 619 -254 l 619 -151 b 507 -46 619 -82 575 -46 b 408 -125 449 -46 408 -76 b 508 -197 408 -178 446 -201 b 415 -243 506 -226 475 -240 z "},"Ŧ":{"ha":1028,"x_min":0,"x_max":0,"o":"m 754 0 l 754 200 l 660 200 l 660 385 l 835 385 l 835 563 l 660 563 l 660 792 l 786 792 l 786 650 l 993 650 l 993 993 l 40 993 l 40 650 l 246 650 l 246 792 l 374 792 l 374 563 l 199 563 l 199 385 l 374 385 l 374 200 l 278 200 l 278 0 z "},"Ŭ":{"ha":1106,"x_min":0,"x_max":0,"o":"m 993 407 l 993 793 l 1074 793 l 1074 993 l 622 993 l 622 793 l 708 793 l 708 419 b 553 207 708 271 671 207 b 397 415 432 207 397 275 l 397 793 l 483 793 l 483 993 l 31 993 l 31 793 l 113 793 l 113 403 b 551 -17 113 125 272 -17 b 993 407 824 -17 993 118 z m 551 1044 b 783 1257 683 1044 772 1125 l 624 1257 b 551 1193 618 1218 592 1193 b 483 1257 511 1193 488 1218 l 322 1257 b 551 1044 331 1125 415 1044 z "},"Ű":{"ha":1106,"x_min":0,"x_max":0,"o":"m 993 407 l 993 793 l 1074 793 l 1074 993 l 622 993 l 622 793 l 708 793 l 708 419 b 553 207 708 271 671 207 b 397 415 432 207 397 275 l 397 793 l 483 793 l 483 993 l 31 993 l 31 793 l 113 793 l 113 403 b 551 -17 113 125 272 -17 b 993 407 824 -17 993 118 z m 619 1054 l 785 1054 l 889 1257 l 675 1257 z m 349 1054 l 515 1054 l 618 1257 l 406 1257 z "},"Ū":{"ha":1106,"x_min":0,"x_max":0,"o":"m 993 407 l 993 793 l 1074 793 l 1074 993 l 622 993 l 622 793 l 708 793 l 708 419 b 553 207 708 271 671 207 b 397 415 432 207 397 275 l 397 793 l 483 793 l 483 993 l 31 993 l 31 793 l 113 793 l 113 403 b 551 -17 113 125 272 -17 b 993 407 824 -17 993 118 z m 329 1071 l 776 1071 l 776 1219 l 329 1219 z "},"Ų":{"ha":1106,"x_min":0,"x_max":0,"o":"m 754 -231 l 754 -119 b 714 -126 743 -124 731 -126 b 671 -87 688 -126 671 -114 b 794 32 671 -36 733 0 b 993 407 919 101 993 215 l 993 793 l 1074 793 l 1074 993 l 622 993 l 622 793 l 708 793 l 708 419 b 553 207 708 271 671 207 b 397 415 432 207 397 275 l 397 793 l 483 793 l 483 993 l 31 993 l 31 793 l 113 793 l 113 403 b 551 -17 113 125 272 -17 l 556 -17 b 468 -143 508 -46 468 -86 b 631 -253 468 -214 540 -253 b 754 -231 686 -253 731 -242 z "},"Ů":{"ha":1106,"x_min":0,"x_max":0,"o":"m 993 407 l 993 793 l 1074 793 l 1074 993 l 622 993 l 622 793 l 708 793 l 708 419 b 553 207 708 271 671 207 b 397 415 432 207 397 275 l 397 793 l 483 793 l 483 993 l 31 993 l 31 793 l 113 793 l 113 403 b 551 -17 113 125 272 -17 b 993 407 824 -17 993 118 z m 554 1019 b 721 1181 646 1019 721 1093 b 554 1342 721 1269 646 1342 b 388 1181 463 1342 388 1269 b 554 1019 388 1093 463 1019 z m 554 1111 b 490 1181 515 1111 490 1140 b 554 1251 490 1222 515 1251 b 618 1181 592 1251 618 1222 b 554 1111 618 1140 592 1111 z "},"Ũ":{"ha":1106,"x_min":0,"x_max":0,"o":"m 993 407 l 993 793 l 1074 793 l 1074 993 l 622 993 l 622 793 l 708 793 l 708 419 b 553 207 708 271 671 207 b 397 415 432 207 397 275 l 397 793 l 483 793 l 483 993 l 31 993 l 31 793 l 113 793 l 113 403 b 551 -17 113 125 272 -17 b 993 407 824 -17 993 118 z m 644 1053 b 815 1265 728 1053 806 1119 l 675 1265 b 631 1221 669 1239 656 1221 b 463 1267 585 1221 538 1267 b 293 1054 376 1267 303 1200 l 435 1054 b 478 1100 439 1081 456 1100 b 644 1053 521 1100 565 1053 z "},"Ẃ":{"ha":1438,"x_min":0,"x_max":0,"o":"m 728 617 l 881 0 l 1150 0 l 1344 793 l 1411 793 l 1411 993 l 1021 993 l 1021 793 l 1106 793 l 1010 338 l 853 993 l 618 993 l 476 338 l 383 793 l 460 793 l 460 993 l 26 993 l 26 793 l 96 793 l 289 0 l 574 0 z m 638 1054 l 825 1054 l 968 1257 l 708 1257 z "},"Ŵ":{"ha":1438,"x_min":0,"x_max":0,"o":"m 728 617 l 881 0 l 1150 0 l 1344 793 l 1411 793 l 1411 993 l 1021 993 l 1021 793 l 1106 793 l 1010 338 l 853 993 l 618 993 l 476 338 l 383 793 l 460 793 l 460 993 l 26 993 l 26 793 l 96 793 l 289 0 l 574 0 z m 475 1054 l 651 1054 l 732 1122 l 814 1054 l 994 1054 l 842 1257 l 633 1257 z "},"Ẅ":{"ha":1438,"x_min":0,"x_max":0,"o":"m 728 617 l 881 0 l 1150 0 l 1344 793 l 1411 793 l 1411 993 l 1021 993 l 1021 793 l 1106 793 l 1010 338 l 853 993 l 618 993 l 476 338 l 383 793 l 460 793 l 460 993 l 26 993 l 26 793 l 96 793 l 289 0 l 574 0 z m 888 1053 b 1007 1168 954 1053 1007 1104 b 888 1285 1007 1233 954 1285 b 769 1168 821 1285 769 1233 b 888 1053 769 1104 821 1053 z m 578 1053 b 697 1168 644 1053 697 1104 b 578 1285 697 1233 644 1285 b 460 1168 513 1285 460 1233 b 578 1053 460 1104 513 1053 z "},"Ẁ":{"ha":1438,"x_min":0,"x_max":0,"o":"m 728 617 l 881 0 l 1150 0 l 1344 793 l 1411 793 l 1411 993 l 1021 993 l 1021 793 l 1106 793 l 1010 338 l 853 993 l 618 993 l 476 338 l 383 793 l 460 793 l 460 993 l 26 993 l 26 793 l 96 793 l 289 0 l 574 0 z m 650 1054 l 838 1054 l 769 1257 l 511 1257 z "},"Ŷ":{"ha":978,"x_min":0,"x_max":0,"o":"m 728 0 l 728 200 l 638 200 l 638 414 l 881 793 l 953 793 l 953 993 l 567 993 l 567 807 l 654 807 l 521 589 l 388 807 l 472 807 l 472 993 l 26 993 l 26 793 l 97 793 l 350 408 l 350 200 l 260 200 l 260 0 z m 260 1054 l 436 1054 l 517 1122 l 599 1054 l 779 1054 l 626 1257 l 418 1257 z "},"Ỳ":{"ha":978,"x_min":0,"x_max":0,"o":"m 728 0 l 728 200 l 638 200 l 638 414 l 881 793 l 953 793 l 953 993 l 567 993 l 567 807 l 654 807 l 521 589 l 388 807 l 472 807 l 472 993 l 26 993 l 26 793 l 97 793 l 350 408 l 350 200 l 260 200 l 260 0 z m 438 1054 l 625 1054 l 557 1257 l 299 1257 z "},"Ź":{"ha":904,"x_min":0,"x_max":0,"o":"m 281 807 l 496 807 l 31 97 l 31 0 l 861 0 l 861 331 l 638 331 l 638 193 l 403 193 l 868 896 l 868 993 l 64 993 l 64 685 l 281 685 z m 378 1054 l 565 1054 l 708 1257 l 449 1257 z "},"Ż":{"ha":904,"x_min":0,"x_max":0,"o":"m 281 807 l 496 807 l 31 97 l 31 0 l 861 0 l 861 331 l 638 331 l 638 193 l 403 193 l 868 896 l 868 993 l 64 993 l 64 685 l 281 685 z m 474 1051 b 606 1176 549 1051 606 1106 b 474 1300 606 1247 549 1300 b 342 1176 399 1300 342 1247 b 474 1051 342 1106 399 1051 z "},"ă":{"ha":815,"x_min":0,"x_max":0,"o":"m 363 153 b 279 219 304 153 279 181 b 421 297 279 274 322 297 l 486 297 l 486 256 b 363 153 486 190 433 153 z m 492 92 l 492 0 l 796 0 l 796 174 l 732 174 l 732 471 b 406 746 732 667 604 746 b 60 485 208 746 71 661 l 293 485 b 390 571 299 532 324 571 b 486 456 467 571 486 528 l 486 440 l 417 440 b 33 201 176 440 33 378 b 276 -17 33 47 146 -17 b 492 92 393 -17 456 32 z m 403 815 b 632 1035 532 815 624 894 l 479 1035 b 403 968 474 994 447 968 b 331 1035 358 968 335 993 l 176 1035 b 403 815 183 894 271 815 z "},"ā":{"ha":815,"x_min":0,"x_max":0,"o":"m 363 153 b 279 219 304 153 279 181 b 421 297 279 274 322 297 l 486 297 l 486 256 b 363 153 486 190 433 153 z m 492 92 l 492 0 l 796 0 l 796 174 l 732 174 l 732 471 b 406 746 732 667 604 746 b 60 485 208 746 71 661 l 293 485 b 390 571 299 532 324 571 b 486 456 467 571 486 528 l 486 440 l 417 440 b 33 201 176 440 33 378 b 276 -17 33 47 146 -17 b 492 92 393 -17 456 32 z m 192 850 l 618 850 l 618 989 l 192 989 z "},"ą":{"ha":815,"x_min":0,"x_max":0,"o":"m 535 -253 b 658 -231 589 -253 633 -242 l 658 -119 b 617 -126 647 -124 633 -126 b 575 -87 592 -126 575 -114 b 633 0 575 -57 594 -31 l 796 0 l 796 174 l 732 174 l 732 471 b 406 746 732 667 604 746 b 60 485 208 746 71 661 l 293 485 b 390 571 299 532 324 571 b 486 456 467 571 486 528 l 486 440 l 417 440 b 33 201 176 440 33 378 b 276 -17 33 47 146 -17 b 492 92 393 -17 456 32 l 492 0 b 372 -143 432 -28 372 -74 b 535 -253 372 -214 444 -253 z m 363 153 b 279 219 304 153 279 181 b 421 297 279 274 322 297 l 486 297 l 486 256 b 363 153 486 190 433 153 z "},"ǻ":{"ha":815,"x_min":0,"x_max":0,"o":"m 363 153 b 279 219 304 153 279 181 b 421 297 279 274 322 297 l 486 297 l 486 256 b 363 153 486 190 433 153 z m 492 92 l 492 0 l 796 0 l 796 174 l 732 174 l 732 471 b 406 746 732 667 604 746 b 60 485 208 746 71 661 l 293 485 b 390 571 299 532 324 571 b 486 456 467 571 486 528 l 486 440 l 417 440 b 33 201 176 440 33 378 b 276 -17 33 47 146 -17 b 492 92 393 -17 456 32 z m 404 782 b 568 940 494 782 568 853 b 404 1100 568 1028 494 1100 b 240 940 314 1100 240 1028 b 404 782 240 853 314 782 z m 404 871 b 340 940 367 871 340 900 b 404 1010 340 981 367 1010 b 468 940 442 1010 468 981 b 404 871 468 900 442 871 z m 310 1150 l 497 1150 l 640 1353 l 381 1353 z "},"ǽ":{"ha":1257,"x_min":0,"x_max":0,"o":"m 861 -17 b 1225 240 1079 -17 1203 76 l 992 240 b 869 154 982 192 950 154 b 724 306 782 154 732 210 l 1225 306 l 1225 371 b 860 746 1225 633 1056 746 b 628 664 768 746 689 717 b 404 746 583 721 510 746 b 57 485 207 746 68 660 l 290 485 b 390 571 296 535 322 571 b 488 456 467 571 488 526 l 488 443 l 414 443 b 29 201 172 443 29 378 b 299 -17 29 47 151 -17 b 578 110 440 -17 521 31 b 861 -17 638 28 735 -17 z m 726 444 b 860 582 736 531 788 582 b 983 444 939 582 979 532 z m 363 151 b 275 225 304 151 275 176 b 417 303 275 278 324 303 l 488 303 l 488 254 b 363 151 488 190 439 151 z m 550 810 l 728 810 l 874 1040 l 624 1040 z "},"ć":{"ha":815,"x_min":0,"x_max":0,"o":"m 582 624 b 367 746 556 688 492 746 b 32 371 167 746 32 593 l 32 358 b 414 -17 32 108 197 -17 b 779 286 647 -17 771 103 l 554 286 b 429 165 547 207 497 165 b 286 357 333 165 286 231 l 286 369 b 425 556 286 492 338 556 b 556 446 504 556 542 511 l 774 446 l 774 726 l 582 726 z m 336 810 l 514 810 l 660 1040 l 410 1040 z "},"č":{"ha":815,"x_min":0,"x_max":0,"o":"m 582 624 b 367 746 556 688 492 746 b 32 371 167 746 32 593 l 32 358 b 414 -17 32 108 197 -17 b 779 286 647 -17 771 103 l 554 286 b 429 165 547 207 497 165 b 286 357 333 165 286 231 l 286 369 b 425 556 286 492 338 556 b 556 446 504 556 542 511 l 774 446 l 774 726 l 582 726 z m 336 813 l 513 813 l 683 1039 l 514 1039 l 429 961 l 344 1039 l 171 1039 z "},"ĉ":{"ha":815,"x_min":0,"x_max":0,"o":"m 582 624 b 367 746 556 688 492 746 b 32 371 167 746 32 593 l 32 358 b 414 -17 32 108 197 -17 b 779 286 647 -17 771 103 l 554 286 b 429 165 547 207 497 165 b 286 357 333 165 286 231 l 286 369 b 425 556 286 492 338 556 b 556 446 504 556 542 511 l 774 446 l 774 726 l 582 726 z m 174 813 l 344 813 l 428 890 l 513 813 l 686 813 l 522 1039 l 344 1039 z "},"ċ":{"ha":815,"x_min":0,"x_max":0,"o":"m 582 624 b 367 746 556 688 492 746 b 32 371 167 746 32 593 l 32 358 b 414 -17 32 108 197 -17 b 779 286 647 -17 771 103 l 554 286 b 429 165 547 207 497 165 b 286 357 333 165 286 231 l 286 369 b 425 556 286 492 338 556 b 556 446 504 556 542 511 l 774 446 l 774 726 l 582 726 z m 429 804 b 561 929 504 804 561 857 b 429 1053 561 1000 504 1053 b 296 929 353 1053 296 1000 b 429 804 296 857 353 804 z "},"ď":{"ha":903,"x_min":0,"x_max":0,"o":"m 428 172 b 288 358 340 172 288 235 l 288 369 b 431 560 288 497 338 560 b 572 371 522 560 572 494 l 572 360 b 428 172 572 236 518 172 z m 565 118 l 565 0 l 879 0 l 879 174 l 815 174 l 815 1046 l 496 1046 l 496 867 l 565 867 l 565 624 b 342 746 525 697 457 746 b 33 367 171 746 33 614 l 33 356 b 340 -17 33 104 172 -17 b 565 118 450 -17 529 43 z m 849 804 l 978 804 l 1046 1046 l 861 1046 z "},"ĕ":{"ha":826,"x_min":0,"x_max":0,"o":"m 426 -17 b 793 240 646 -17 771 76 l 561 240 b 433 154 551 192 517 154 b 283 301 344 154 290 201 l 793 301 l 793 371 b 424 746 793 632 622 746 b 32 365 206 746 32 599 l 32 354 b 426 -17 32 117 199 -17 z m 286 450 b 424 582 297 532 349 582 b 553 450 506 582 549 532 z m 425 815 b 654 1035 554 815 646 894 l 501 1035 b 425 968 496 994 469 968 b 353 1035 381 968 357 993 l 199 1035 b 425 815 206 894 293 815 z "},"ě":{"ha":826,"x_min":0,"x_max":0,"o":"m 426 -17 b 793 240 646 -17 771 76 l 561 240 b 433 154 551 192 517 154 b 283 301 344 154 290 201 l 793 301 l 793 371 b 424 746 793 632 622 746 b 32 365 206 746 32 599 l 32 354 b 426 -17 32 117 199 -17 z m 286 450 b 424 582 297 532 349 582 b 553 450 506 582 549 532 z m 335 813 l 511 813 l 682 1039 l 513 1039 l 428 961 l 343 1039 l 169 1039 z "},"ė":{"ha":826,"x_min":0,"x_max":0,"o":"m 426 -17 b 793 240 646 -17 771 76 l 561 240 b 433 154 551 192 517 154 b 283 301 344 154 290 201 l 793 301 l 793 371 b 424 746 793 632 622 746 b 32 365 206 746 32 599 l 32 354 b 426 -17 32 117 199 -17 z m 286 450 b 424 582 297 532 349 582 b 553 450 506 582 549 532 z m 426 804 b 558 929 501 804 558 857 b 426 1053 558 1000 501 1053 b 293 929 350 1053 293 1000 b 426 804 293 857 350 804 z "},"ē":{"ha":826,"x_min":0,"x_max":0,"o":"m 426 -17 b 793 240 646 -17 771 76 l 561 240 b 433 154 551 192 517 154 b 283 301 344 154 290 201 l 793 301 l 793 371 b 424 746 793 632 622 746 b 32 365 206 746 32 599 l 32 354 b 426 -17 32 117 199 -17 z m 286 450 b 424 582 297 532 349 582 b 553 450 506 582 549 532 z m 213 850 l 639 850 l 639 989 l 213 989 z "},"ę":{"ha":826,"x_min":0,"x_max":0,"o":"m 500 -253 b 625 -231 556 -253 600 -242 l 625 -119 b 583 -126 613 -124 600 -126 b 540 -87 557 -126 540 -114 b 672 43 540 -32 615 4 b 793 240 747 96 782 157 l 561 240 b 433 154 551 192 517 154 b 283 301 344 154 290 201 l 793 301 l 793 371 b 424 746 793 632 622 746 b 32 365 206 746 32 599 l 32 354 b 422 -17 32 117 201 -17 l 425 -17 b 339 -143 378 -46 339 -86 b 500 -253 339 -214 411 -253 z m 286 450 b 424 582 297 532 349 582 b 553 450 506 582 549 532 z "},"ğ":{"ha":897,"x_min":0,"x_max":0,"o":"m 429 219 b 288 383 340 219 288 283 l 288 394 b 431 560 288 494 338 560 b 572 396 522 560 572 496 l 572 386 b 429 219 572 283 518 219 z m 413 -269 b 815 61 671 -269 814 -156 l 815 547 l 879 547 l 879 726 l 565 726 l 565 624 b 342 746 525 697 457 746 b 33 396 171 746 33 610 l 33 385 b 342 44 33 167 172 44 b 565 169 450 44 529 100 l 565 58 b 413 -94 565 -32 522 -94 b 279 -3 322 -94 290 -53 l 39 -3 b 413 -269 57 -168 172 -269 z m 451 815 b 681 1035 581 815 672 894 l 528 1035 b 451 968 522 994 496 968 b 379 1035 407 968 383 993 l 225 1035 b 451 815 232 894 319 815 z "},"ĝ":{"ha":897,"x_min":0,"x_max":0,"o":"m 429 219 b 288 383 340 219 288 283 l 288 394 b 431 560 288 494 338 560 b 572 396 522 560 572 496 l 572 386 b 429 219 572 283 518 219 z m 413 -269 b 815 61 671 -269 814 -156 l 815 547 l 879 547 l 879 726 l 565 726 l 565 624 b 342 746 525 697 457 746 b 33 396 171 746 33 610 l 33 385 b 342 44 33 167 172 44 b 565 169 450 44 529 100 l 565 58 b 413 -94 565 -32 522 -94 b 279 -3 322 -94 290 -53 l 39 -3 b 413 -269 57 -168 172 -269 z m 199 813 l 369 813 l 453 890 l 538 813 l 711 813 l 547 1039 l 369 1039 z "},"ģ":{"ha":897,"x_min":0,"x_max":0,"o":"m 429 219 b 288 383 340 219 288 283 l 288 394 b 431 560 288 494 338 560 b 572 396 522 560 572 496 l 572 386 b 429 219 572 283 518 219 z m 413 -269 b 815 61 671 -269 814 -156 l 815 547 l 879 547 l 879 726 l 565 726 l 565 624 b 342 746 525 697 457 746 b 33 396 171 746 33 610 l 33 385 b 342 44 33 167 172 44 b 565 169 450 44 529 100 l 565 58 b 413 -94 565 -32 522 -94 b 279 -3 322 -94 290 -53 l 39 -3 b 413 -269 57 -168 172 -269 z m 551 1069 b 347 914 410 1067 347 1007 l 347 904 b 460 799 347 833 392 799 b 558 878 518 799 558 828 b 458 950 558 931 521 954 b 551 996 461 979 492 993 z "},"ġ":{"ha":897,"x_min":0,"x_max":0,"o":"m 429 219 b 288 383 340 219 288 283 l 288 394 b 431 560 288 494 338 560 b 572 396 522 560 572 496 l 572 386 b 429 219 572 283 518 219 z m 413 -269 b 815 61 671 -269 814 -156 l 815 547 l 879 547 l 879 726 l 565 726 l 565 624 b 342 746 525 697 457 746 b 33 396 171 746 33 610 l 33 385 b 342 44 33 167 172 44 b 565 169 450 44 529 100 l 565 58 b 413 -94 565 -32 522 -94 b 279 -3 322 -94 290 -53 l 39 -3 b 413 -269 57 -168 172 -269 z m 453 804 b 585 929 528 804 585 857 b 453 1053 585 1000 528 1053 b 319 929 376 1053 319 1000 b 453 804 319 857 376 804 z "},"ħ":{"ha":893,"x_min":0,"x_max":0,"o":"m 407 0 l 407 174 l 342 174 l 342 410 b 460 544 342 501 390 544 b 558 426 526 544 558 506 l 558 174 l 493 174 l 493 0 l 872 0 l 872 174 l 808 174 l 808 475 b 575 746 808 660 710 746 b 342 606 454 746 379 678 l 342 800 l 550 800 l 550 932 l 342 932 l 342 1046 l 93 1046 l 93 932 l 14 932 l 14 800 l 93 800 l 93 174 l 28 174 l 28 0 z "},"ĥ":{"ha":893,"x_min":0,"x_max":0,"o":"m 407 0 l 407 174 l 342 174 l 342 410 b 460 544 342 501 390 544 b 558 426 526 544 558 506 l 558 174 l 493 174 l 493 0 l 872 0 l 872 174 l 808 174 l 808 475 b 575 746 808 660 710 746 b 342 606 454 746 379 678 l 342 1046 l 26 1046 l 26 867 l 93 867 l 93 174 l 28 174 l 28 0 z m 189 1093 l 365 1093 l 446 1161 l 528 1093 l 708 1093 l 556 1296 l 347 1296 z "},"ĭ":{"ha":428,"x_min":0,"x_max":0,"o":"m 407 0 l 407 174 l 340 174 l 340 726 l 26 726 l 26 547 l 93 547 l 93 174 l 28 174 l 28 0 z m 204 815 b 433 1035 333 815 425 894 l 281 1035 b 204 968 275 994 249 968 b 132 1035 160 968 136 993 l -22 1035 b 204 815 -15 894 72 815 z "},"ī":{"ha":428,"x_min":0,"x_max":0,"o":"m 7 850 l 388 850 l 388 989 l 7 989 z m 407 0 l 407 174 l 340 174 l 340 726 l 26 726 l 26 547 l 93 547 l 93 174 l 28 174 l 28 0 z "},"į":{"ha":428,"x_min":0,"x_max":0,"o":"m 407 0 l 407 174 l 340 174 l 340 726 l 26 726 l 26 547 l 93 547 l 93 174 l 28 174 l 28 0 l 210 0 b 90 -143 150 -28 90 -74 b 253 -253 90 -214 163 -253 b 376 -231 307 -253 351 -242 l 376 -119 b 335 -126 365 -124 351 -126 b 293 -87 310 -126 293 -114 b 351 0 293 -57 313 -31 z m 215 794 b 353 925 293 794 353 850 b 215 1054 353 999 293 1054 b 76 925 136 1054 76 999 b 215 794 76 850 136 794 z "},"ĩ":{"ha":428,"x_min":0,"x_max":0,"o":"m 407 0 l 407 174 l 340 174 l 340 726 l 26 726 l 26 547 l 93 547 l 93 174 l 28 174 l 28 0 z m 296 815 b 460 1031 379 815 449 886 l 325 1031 b 281 986 319 1004 306 986 b 115 1033 235 986 190 1033 b -44 817 29 1033 -35 963 l 90 817 b 133 861 94 843 111 861 b 296 815 176 861 218 815 z "},"ĵ":{"ha":417,"x_min":0,"x_max":0,"o":"m -21 813 l 138 813 l 207 893 l 276 813 l 438 813 l 300 1039 l 122 1039 z m 340 6 l 340 726 l 26 726 l 26 547 l 93 547 l 93 11 b 4 -75 93 -46 65 -71 l 4 -256 b 340 6 267 -256 340 -151 z "},"ķ":{"ha":842,"x_min":0,"x_max":0,"o":"m 399 174 l 342 174 l 342 313 l 582 0 l 819 0 l 819 174 l 743 174 l 572 388 l 731 553 l 806 553 l 806 726 l 429 726 l 429 567 l 529 567 l 342 390 l 342 1046 l 26 1046 l 26 867 l 93 867 l 93 174 l 28 174 l 28 0 l 399 0 z m 333 -317 b 538 -161 475 -314 538 -254 l 538 -151 b 425 -46 538 -82 493 -46 b 326 -125 367 -46 326 -76 b 426 -197 326 -178 364 -201 b 333 -243 424 -226 393 -240 z "},"ĺ":{"ha":428,"x_min":0,"x_max":0,"o":"m 407 0 l 407 174 l 340 174 l 340 1046 l 26 1046 l 26 867 l 93 867 l 93 174 l 28 174 l 28 0 z m 119 1093 l 307 1093 l 450 1296 l 190 1296 z "},"ľ":{"ha":428,"x_min":0,"x_max":0,"o":"m 407 0 l 407 174 l 340 174 l 340 1046 l 26 1046 l 26 867 l 93 867 l 93 174 l 28 174 l 28 0 z m 375 804 l 504 804 l 572 1046 l 388 1046 z "},"ļ":{"ha":428,"x_min":0,"x_max":0,"o":"m 407 0 l 407 174 l 340 174 l 340 1046 l 26 1046 l 26 867 l 93 867 l 93 174 l 28 174 l 28 0 z m 115 -317 b 319 -161 257 -314 319 -254 l 319 -151 b 207 -46 319 -82 275 -46 b 108 -125 149 -46 108 -76 b 208 -197 108 -178 146 -201 b 115 -243 206 -226 175 -240 z "},"ŀ":{"ha":597,"x_min":0,"x_max":0,"o":"m 407 0 l 407 174 l 340 174 l 340 1046 l 26 1046 l 26 867 l 93 867 l 93 174 l 28 174 l 28 0 z m 514 407 b 642 531 588 407 642 463 b 514 653 642 599 588 653 b 390 531 444 653 390 599 b 514 407 390 463 444 407 z "},"ń":{"ha":893,"x_min":0,"x_max":0,"o":"m 410 0 l 410 174 l 342 174 l 342 410 b 460 544 342 501 390 544 b 558 426 526 544 558 506 l 558 174 l 492 174 l 492 0 l 872 0 l 872 174 l 808 174 l 808 475 b 575 746 808 660 710 746 b 342 606 454 746 379 678 l 342 726 l 26 726 l 26 547 l 93 547 l 93 174 l 28 174 l 28 0 z m 354 810 l 532 810 l 678 1040 l 428 1040 z "},"ŉ":{"ha":1082,"x_min":0,"x_max":0,"o":"m 600 0 l 600 174 l 532 174 l 532 410 b 650 544 532 501 581 544 b 749 426 717 544 749 506 l 749 174 l 682 174 l 682 0 l 1063 0 l 1063 174 l 999 174 l 999 475 b 765 746 999 660 900 746 b 532 606 644 746 569 678 l 532 726 l 217 726 l 217 547 l 283 547 l 283 174 l 218 174 l 218 0 z m -50 615 b 206 838 114 618 206 699 l 206 856 b 67 1003 206 946 147 1003 b -61 888 -3 1003 -61 958 b 54 774 -61 821 -21 778 b -50 708 51 736 18 714 z "},"ň":{"ha":893,"x_min":0,"x_max":0,"o":"m 410 0 l 410 174 l 342 174 l 342 410 b 460 544 342 501 390 544 b 558 426 526 544 558 506 l 558 174 l 492 174 l 492 0 l 872 0 l 872 174 l 808 174 l 808 475 b 575 746 808 660 710 746 b 342 606 454 746 379 678 l 342 726 l 26 726 l 26 547 l 93 547 l 93 174 l 28 174 l 28 0 z m 358 813 l 535 813 l 706 1039 l 536 1039 l 451 961 l 367 1039 l 193 1039 z "},"ņ":{"ha":893,"x_min":0,"x_max":0,"o":"m 410 0 l 410 174 l 342 174 l 342 410 b 460 544 342 501 390 544 b 558 426 526 544 558 506 l 558 174 l 492 174 l 492 0 l 872 0 l 872 174 l 808 174 l 808 475 b 575 746 808 660 710 746 b 342 606 454 746 379 678 l 342 726 l 26 726 l 26 547 l 93 547 l 93 174 l 28 174 l 28 0 z m 351 -317 b 556 -161 493 -314 556 -254 l 556 -151 b 443 -46 556 -82 511 -46 b 344 -125 385 -46 344 -76 b 444 -197 344 -178 382 -201 b 351 -243 442 -226 411 -240 z "},"ŏ":{"ha":858,"x_min":0,"x_max":0,"o":"m 429 -17 b 826 361 651 -17 826 125 l 826 372 b 431 746 826 603 654 746 b 32 365 206 746 32 599 l 32 354 b 429 -17 32 119 206 -17 z m 431 154 b 285 361 333 154 285 226 l 285 372 b 431 572 285 504 338 572 b 574 369 524 572 574 501 l 574 358 b 431 154 574 226 524 154 z m 428 815 b 657 1035 557 815 649 894 l 504 1035 b 428 968 499 994 472 968 b 356 1035 383 968 360 993 l 201 1035 b 428 815 208 894 296 815 z "},"ő":{"ha":858,"x_min":0,"x_max":0,"o":"m 429 -17 b 826 361 651 -17 826 125 l 826 372 b 431 746 826 603 654 746 b 32 365 206 746 32 599 l 32 354 b 429 -17 32 119 206 -17 z m 431 154 b 285 361 333 154 285 226 l 285 372 b 431 572 285 504 338 572 b 574 369 524 572 574 501 l 574 358 b 431 154 574 226 524 154 z m 486 810 l 633 810 l 740 1040 l 546 1040 z m 239 810 l 388 810 l 494 1040 l 300 1040 z "},"ō":{"ha":858,"x_min":0,"x_max":0,"o":"m 429 -17 b 826 361 651 -17 826 125 l 826 372 b 431 746 826 603 654 746 b 32 365 206 746 32 599 l 32 354 b 429 -17 32 119 206 -17 z m 431 154 b 285 361 333 154 285 226 l 285 372 b 431 572 285 504 338 572 b 574 369 524 572 574 501 l 574 358 b 431 154 574 226 524 154 z m 217 850 l 643 850 l 643 989 l 217 989 z "},"ǿ":{"ha":858,"x_min":0,"x_max":0,"o":"m 279 361 l 279 372 b 431 579 279 510 333 579 b 518 551 467 579 496 569 l 283 300 b 279 361 281 318 279 339 z m 431 149 b 336 182 392 149 360 160 l 574 438 b 579 369 578 417 579 394 l 579 358 b 431 149 579 222 528 149 z m 429 -17 b 826 361 651 -17 826 125 l 826 372 b 742 615 826 471 794 554 l 806 685 l 719 767 l 649 692 b 431 746 588 726 513 746 b 32 365 206 746 32 599 l 32 354 b 113 117 32 257 61 178 l 43 43 l 129 -39 l 203 40 b 429 -17 267 3 344 -17 z m 331 810 l 508 810 l 654 1040 l 404 1040 z "},"ŕ":{"ha":618,"x_min":0,"x_max":0,"o":"m 415 0 l 415 174 l 342 174 l 342 344 b 583 503 342 460 428 510 l 583 736 b 342 575 464 738 388 688 l 342 726 l 26 726 l 26 547 l 93 547 l 93 174 l 28 174 l 28 0 z m 242 810 l 419 810 l 565 1040 l 315 1040 z "},"ř":{"ha":618,"x_min":0,"x_max":0,"o":"m 415 0 l 415 174 l 342 174 l 342 344 b 583 503 342 460 428 510 l 583 736 b 342 575 464 738 388 688 l 342 726 l 26 726 l 26 547 l 93 547 l 93 174 l 28 174 l 28 0 z m 250 813 l 426 813 l 597 1039 l 428 1039 l 343 961 l 258 1039 l 85 1039 z "},"ŗ":{"ha":618,"x_min":0,"x_max":0,"o":"m 415 0 l 415 174 l 342 174 l 342 344 b 583 503 342 460 428 510 l 583 736 b 342 575 464 738 388 688 l 342 726 l 26 726 l 26 547 l 93 547 l 93 174 l 28 174 l 28 0 z m 108 -317 b 313 -161 250 -314 313 -254 l 313 -151 b 200 -46 313 -82 268 -46 b 101 -125 142 -46 101 -76 b 201 -197 101 -178 139 -201 b 108 -243 199 -226 168 -240 z "},"ś":{"ha":711,"x_min":0,"x_max":0,"o":"m 406 -17 b 681 229 576 -17 681 71 b 385 469 681 388 582 446 b 267 538 296 483 267 497 b 349 600 267 579 299 600 b 479 507 415 600 465 565 l 651 507 l 651 726 l 483 726 l 483 664 b 292 744 460 704 417 744 b 36 513 135 744 36 657 b 307 276 36 378 111 301 b 440 204 403 264 440 253 b 343 133 440 160 410 133 b 213 242 265 133 219 183 l 35 242 l 35 0 l 211 0 l 211 67 b 406 -17 231 35 275 -17 z m 251 810 l 429 810 l 575 1040 l 325 1040 z "},"ş":{"ha":711,"x_min":0,"x_max":0,"o":"m 406 -17 b 681 229 576 -17 681 71 b 385 469 681 388 582 446 b 267 538 296 483 267 497 b 349 600 267 579 299 600 b 479 507 415 600 465 565 l 651 507 l 651 726 l 483 726 l 483 664 b 292 744 460 704 417 744 b 36 513 135 744 36 657 b 307 276 36 378 111 301 b 440 204 403 264 440 253 b 343 133 440 160 410 133 b 213 242 265 133 219 183 l 35 242 l 35 0 l 211 0 l 211 67 b 310 -4 225 44 250 13 l 247 -101 l 300 -154 b 344 -139 310 -147 324 -139 b 392 -182 375 -139 392 -157 b 346 -224 392 -206 375 -224 b 297 -185 315 -224 301 -206 l 179 -185 b 356 -314 192 -268 256 -314 b 524 -182 457 -314 524 -265 b 371 -62 524 -92 451 -54 l 401 -17 z "},"ŝ":{"ha":711,"x_min":0,"x_max":0,"o":"m 406 -17 b 681 229 576 -17 681 71 b 385 469 681 388 582 446 b 267 538 296 483 267 497 b 349 600 267 579 299 600 b 479 507 415 600 465 565 l 651 507 l 651 726 l 483 726 l 483 664 b 292 744 460 704 417 744 b 36 513 135 744 36 657 b 307 276 36 378 111 301 b 440 204 403 264 440 253 b 343 133 440 160 410 133 b 213 242 265 133 219 183 l 35 242 l 35 0 l 211 0 l 211 67 b 406 -17 231 35 275 -17 z m 94 813 l 265 813 l 349 890 l 433 813 l 607 813 l 443 1039 l 265 1039 z "},"ș":{"ha":711,"x_min":0,"x_max":0,"o":"m 406 -17 b 681 229 576 -17 681 71 b 385 469 681 388 582 446 b 267 538 296 483 267 497 b 349 600 267 579 299 600 b 479 507 415 600 465 565 l 651 507 l 651 726 l 483 726 l 483 664 b 292 744 460 704 417 744 b 36 513 135 744 36 657 b 307 276 36 378 111 301 b 440 204 403 264 440 253 b 343 133 440 160 410 133 b 213 242 265 133 219 183 l 35 242 l 35 0 l 211 0 l 211 67 b 406 -17 231 35 275 -17 z m 253 -317 b 457 -161 394 -314 457 -254 l 457 -151 b 344 -46 457 -82 413 -46 b 246 -125 286 -46 246 -76 b 346 -197 246 -178 283 -201 b 253 -243 343 -226 313 -240 z "},"ŧ":{"ha":547,"x_min":0,"x_max":0,"o":"m 503 4 l 503 185 b 432 172 479 175 458 172 b 358 249 385 172 358 196 l 358 353 l 500 353 l 500 461 l 358 461 l 358 551 l 500 551 l 500 726 l 358 726 l 358 878 l 108 878 l 108 726 l 25 726 l 25 551 l 108 551 l 108 461 l 25 461 l 25 353 l 108 353 l 108 233 b 365 -17 108 63 200 -17 b 503 4 424 -17 471 -4 z "},"ť":{"ha":547,"x_min":0,"x_max":0,"o":"m 369 -17 b 508 6 426 -17 474 -4 l 508 185 b 436 172 483 175 461 172 b 358 249 385 172 358 196 l 358 551 l 507 551 l 507 726 l 358 726 l 358 878 l 108 878 l 108 726 l 25 726 l 25 551 l 108 551 l 108 233 b 369 -17 108 63 200 -17 z m 397 804 l 526 804 l 594 1046 l 410 1046 z "},"ţ":{"ha":547,"x_min":0,"x_max":0,"o":"m 369 -17 b 508 6 426 -17 474 -4 l 508 185 b 436 172 483 175 461 172 b 358 249 385 172 358 196 l 358 551 l 507 551 l 507 726 l 358 726 l 358 878 l 108 878 l 108 726 l 25 726 l 25 551 l 108 551 l 108 233 b 369 -17 108 63 200 -17 z m 206 -317 b 410 -161 347 -314 410 -254 l 410 -151 b 297 -46 410 -82 365 -46 b 199 -125 239 -46 199 -76 b 299 -197 199 -178 236 -201 b 206 -243 296 -226 265 -240 z "},"ŭ":{"ha":886,"x_min":0,"x_max":0,"o":"m 549 121 l 549 0 l 865 0 l 865 174 l 799 174 l 799 726 l 482 726 l 482 547 l 549 547 l 549 318 b 433 182 549 225 500 182 b 335 301 367 182 335 221 l 335 726 l 21 726 l 21 547 l 85 547 l 85 253 b 317 -19 85 67 183 -19 b 549 121 436 -19 511 47 z m 436 815 b 665 1035 565 815 657 894 l 513 1035 b 436 968 507 994 481 968 b 364 1035 392 968 368 993 l 210 1035 b 436 815 217 894 304 815 z "},"ű":{"ha":886,"x_min":0,"x_max":0,"o":"m 549 121 l 549 0 l 865 0 l 865 174 l 799 174 l 799 726 l 482 726 l 482 547 l 549 547 l 549 318 b 433 182 549 225 500 182 b 335 301 367 182 335 221 l 335 726 l 21 726 l 21 547 l 85 547 l 85 253 b 317 -19 85 67 183 -19 b 549 121 436 -19 511 47 z m 494 810 l 642 810 l 749 1040 l 554 1040 z m 247 810 l 396 810 l 503 1040 l 308 1040 z "},"ū":{"ha":886,"x_min":0,"x_max":0,"o":"m 549 121 l 549 0 l 865 0 l 865 174 l 799 174 l 799 726 l 482 726 l 482 547 l 549 547 l 549 318 b 433 182 549 225 500 182 b 335 301 367 182 335 221 l 335 726 l 21 726 l 21 547 l 85 547 l 85 253 b 317 -19 85 67 183 -19 b 549 121 436 -19 511 47 z m 225 850 l 651 850 l 651 989 l 225 989 z "},"ų":{"ha":886,"x_min":0,"x_max":0,"o":"m 592 -253 b 715 -231 646 -253 690 -242 l 715 -119 b 674 -126 704 -124 690 -126 b 632 -87 649 -126 632 -114 b 690 0 632 -57 651 -31 l 865 0 l 865 174 l 799 174 l 799 726 l 482 726 l 482 547 l 549 547 l 549 318 b 433 182 549 225 500 182 b 335 301 367 182 335 221 l 335 726 l 21 726 l 21 547 l 85 547 l 85 253 b 317 -19 85 67 183 -19 b 549 121 436 -19 511 47 l 549 0 b 429 -143 489 -28 429 -74 b 592 -253 429 -214 501 -253 z "},"ů":{"ha":886,"x_min":0,"x_max":0,"o":"m 549 121 l 549 0 l 865 0 l 865 174 l 799 174 l 799 726 l 482 726 l 482 547 l 549 547 l 549 318 b 433 182 549 225 500 182 b 335 301 367 182 335 221 l 335 726 l 21 726 l 21 547 l 85 547 l 85 253 b 317 -19 85 67 183 -19 b 549 121 436 -19 511 47 z m 438 796 b 601 954 528 796 601 867 b 438 1114 601 1042 528 1114 b 274 954 347 1114 274 1042 b 438 796 274 867 347 796 z m 438 885 b 374 954 400 885 374 914 b 438 1024 374 994 400 1024 b 501 954 475 1024 501 994 b 438 885 501 914 475 885 z "},"ũ":{"ha":886,"x_min":0,"x_max":0,"o":"m 549 121 l 549 0 l 865 0 l 865 174 l 799 174 l 799 726 l 482 726 l 482 547 l 549 547 l 549 318 b 433 182 549 225 500 182 b 335 301 367 182 335 221 l 335 726 l 21 726 l 21 547 l 85 547 l 85 253 b 317 -19 85 67 183 -19 b 549 121 436 -19 511 47 z m 528 815 b 692 1031 611 815 681 886 l 557 1031 b 513 986 551 1004 538 986 b 347 1033 467 986 422 1033 b 188 817 261 1033 197 963 l 322 817 b 365 861 326 843 343 861 b 528 815 408 861 450 815 z "},"ẃ":{"ha":1199,"x_min":0,"x_max":0,"o":"m 608 407 l 707 0 l 951 0 l 1119 547 l 1178 547 l 1178 726 l 842 726 l 842 547 l 918 547 l 838 246 l 728 726 l 526 726 l 407 244 l 336 547 l 404 547 l 404 726 l 21 726 l 21 547 l 82 547 l 249 0 l 499 0 z m 525 810 l 703 810 l 849 1040 l 599 1040 z "},"ŵ":{"ha":1199,"x_min":0,"x_max":0,"o":"m 608 407 l 707 0 l 951 0 l 1119 547 l 1178 547 l 1178 726 l 842 726 l 842 547 l 918 547 l 838 246 l 728 726 l 526 726 l 407 244 l 336 547 l 404 547 l 404 726 l 21 726 l 21 547 l 82 547 l 249 0 l 499 0 z m 365 813 l 536 813 l 619 890 l 704 813 l 878 813 l 714 1039 l 536 1039 z "},"ẅ":{"ha":1199,"x_min":0,"x_max":0,"o":"m 608 407 l 707 0 l 951 0 l 1119 547 l 1178 547 l 1178 726 l 842 726 l 842 547 l 918 547 l 838 246 l 728 726 l 526 726 l 407 244 l 336 547 l 404 547 l 404 726 l 21 726 l 21 547 l 82 547 l 249 0 l 499 0 z m 767 806 b 886 921 833 806 886 857 b 767 1038 886 985 833 1038 b 649 921 700 1038 649 985 b 767 806 649 857 700 806 z m 471 806 b 590 921 538 806 590 857 b 471 1038 590 985 538 1038 b 353 921 406 1038 353 985 b 471 806 353 857 406 806 z "},"ẁ":{"ha":1199,"x_min":0,"x_max":0,"o":"m 608 407 l 707 0 l 951 0 l 1119 547 l 1178 547 l 1178 726 l 842 726 l 842 547 l 918 547 l 838 246 l 728 726 l 526 726 l 407 244 l 336 547 l 404 547 l 404 726 l 21 726 l 21 547 l 82 547 l 249 0 l 499 0 z m 549 810 l 726 810 l 653 1040 l 403 1040 z "},"ŷ":{"ha":849,"x_min":0,"x_max":0,"o":"m 829 547 l 829 726 l 485 726 l 485 547 l 547 547 l 447 297 l 349 547 l 417 547 l 417 726 l 21 726 l 21 547 l 88 547 l 319 47 l 267 -79 l 168 -79 l 168 -253 l 421 -253 l 760 547 z m 192 813 l 363 813 l 446 890 l 531 813 l 704 813 l 540 1039 l 363 1039 z "},"ỳ":{"ha":849,"x_min":0,"x_max":0,"o":"m 829 547 l 829 726 l 485 726 l 485 547 l 547 547 l 447 297 l 349 547 l 417 547 l 417 726 l 21 726 l 21 547 l 88 547 l 319 47 l 267 -79 l 168 -79 l 168 -253 l 421 -253 l 760 547 z m 374 810 l 551 810 l 478 1040 l 228 1040 z "},"ź":{"ha":735,"x_min":0,"x_max":0,"o":"m 514 168 l 346 168 l 699 643 l 699 726 l 35 726 l 35 467 l 221 467 l 221 564 l 376 564 l 25 85 l 25 0 l 706 0 l 706 268 l 514 268 z m 283 810 l 461 810 l 607 1040 l 357 1040 z "},"ż":{"ha":735,"x_min":0,"x_max":0,"o":"m 514 168 l 346 168 l 699 643 l 699 726 l 35 726 l 35 467 l 221 467 l 221 564 l 376 564 l 25 85 l 25 0 l 706 0 l 706 268 l 514 268 z m 381 804 b 513 929 456 804 513 857 b 381 1053 513 1000 456 1053 b 247 929 304 1053 247 1000 b 381 804 247 857 304 804 z "},"":{"ha":1364,"x_min":0,"x_max":0,"o":"m 933 174 b 789 360 842 174 789 236 l 789 371 b 932 558 789 493 843 558 b 1075 369 1019 558 1075 497 l 1075 358 b 933 174 1075 239 1025 174 z m 1019 -17 b 1329 358 1190 -17 1329 108 l 1329 369 b 1021 746 1329 618 1190 746 b 796 611 913 746 836 686 l 796 1046 l 418 1046 b 101 781 214 1046 101 967 l 101 726 l 26 726 l 26 551 l 101 551 l 101 174 l 28 174 l 28 0 l 424 0 l 424 174 l 350 174 l 350 551 l 476 551 l 476 726 l 350 726 l 350 775 b 446 869 350 838 374 869 l 546 869 l 546 174 l 482 174 l 482 0 l 796 0 l 796 118 b 1019 -17 832 38 911 -17 z "},"ﬀ":{"ha":972,"x_min":0,"x_max":0,"o":"m 424 0 l 424 174 l 350 174 l 350 551 l 546 551 l 546 174 l 482 174 l 482 0 l 879 0 l 879 174 l 794 174 l 794 551 l 942 551 l 942 726 l 794 726 l 794 790 b 878 869 794 838 819 869 b 946 860 906 869 928 865 l 946 1042 b 832 1057 911 1051 878 1057 b 546 790 660 1057 546 971 l 546 726 l 350 726 l 350 779 b 426 858 350 825 374 858 b 485 850 453 858 471 854 l 485 1032 b 382 1046 460 1039 426 1046 b 101 779 213 1046 101 960 l 101 726 l 26 726 l 26 551 l 101 551 l 101 174 l 28 174 l 28 0 z "},"":{"ha":1808,"x_min":0,"x_max":0,"o":"m 1378 174 b 1233 360 1288 174 1233 236 l 1233 371 b 1378 558 1233 493 1288 558 b 1521 369 1465 558 1521 497 l 1521 358 b 1378 174 1521 239 1471 174 z m 1464 -17 b 1774 358 1636 -17 1774 108 l 1774 369 b 1467 746 1774 618 1636 746 b 1240 611 1357 746 1282 686 l 1240 1046 l 863 1046 b 546 781 660 1046 546 967 l 546 726 l 350 726 l 350 779 b 426 858 350 825 374 858 b 485 850 453 858 471 854 l 485 1032 b 382 1046 460 1039 426 1046 b 101 779 213 1046 101 960 l 101 726 l 26 726 l 26 551 l 101 551 l 101 174 l 28 174 l 28 0 l 424 0 l 424 174 l 350 174 l 350 551 l 546 551 l 546 174 l 482 174 l 482 0 l 868 0 l 868 174 l 794 174 l 794 551 l 922 551 l 922 726 l 794 726 l 794 775 b 890 869 794 838 819 869 l 992 869 l 992 174 l 926 174 l 926 0 l 1240 0 l 1240 118 b 1464 -17 1276 38 1357 -17 z "},"":{"ha":1792,"x_min":0,"x_max":0,"o":"m 424 0 l 424 174 l 350 174 l 350 551 l 546 551 l 546 174 l 482 174 l 482 0 l 868 0 l 868 174 l 794 174 l 794 551 l 922 551 l 922 726 l 794 726 l 794 775 b 890 869 794 838 819 869 l 992 869 l 992 174 l 926 174 l 926 0 l 1307 0 l 1307 174 l 1240 174 l 1240 410 b 1358 544 1240 501 1289 544 b 1457 426 1425 544 1457 506 l 1457 174 l 1392 174 l 1392 0 l 1771 0 l 1771 174 l 1707 174 l 1707 475 b 1474 746 1707 660 1608 746 b 1240 606 1353 746 1279 678 l 1240 1046 l 863 1046 b 546 781 660 1046 546 967 l 546 726 l 350 726 l 350 779 b 426 858 350 825 374 858 b 485 850 453 858 471 854 l 485 1032 b 382 1046 460 1039 426 1046 b 101 779 213 1046 101 960 l 101 726 l 26 726 l 26 551 l 101 551 l 101 174 l 28 174 l 28 0 z "},"ﬃ":{"ha":1328,"x_min":0,"x_max":0,"o":"m 1114 794 b 1251 925 1192 794 1251 850 b 1114 1054 1251 999 1192 1054 b 975 925 1035 1054 975 999 b 1114 794 975 850 1035 794 z m 424 0 l 424 174 l 350 174 l 350 551 l 546 551 l 546 174 l 482 174 l 482 0 l 868 0 l 868 174 l 794 174 l 794 551 l 992 551 l 992 174 l 926 174 l 926 0 l 1307 0 l 1307 174 l 1240 174 l 1240 726 l 794 726 l 794 790 b 867 869 794 838 815 869 b 922 863 889 869 906 868 l 922 1044 b 821 1057 896 1053 868 1057 b 546 790 656 1057 546 971 l 546 726 l 350 726 l 350 779 b 426 858 350 825 374 858 b 485 850 453 858 471 854 l 485 1032 b 382 1046 460 1039 426 1046 b 101 779 213 1046 101 960 l 101 726 l 26 726 l 26 551 l 101 551 l 101 174 l 28 174 l 28 0 z "},"":{"ha":1315,"x_min":0,"x_max":0,"o":"m 1114 794 b 1251 925 1192 794 1251 850 b 1114 1054 1251 999 1192 1054 b 975 925 1035 1054 975 999 b 1114 794 975 850 1035 794 z m 901 -256 b 1239 6 1165 -256 1239 -151 l 1239 726 l 794 726 l 794 790 b 867 869 794 838 815 869 b 922 863 889 869 906 868 l 922 1044 b 821 1057 896 1053 868 1057 b 546 790 656 1057 546 971 l 546 726 l 350 726 l 350 779 b 426 858 350 825 374 858 b 485 850 453 858 471 854 l 485 1032 b 382 1046 460 1039 426 1046 b 101 779 213 1046 101 960 l 101 726 l 26 726 l 26 551 l 101 551 l 101 174 l 28 174 l 28 0 l 424 0 l 424 174 l 350 174 l 350 551 l 546 551 l 546 174 l 482 174 l 482 0 l 879 0 l 879 174 l 794 174 l 794 551 l 990 551 l 990 11 b 901 -75 990 -46 964 -71 z "},"":{"ha":1740,"x_min":0,"x_max":0,"o":"m 424 0 l 424 174 l 350 174 l 350 551 l 546 551 l 546 174 l 482 174 l 482 0 l 868 0 l 868 174 l 794 174 l 794 551 l 922 551 l 922 726 l 794 726 l 794 775 b 890 869 794 838 819 869 l 992 869 l 992 174 l 926 174 l 926 0 l 1299 0 l 1299 174 l 1240 174 l 1240 313 l 1481 0 l 1718 0 l 1718 174 l 1643 174 l 1471 388 l 1629 553 l 1704 553 l 1704 726 l 1329 726 l 1329 567 l 1431 567 l 1240 389 l 1240 1046 l 863 1046 b 546 781 660 1046 546 967 l 546 726 l 350 726 l 350 779 b 426 858 350 825 374 858 b 485 850 453 858 471 854 l 485 1032 b 382 1046 460 1039 426 1046 b 101 779 213 1046 101 960 l 101 726 l 26 726 l 26 551 l 101 551 l 101 174 l 28 174 l 28 0 z "},"ﬄ":{"ha":1326,"x_min":0,"x_max":0,"o":"m 424 0 l 424 174 l 350 174 l 350 551 l 546 551 l 546 174 l 482 174 l 482 0 l 868 0 l 868 174 l 794 174 l 794 551 l 922 551 l 922 726 l 794 726 l 794 772 b 890 865 794 832 819 865 l 992 865 l 992 174 l 926 174 l 926 0 l 1306 0 l 1306 174 l 1239 174 l 1239 1046 l 863 1046 b 546 781 660 1046 546 967 l 546 726 l 350 726 l 350 779 b 426 858 350 825 374 858 b 485 850 453 858 471 854 l 485 1032 b 382 1046 460 1039 426 1046 b 101 779 213 1046 101 960 l 101 726 l 26 726 l 26 551 l 101 551 l 101 174 l 28 174 l 28 0 z "},"":{"ha":1347,"x_min":0,"x_max":0,"o":"m 424 0 l 424 174 l 350 174 l 350 551 l 476 551 l 476 726 l 350 726 l 350 775 b 446 869 350 838 374 869 l 546 869 l 546 174 l 482 174 l 482 0 l 861 0 l 861 174 l 796 174 l 796 410 b 913 544 796 501 844 544 b 1013 426 979 544 1013 506 l 1013 174 l 947 174 l 947 0 l 1326 0 l 1326 174 l 1261 174 l 1261 475 b 1029 746 1261 660 1164 746 b 796 606 908 746 833 678 l 796 1046 l 418 1046 b 101 781 214 1046 101 967 l 101 726 l 26 726 l 26 551 l 101 551 l 101 174 l 28 174 l 28 0 z "},"ﬁ":{"ha":882,"x_min":0,"x_max":0,"o":"m 668 794 b 806 925 746 794 806 850 b 668 1054 806 999 746 1054 b 531 925 590 1054 531 999 b 668 794 531 850 590 794 z m 424 0 l 424 174 l 350 174 l 350 551 l 546 551 l 546 174 l 482 174 l 482 0 l 861 0 l 861 174 l 794 174 l 794 726 l 350 726 l 350 790 b 422 869 350 838 371 869 b 476 863 444 869 461 868 l 476 1044 b 376 1057 451 1053 422 1057 b 101 790 211 1057 101 971 l 101 726 l 26 726 l 26 551 l 101 551 l 101 174 l 28 174 l 28 0 z "},"":{"ha":869,"x_min":0,"x_max":0,"o":"m 668 794 b 806 925 746 794 806 850 b 668 1054 806 999 746 1054 b 531 925 589 1054 531 999 b 668 794 531 850 589 794 z m 457 -256 b 793 6 719 -256 793 -151 l 793 726 l 350 726 l 350 790 b 422 869 350 838 371 869 b 476 863 444 869 461 868 l 476 1044 b 376 1057 451 1053 422 1057 b 101 790 211 1057 101 971 l 101 726 l 26 726 l 26 551 l 101 551 l 101 174 l 28 174 l 28 0 l 435 0 l 435 174 l 350 174 l 350 551 l 546 551 l 546 11 b 457 -75 546 -46 518 -71 z "},"":{"ha":1294,"x_min":0,"x_max":0,"o":"m 424 0 l 424 174 l 350 174 l 350 551 l 476 551 l 476 726 l 350 726 l 350 775 b 446 869 350 838 374 869 l 546 869 l 546 174 l 482 174 l 482 0 l 853 0 l 853 174 l 796 174 l 796 313 l 1036 0 l 1272 0 l 1272 174 l 1197 174 l 1026 388 l 1185 553 l 1258 553 l 1258 726 l 883 726 l 883 567 l 986 567 l 796 389 l 796 1046 l 418 1046 b 101 781 214 1046 101 967 l 101 726 l 26 726 l 26 551 l 101 551 l 101 174 l 28 174 l 28 0 z "},"ﬂ":{"ha":882,"x_min":0,"x_max":0,"o":"m 424 0 l 424 174 l 350 174 l 350 551 l 476 551 l 476 726 l 350 726 l 350 775 b 446 869 350 838 374 869 l 546 869 l 546 174 l 482 174 l 482 0 l 861 0 l 861 174 l 794 174 l 794 1046 l 418 1046 b 101 781 214 1046 101 967 l 101 726 l 26 726 l 26 551 l 101 551 l 101 174 l 28 174 l 28 0 z "},"⅛":{"ha":1158,"x_min":0,"x_max":0,"o":"m 414 471 l 414 604 l 326 604 l 326 993 l 168 993 l 28 900 l 28 751 l 142 815 l 142 604 l 39 604 l 39 471 z m 107 0 l 238 0 l 1015 993 l 885 993 z m 889 -10 b 1126 153 1042 -10 1126 51 b 1033 275 1126 208 1099 254 b 1107 381 1078 293 1107 325 b 890 529 1107 478 1017 529 b 674 379 771 529 674 476 b 747 274 674 325 703 292 b 651 147 682 253 651 203 b 889 -10 651 46 736 -10 z m 890 114 b 832 167 857 114 832 133 b 890 221 832 200 857 221 b 947 168 924 221 947 199 b 890 114 947 135 922 114 z m 890 315 b 839 364 864 315 839 335 b 890 411 839 392 864 411 b 942 364 919 411 942 393 b 890 315 942 335 919 315 z "},"⅓":{"ha":1154,"x_min":0,"x_max":0,"o":"m 414 471 l 414 604 l 326 604 l 326 993 l 168 993 l 28 900 l 28 751 l 142 815 l 142 604 l 39 604 l 39 471 z m 107 0 l 238 0 l 1015 993 l 885 993 z m 889 -10 b 1118 158 1042 -10 1118 58 b 1013 272 1118 221 1075 263 b 1107 385 1072 289 1107 326 b 890 529 1107 476 1026 529 b 667 350 747 529 675 454 l 828 350 b 886 403 833 385 856 403 b 933 363 918 403 933 386 b 871 315 933 332 915 315 l 829 315 l 829 213 l 871 213 b 933 165 914 213 933 196 b 879 118 933 136 914 118 b 817 176 839 118 821 143 l 656 176 b 889 -10 661 68 725 -10 z "},"⅜":{"ha":1176,"x_min":0,"x_max":0,"o":"m 263 461 b 492 629 415 461 492 529 b 386 743 492 692 449 733 b 481 856 446 760 481 797 b 264 1000 481 947 400 1000 b 40 821 121 1000 49 925 l 201 821 b 260 874 207 856 229 874 b 307 833 292 874 307 857 b 244 786 307 803 289 786 l 203 786 l 203 683 l 244 683 b 307 636 288 683 307 667 b 253 589 307 607 288 589 b 190 647 213 589 194 614 l 29 647 b 263 461 35 539 99 461 z m 140 0 l 271 0 l 1049 993 l 918 993 z m 907 -10 b 1144 153 1060 -10 1144 51 b 1051 275 1144 208 1117 254 b 1125 381 1096 293 1125 325 b 908 529 1125 478 1035 529 b 692 379 789 529 692 476 b 765 274 692 325 721 292 b 669 147 700 253 669 203 b 907 -10 669 46 754 -10 z m 908 114 b 850 167 875 114 850 133 b 908 221 850 200 875 221 b 965 168 942 221 965 199 b 908 114 965 135 940 114 z m 908 315 b 857 364 882 315 857 335 b 908 411 857 392 882 411 b 960 364 938 411 960 393 b 908 315 960 335 938 315 z "},"⅝":{"ha":1157,"x_min":0,"x_max":0,"o":"m 253 461 b 483 656 400 461 483 536 b 321 814 483 754 417 814 b 185 754 242 814 207 788 l 189 872 l 322 872 l 322 844 l 453 844 l 453 993 l 61 993 l 49 675 l 189 675 b 246 708 197 693 215 708 b 300 653 282 708 300 688 b 250 596 300 618 282 596 b 197 636 214 596 201 613 l 31 636 b 253 461 33 538 100 461 z m 121 0 l 251 0 l 1029 993 l 899 993 z m 888 -10 b 1125 153 1040 -10 1125 51 b 1032 275 1125 208 1097 254 b 1106 381 1076 293 1106 325 b 889 529 1106 478 1015 529 b 672 379 769 529 672 476 b 746 274 672 325 701 292 b 650 147 681 253 650 203 b 888 -10 650 46 735 -10 z m 889 114 b 831 167 856 114 831 133 b 889 221 831 200 856 221 b 946 168 922 221 946 199 b 889 114 946 135 921 114 z m 889 315 b 838 364 863 315 838 335 b 889 411 838 392 863 411 b 940 364 918 411 940 393 b 889 315 940 335 918 315 z "},"⅔":{"ha":1206,"x_min":0,"x_max":0,"o":"m 354 601 l 272 601 l 357 669 b 472 846 436 733 472 775 b 257 1000 472 942 397 1000 b 29 797 121 1000 35 925 l 192 797 b 247 867 194 840 214 867 b 290 826 278 867 290 849 b 211 721 290 793 265 769 l 31 568 l 31 471 l 472 471 l 472 631 l 354 631 z m 179 0 l 310 0 l 1088 993 l 957 993 z m 940 -10 b 1169 158 1093 -10 1169 58 b 1064 272 1169 221 1126 263 b 1158 385 1124 289 1158 326 b 942 529 1158 476 1078 529 b 718 350 799 529 726 454 l 879 350 b 938 403 885 385 907 403 b 985 363 969 403 985 386 b 922 315 985 332 967 315 l 881 315 l 881 213 l 922 213 b 985 165 965 213 985 196 b 931 118 985 136 965 118 b 868 176 890 118 872 143 l 707 176 b 940 -10 713 68 776 -10 z "},"⅞":{"ha":1114,"x_min":0,"x_max":0,"o":"m 119 471 l 304 471 l 463 897 l 463 993 l 25 993 l 25 792 l 167 792 l 167 864 l 268 864 z m 51 0 l 182 0 l 960 993 l 829 993 z m 846 -10 b 1083 153 999 -10 1083 51 b 990 275 1083 208 1056 254 b 1064 381 1035 293 1064 325 b 847 529 1064 478 974 529 b 631 379 728 529 631 476 b 704 274 631 325 660 292 b 608 147 639 253 608 203 b 846 -10 608 46 693 -10 z m 847 114 b 789 167 814 114 789 133 b 847 221 789 200 814 221 b 904 168 881 221 904 199 b 847 114 904 135 879 114 z m 847 315 b 796 364 821 315 796 335 b 847 411 796 392 821 411 b 899 364 876 411 899 393 b 847 315 899 335 876 315 z "},"′":{"ha":347,"x_min":0,"x_max":0,"o":"m 49 611 l 224 611 l 311 993 l 76 993 z "},"″":{"ha":642,"x_min":0,"x_max":0,"o":"m 343 611 l 519 611 l 606 993 l 372 993 z m 49 611 l 224 611 l 311 993 l 76 993 z "},"Ⓟ":{"ha":1160,"x_min":0,"x_max":0,"o":"m 578 -28 b 1113 499 878 -28 1113 200 b 581 1021 1113 790 883 1021 b 46 496 282 1021 46 789 b 578 -28 46 199 283 -28 z m 578 43 b 133 496 336 43 133 224 b 581 950 133 765 329 950 b 1026 499 829 950 1026 767 b 578 43 1026 226 824 43 z m 582 529 l 582 650 l 624 650 b 693 590 668 650 693 631 l 693 588 b 624 529 693 553 668 529 z m 640 219 l 640 343 l 582 343 l 582 413 l 642 413 b 858 588 785 413 858 476 l 858 590 b 635 779 858 710 792 779 l 357 779 l 357 656 l 407 656 l 407 343 l 357 343 l 357 219 z "},"":{"ha":833,"x_min":0,"x_max":0,"o":"m 268 722 b 363 814 268 769 300 803 l 363 626 b 268 722 289 644 268 674 z m 574 281 b 479 175 574 229 542 189 l 479 376 b 574 281 549 360 574 332 z m 479 -187 l 479 -15 b 800 301 672 -3 800 118 b 479 608 800 496 669 575 l 479 810 b 569 700 533 794 558 757 l 778 700 l 778 993 l 614 993 l 614 894 b 479 996 594 936 553 976 l 479 1129 l 363 1129 l 363 1007 b 47 710 167 1000 47 876 b 363 397 47 532 150 435 l 363 176 b 247 319 286 194 257 250 l 35 319 l 35 0 l 201 0 l 201 108 b 363 -8 224 58 275 11 l 363 -187 z "},"":{"ha":833,"x_min":0,"x_max":0,"o":"m 796 286 l 588 286 b 497 161 581 215 546 175 l 497 556 b 585 446 546 540 574 500 l 788 446 l 788 726 l 626 726 l 626 624 b 497 733 607 668 569 713 l 497 874 l 381 874 l 381 744 b 51 365 190 735 51 597 l 51 354 b 381 -14 51 133 190 8 l 381 -187 l 497 -187 l 497 -14 b 796 286 681 6 789 119 z m 289 357 l 289 368 b 381 554 289 476 324 532 l 381 165 b 289 357 322 188 289 246 z "},"":{"ha":833,"x_min":0,"x_max":0,"o":"m 793 332 l 567 332 b 453 192 561 229 525 192 b 332 361 371 192 336 243 l 488 361 l 504 460 l 332 460 l 332 529 l 517 529 l 533 629 l 332 629 b 454 801 338 749 376 801 b 568 671 525 801 558 751 l 781 671 l 781 993 l 604 993 l 604 889 b 407 1007 578 950 519 1007 b 85 629 210 1007 93 871 l 18 629 l 18 529 l 85 529 l 85 460 l 18 460 l 18 361 l 85 361 b 443 -17 96 117 229 -17 b 793 332 663 -17 786 90 z "},"":{"ha":833,"x_min":0,"x_max":0,"o":"m 413 -17 b 788 396 646 -17 788 129 l 788 607 b 417 1007 788 881 632 1007 b 46 600 200 1007 46 868 l 46 390 b 413 -17 46 125 185 -17 z m 421 194 b 301 392 336 194 301 249 l 301 601 b 418 800 301 742 333 800 b 532 603 501 800 532 742 l 532 392 b 421 194 532 250 506 194 z "},"":{"ha":833,"x_min":0,"x_max":0,"o":"m 789 0 l 789 200 l 596 200 l 596 993 l 344 993 l 72 789 l 72 551 l 311 713 l 311 200 l 92 200 l 92 0 z "},"":{"ha":833,"x_min":0,"x_max":0,"o":"m 524 346 b 769 719 679 494 769 578 b 418 1007 769 888 653 1007 b 50 638 164 1007 56 858 l 303 638 b 407 803 308 758 342 803 b 497 701 468 803 497 765 b 321 439 497 625 447 567 l 43 157 l 43 0 l 789 0 l 789 288 l 569 288 l 569 189 l 363 189 z "},"":{"ha":833,"x_min":0,"x_max":0,"o":"m 421 -17 b 793 296 663 -17 793 107 b 613 521 793 417 719 497 b 771 735 710 551 771 624 b 425 1007 771 900 643 1007 b 57 676 196 1007 67 878 l 294 676 b 419 806 301 763 347 806 b 525 704 492 806 525 765 b 401 594 525 635 485 594 l 326 594 l 326 419 l 404 419 b 528 301 490 419 528 379 b 407 185 528 231 490 185 b 272 326 313 185 278 239 l 31 326 b 421 -17 39 107 163 -17 z "},"":{"ha":833,"x_min":0,"x_max":0,"o":"m 249 460 l 446 806 l 446 460 z m 786 0 l 786 200 l 692 200 l 692 278 l 794 278 l 794 460 l 692 460 l 692 993 l 374 993 l 21 404 l 21 278 l 440 278 l 440 200 l 342 200 l 342 0 z "},"":{"ha":833,"x_min":0,"x_max":0,"o":"m 410 -17 b 781 342 644 -17 781 122 b 497 660 781 538 676 660 b 283 558 388 660 321 613 l 290 799 l 514 799 l 514 731 l 722 731 l 722 993 l 96 993 l 78 406 l 236 406 b 389 479 265 447 313 479 b 519 342 471 479 519 428 b 403 197 519 254 483 197 b 282 313 317 197 289 239 l 44 313 b 410 -17 51 113 163 -17 z "},"":{"ha":833,"x_min":0,"x_max":0,"o":"m 796 332 b 503 644 796 540 667 644 b 293 529 393 644 331 592 b 453 811 294 722 351 811 b 551 717 518 811 543 774 l 783 717 b 453 1007 772 918 649 1007 b 44 521 211 1007 44 835 l 44 433 b 435 -17 44 161 161 -17 b 796 332 661 -17 796 122 z m 429 186 b 294 332 351 186 294 240 b 428 467 294 415 351 467 b 557 326 506 467 557 414 b 429 186 557 243 504 186 z "},"":{"ha":833,"x_min":0,"x_max":0,"o":"m 264 797 l 490 797 l 190 0 l 474 0 l 785 839 l 785 993 l 49 993 l 49 664 l 264 664 z "},"":{"ha":833,"x_min":0,"x_max":0,"o":"m 417 -17 b 796 288 646 -17 796 96 b 631 525 796 400 739 485 b 761 731 708 564 761 629 b 419 1007 761 907 611 1007 b 76 729 233 1007 76 907 b 207 524 76 629 126 563 b 39 281 99 482 39 394 b 417 -17 39 88 190 -17 z m 421 596 b 307 707 360 596 307 639 b 419 815 307 774 358 815 b 532 707 482 815 532 774 b 421 596 532 639 483 596 z m 418 185 b 289 310 344 185 289 231 b 419 436 289 390 344 436 b 547 310 496 436 547 389 b 418 185 547 231 493 185 z "},"":{"ha":833,"x_min":0,"x_max":0,"o":"m 406 528 b 276 668 328 528 276 581 b 404 808 276 753 329 808 b 539 661 482 808 539 753 b 406 528 539 578 482 528 z m 393 -15 b 789 461 643 -15 789 156 l 789 561 b 400 1008 789 846 658 1008 b 38 658 174 1008 38 867 b 331 347 38 447 169 347 b 542 461 440 347 503 399 b 388 181 540 268 497 181 b 278 281 317 181 286 222 l 44 281 b 393 -15 57 81 181 -15 z "},"":{"ha":892,"x_min":0,"x_max":0,"o":"m 422 174 b 288 358 340 174 288 236 l 288 369 b 425 558 288 496 339 558 b 561 371 510 558 561 497 l 561 360 b 422 174 561 236 506 174 z m 554 117 l 554 0 l 868 0 l 868 174 l 803 174 l 803 547 l 868 547 l 868 726 l 554 726 l 554 625 b 338 746 514 699 449 746 b 33 367 176 746 33 614 l 33 356 b 338 -17 33 104 176 -17 b 554 117 442 -17 518 43 z "},"":{"ha":849,"x_min":0,"x_max":0,"o":"m 574 -253 l 574 -79 l 494 -79 l 761 547 l 829 547 l 829 726 l 485 726 l 485 547 l 549 547 l 447 297 l 349 547 l 417 547 l 417 726 l 21 726 l 21 547 l 89 547 l 319 47 l 268 -79 l 179 -79 l 179 -253 z "},"ƒ":{"ha":621,"x_min":0,"x_max":0,"o":"m 563 407 l 563 575 l 406 575 l 428 728 b 526 815 436 785 468 815 b 597 806 557 815 578 811 l 597 992 b 489 1007 563 1001 535 1007 b 182 749 322 1007 208 933 l 157 575 l 32 575 l 32 407 l 133 407 l 40 -253 l 288 -253 l 382 407 z "},"ȷ":{"ha":419,"x_min":0,"x_max":0,"o":"m 340 6 l 340 726 l 26 726 l 26 547 l 93 547 l 93 11 b 4 -75 93 -46 65 -71 l 4 -256 b 340 6 267 -256 340 -151 z "}," ":{"ha":121,"x_min":0,"x_max":0,"o":""},"Ț":{"ha":1028,"x_min":0,"x_max":0,"o":"m 751 0 l 751 200 l 657 200 l 657 792 l 783 792 l 783 650 l 990 650 l 990 993 l 38 993 l 38 650 l 243 650 l 243 792 l 371 792 l 371 200 l 275 200 l 275 0 z m 415 -317 b 619 -161 557 -314 619 -254 l 619 -151 b 507 -46 619 -82 575 -46 b 408 -125 449 -46 408 -76 b 508 -197 408 -178 446 -201 b 415 -243 506 -226 475 -240 z "},"ț":{"ha":547,"x_min":0,"x_max":0,"o":"m 369 -17 b 508 6 426 -17 474 -4 l 508 185 b 436 172 483 175 461 172 b 358 249 385 172 358 196 l 358 551 l 507 551 l 507 726 l 358 726 l 358 878 l 108 878 l 108 726 l 25 726 l 25 551 l 108 551 l 108 233 b 369 -17 108 63 200 -17 z m 206 -317 b 410 -161 347 -314 410 -254 l 410 -151 b 297 -46 410 -82 365 -46 b 199 -125 239 -46 199 -76 b 299 -197 199 -178 236 -201 b 206 -243 296 -226 265 -240 z "}}}
